<svg xmlns="http://www.w3.org/2000/svg" height="556pt" version="1.1" viewBox="0 -7 556.3405 556" width="556pt">
<g id="surface1">
<path d="M 493.816406 13.191406 C 487.585938 7.265625 477.808594 7.265625 471.574219 13.191406 L 342.863281 141.960938 L 414.058594 213.152344 L 542.707031 84.503906 C 548.816406 78.347656 548.816406 68.414062 542.707031 62.257812 Z M 493.816406 13.191406 " style=" stroke:none;fill-rule:nonzero;fill:rgb(100%,63.921569%,0%);fill-opacity:1;" />
<path d="M 312.320312 172.546875 L 338.757812 146.113281 L 409.96875 217.328125 L 383.535156 243.761719 Z M 312.320312 172.546875 " style=" stroke:none;fill-rule:nonzero;fill:rgb(77.647059%,78.431373%,78.039216%);fill-opacity:1;" />
<path d="M 58.058594 426.804688 L 308.136719 176.726562 L 379.351562 247.941406 L 129.269531 498.019531 Z M 58.058594 426.804688 " style=" stroke:none;fill-rule:nonzero;fill:rgb(77.647059%,78.431373%,78.039216%);fill-opacity:1;" />
<path d="M 86.621094 534.132812 C 90.800781 534.15625 94.8125 532.507812 97.773438 529.554688 L 125.179688 502.148438 L 53.929688 430.953125 L 26.519531 458.363281 C 20.410156 464.519531 20.410156 474.449219 26.519531 480.605469 L 75.410156 529.671875 C 78.402344 532.589844 82.433594 534.199219 86.621094 534.132812 Z M 86.621094 534.132812 " style=" stroke:none;fill-rule:nonzero;fill:rgb(84.705882%,30.196078%,0.392157%);fill-opacity:1;" />
<path d="M 493.816406 13.191406 C 487.585938 7.265625 477.808594 7.265625 471.574219 13.191406 L 342.863281 141.960938 L 377.726562 176.824219 L 517.589844 37.078125 Z M 493.816406 13.191406 " style=" stroke:none;fill-rule:nonzero;fill:rgb(100%,80.784314%,0%);fill-opacity:1;" />
<path d="M 312.28125 172.53125 L 338.714844 146.09375 L 373.574219 180.953125 L 347.140625 207.390625 Z M 312.28125 172.53125 " style=" stroke:none;fill-rule:nonzero;fill:rgb(100%,100%,100%);fill-opacity:1;" />
<path d="M 308.179688 176.707031 L 58.039062 426.789062 L 92.78125 461.53125 L 342.984375 211.566406 Z M 308.179688 176.707031 " style=" stroke:none;fill-rule:nonzero;fill:rgb(100%,100%,100%);fill-opacity:1;" />
<path d="M 53.929688 430.953125 L 26.519531 458.363281 C 20.410156 464.519531 20.410156 474.449219 26.519531 480.605469 L 49.996094 504.082031 L 88.558594 465.523438 Z M 53.929688 430.953125 " style=" stroke:none;fill-rule:nonzero;fill:rgb(100%,39.215686%,1.960784%);fill-opacity:1;" />
<path d="M 548.988281 56.035156 L 500.039062 7.324219 C 490.449219 -2.21875 474.941406 -2.21875 465.351562 7.324219 L 303.777344 168.371094 L 49.761719 422.621094 L 20.417969 451.964844 C 10.875 461.554688 10.875 477.054688 20.417969 486.652344 L 69.015625 535.542969 C 78.617188 545.125 94.15625 545.125 103.757812 535.542969 L 548.8125 90.488281 C 558.394531 80.886719 558.394531 65.34375 548.8125 55.742188 Z M 383.480469 239.621094 L 316.453125 172.539062 L 338.757812 150.234375 L 405.78125 217.320312 Z M 129.230469 493.871094 L 62.203125 426.789062 L 308.179688 180.871094 L 375.203125 247.957031 Z M 95.601562 527.5 C 90.589844 532.496094 82.476562 532.496094 77.464844 527.5 L 28.515625 478.554688 C 23.523438 473.542969 23.523438 465.429688 28.515625 460.417969 L 53.871094 435.0625 L 120.894531 502.089844 Z M 540.652344 82.449219 L 414.058594 209.042969 L 347.03125 141.960938 L 473.628906 15.363281 C 478.640625 10.367188 486.75 10.367188 491.765625 15.363281 L 540.710938 64.3125 C 545.707031 69.324219 545.707031 77.433594 540.710938 82.449219 Z M 540.652344 82.449219 " style=" stroke:none;fill-rule:nonzero;fill:rgb(17.647059%,22.745098%,23.921569%);fill-opacity:1;" />
<path d="M 17.480469 424.027344 C 59.5625 381.949219 43.660156 336.992188 28.339844 293.558594 C 13.84375 252.476562 -1.003906 210.160156 29.867188 166.667969 C 31.742188 164.027344 31.128906 160.359375 28.488281 158.480469 C 25.84375 156.605469 22.175781 157.21875 20.300781 159.859375 C -14.269531 208.28125 2.691406 255.644531 17.246094 297.492188 C 32.683594 341.15625 46.066406 378.894531 9.207031 415.753906 C 6.746094 417.859375 6.460938 421.570312 8.566406 424.03125 C 10.671875 426.488281 14.382812 426.777344 16.839844 424.667969 C 17.070312 424.476562 17.285156 424.257812 17.480469 424.027344 Z M 17.480469 424.027344 " style=" stroke:none;fill-rule:nonzero;fill:rgb(17.647059%,22.745098%,23.921569%);fill-opacity:1;" />
<path d="M 36.617188 216.675781 C 34.15625 218.78125 33.871094 222.492188 35.976562 224.949219 C 38.082031 227.410156 41.792969 227.695312 44.25 225.589844 C 44.480469 225.390625 44.695312 225.179688 44.890625 224.949219 C 70.363281 199.480469 60.855469 172.773438 51.757812 146.890625 C 43.1875 122.710938 35.148438 99.9375 52.34375 75.816406 C 54.222656 73.175781 53.605469 69.507812 50.964844 67.628906 C 48.324219 65.75 44.65625 66.367188 42.777344 69.007812 C 22 98.355469 31.921875 126.113281 40.722656 150.824219 C 49.527344 175.53125 56.804688 196.425781 36.617188 216.675781 Z M 36.617188 216.675781 " style=" stroke:none;fill-rule:nonzero;fill:rgb(17.647059%,22.745098%,23.921569%);fill-opacity:1;" />
</g>
</svg>