<?xml version="1.0" encoding="utf-8"?>
<!-- Generator: Adobe Illustrator 21.1.0, SVG Export Plug-In . SVG Version: 6.00 Build 0)  -->
<svg version="1.1" id="Layer_1" xmlns="http://www.w3.org/2000/svg" xmlns:xlink="http://www.w3.org/1999/xlink" x="0px" y="0px"
	 viewBox="0 0 300 300" style="enable-background:new 0 0 300 300;" xml:space="preserve">
<style type="text/css">
	.st0{fill:#FDCABE;}
	.st1{fill:#E8AB9E;}
	.st2{fill:#FDC05A;}
	.st3{fill:#FDCABF;}
	.st4{fill:#FDC15A;}
	.st5{fill:#FDDCCE;}
	.st6{fill:#FDC15B;}
	.st7{fill:#385F7C;}
	.st8{fill:#FDCE6B;}
	.st9{fill:#427191;}
	.st10{fill:#E1934A;}
</style>
<g>
	<path class="st0" d="M144,98.4c4.4,0,8.9-0.1,13.3,0c4.4,0.2,8.6-3.9,8.4-8.4c-0.2-6.1,0-12.2-0.1-18.3c0-1.2,0.3-1.7,1.6-1.6
		c5.1,0.4,10.2,1.1,15.2,2.2c9,2,17.7,5.2,25.9,9.5c6.8,3.6,13.2,7.9,19,12.9c5.1,4.3,9.8,9,13.9,14.3c0.7,0.9,1.5,0.9,2.5,0.7
		c3.3-0.6,6.7-1.3,10.1-0.2c6.2,1.9,9.9,6,11.4,12.2c0.7,2.8,0.1,5.7-0.1,8.5c-0.3,4.4-0.9,8.8-1.8,13.1c-0.2,1.1-0.3,2.2-0.6,3.2
		c-1.2,3.5-0.2,6.8,0.4,10.1c0.8,4.2,1.2,8.5,1.5,12.9c0.2,3.5,0.4,7,0.2,10.5c-0.3,5.2-0.1,10.3-0.3,15.5
		c-0.3,8.1-0.5,16.2-2.7,24.2c-2.7,9.5-6.9,18.1-13,25.9c-4.3,5.5-9.3,10.3-15,14.4c-0.8-0.2-1.5,0.2-2.2,0.6
		c-10,6.7-21,10.6-32.9,12.2c-1.2,0.2-2.6-0.2-3.6,1c-0.2,0.1-0.5,0.1-0.7,0.1c-1.2-0.8-2.6-0.8-4-0.9c-1.1-0.1-1.9,0.6-2.7,1.3
		c-0.8,0.3-1.5,0.3-2.3,0c-2.8-1.1-5.7-1.9-8.4,0.3c-1.8,0.2-3.6,0.4-5.3-0.1c-1.8-0.1-3.5,0-5.3,0c-1,0.1-1.9-0.1-2.9-0.4
		c-1.6-0.5-3.1-0.4-4.6,0.5c-5.3,0-10.5,0-15.8,0c-0.4-0.4-0.9-0.7-1.5-0.7c-2.9-0.1-5.8-0.3-8.7,0.5c-0.6,0.1-1.3,0-2,0.1
		c-1.1-0.8-2.1-0.4-3.1,0.2c-1,0.2-2,0.3-3-0.1c-1-1.1-2.2-1.5-3.6-1.3c-1.7,0.2-3.4-0.1-4.9,1c-0.7,0.3-1.3,0.3-2,0
		c-0.6-0.7-1.4-1.1-2.3-1.5c-2.1-1.1-4-2.5-5.5-4.4c-1.9-2.3-3.8-4.6-5.5-7.1c-5.2-7.8-8.9-16.3-11.4-25.3
		c-1.8-6.3-2.8-12.7-3.7-19.1c-0.2-1.6,0.2-3.4-0.8-5c-0.3-0.5,0-1.1,0.1-1.7c0.4-1.5,0.3-2.9-1.1-3.9c-0.3-0.6-0.3-1.1,0-1.7
		c0.9-0.9,1.7-0.4,2.4,0.3c1.6,2,3.5,2.1,5.7,1.3c0.7-0.3,1.4-0.6,1.7-1.5c0.2-0.5,0.6-0.8,1-1.2c1.2-1.5,2.2-3,1.7-5.1
		c0-1.2,0.2-2.4,0.6-3.5c1.4-1.2,1.7-2.3,0.1-3.8c0-0.1,0-0.3,0-0.4c0.6-0.6,0.8-1.2,0.3-1.9c-0.3-0.4-0.3-0.9-0.3-1.3
		c-0.3-2.4-1.8-4.1-3.3-5.8c-0.8-0.9-2.2-1.1-3.5-0.6c-0.3,0.1-0.6,0.1-0.9-0.1c-0.6-0.7-1.2-0.9-2-0.2c-0.8,0.8-2.1,0.8-3,1.6
		c-0.3,0.3-0.8,0.2-1-0.3c-0.3-1.2-0.2-2.4,0-3.6c0.7-1.6,0.7-3.2,0-4.9c-0.2-1.2-0.3-2.5,0-3.7c1.7-2.1,1.8-3.4,0.4-5.8
		c-0.1-0.2,0-0.5,0.1-0.7c1-0.7,1.3-1.5,1-2.7c-0.3-1.5,0.3-2.9,0.4-4.4c0.4-3.6,0.7-7.2,1.5-10.7c0.3-1.4,0.9-2.5,2.1-3.2
		c6.7-4,13.8-7.3,21.2-9.7c0.3-0.1,0.7-0.2,1-0.3c1.2-0.5,1.4-1.4,0.3-2.2c-1.3-0.9-2.6-1.7-3.9-2.5c-4-2.4-8-4.7-12.2-6.8
		c-2.1-1-2.3-1.6-1.3-3.8c1.4-3.5,2.6-7.1,4.3-10.5c1.5-3,3-6.1,4.6-9.1c0.7-0.5,1.6-0.1,2.4-0.5c0.3-0.1,0.6-0.1,0.9-0.1
		c0.4,0,0.8,0,1.1-0.1c0.9-0.4,1.8-0.8,2.8-0.6c2.5-0.3,4.8-1.2,7.1-2c0.6-0.3,1.3-0.5,1.9-0.7c1.9-0.7,3.7-1.7,5.5-2.7
		c0.6-0.5,1.3-0.9,2-1.2c2.3-1.3,4.4-3.1,6.4-4.9c0.9-0.6,1.4-1.9,2.7-2c0,2.4,0,4.8,0,7.1c-1,1.6-0.2,3.1,0.5,4.5
		c1,2,2.6,3.4,4.8,4.1C142.6,98.9,143.4,99.1,144,98.4z"/>
	<path class="st1" d="M125.1,274.2c1.1,0,2.3,0,3.4,0c0.7-0.3,1.4-0.6,2.1-0.2c0.2,0.1,0.2,0.3,0.1,0.5c-1.1,2.8-2.3,5.6-3.4,8.4
		c-0.4,0.3-0.9,0.5-1.4,0.5c-2.8,0-5.6,0.2-8.4-0.2c-1.4-0.2-2.8-0.1-4.2-0.1c-8.3-0.1-16.5-1-24.4-3.6c-1.6-0.5-1.7-0.4-1.7,1.3
		c0,1.3,0,2.6,0,3.9c0,5.7,3.2,10.2,8.7,12.1c0.5,0.2,1.3,0.2,1.4,1c-5.4,0-10.8,0.1-16.3,0c-6.2-0.1-11.9-5.8-11.9-12
		c0-8,0-16,0-24c0-1.1-0.3-1.8-1.2-2.5c-13.9-10.5-23.1-24.1-27.4-41c-1.4-5.5-2-11-2.2-16.7c-0.3-9.7-0.7-19.5-0.5-29.3
		c0.1-6.7,0.9-13.4,2.5-19.9c0.5-2,0-3.8-0.4-5.6c-1.2-6.2-2-12.5-2.6-18.8c-0.5-4.9,0.1-9.4,3.2-13.3c3.7-4.5,8.5-6.5,14.4-5.7
		c1.5,0.2,2.9,0.5,4.4,0.7c0.6,0.1,1.2,0.1,1.7-0.5c5.2-6.4,11-12.2,17.5-17.2c0.1-0.1,0.1-0.2,0.2-0.2c0.2-0.2,0.4-0.2,0.6-0.2
		c1.3,0.5,2.5,1.3,3.8,1.8c0.8,0.3,1.6,0.7,2.4,1c1.1,0.6,2.2,0.8,3.4,1.1c0.2,0,0.3,0.1,0.4,0.1c0.7,0.2,1.5,0.4,2.3,0.5
		c2.1,0.3,4.2,0.5,6.2,0.9c0.9,0.3,1.9,0.2,2.8,0.2c0.7,0,1.4-0.1,2,0.3c0.6,0.7,0,1.2-0.3,1.8c-3.3,6.1-6,12.4-8.2,18.9
		c-0.6,1.8-0.6,1.9,1.1,2.7c5.3,2.6,10.4,5.5,15.4,8.7c0.3,0.2,0.6,0.4,0.9,0.6c0.4,0.3,1,0.6,0.9,1.1c-0.1,0.7-0.7,0.8-1.3,0.9
		c-7.5,2.3-14.5,5.7-21.3,9.6c-1.7,1-2.5,2.2-2.8,4.1c-0.7,5.3-1.4,10.6-1.8,16c0,0.5-0.1,1-0.4,1.4c0,0.2,0,0.4,0,0.6
		c0.6,1.9,0.4,3.8-0.3,5.6c0,1.3,0,2.7,0,4c0.5,1.5,0.5,3.1,0,4.6c0,1.3,0,2.7,0,4c0.8,0.8,0.3,1.9,0.5,2.8c-0.3,1.5-1,2.9-1.3,4.4
		c-0.7,4-0.3,7.8,1.3,11.4c0.1,0.3,0.2,0.6,0.3,0.9c-0.1,0.8,0.1,1.8-0.5,2.5c0,0.6,0,1.2,0,1.9c0.8,1.5,0.5,3.1,0.7,4.7
		c1.2,18.3,5.7,35.6,16.1,51c2.6,3.9,5.9,7.3,9.4,10.4c1.1,1,2.5,0.8,3.6,1.5c0.7,0,1.4,0,2.2,0c0.2-0.1-0.1,0,0.1-0.1
		C118,273.4,123.9,273.6,125.1,274.2z"/>
	<path class="st2" d="M102.8,97.8c-0.7,0-1.5,0-2.2-0.1c-0.9-0.8-1.9-0.1-2.8-0.3c-2.2-0.2-4.4-0.4-6.5-1c-0.6-0.5-1.5-0.4-2.2-0.6
		c-0.1,0-0.2,0-0.3,0c-1-0.8-2.3-0.7-3.4-1.2c-0.9,0-1.7-0.5-2.5-0.9c-1.2-0.8-2.4-1.5-3.7-1.8c-0.2,0-0.4,0-0.6,0
		c-0.1-0.1-0.2-0.2-0.3-0.3c-1.8-1.6-3.7-2.9-5.8-4c-0.3-1.1-2.1-0.8-2.2-2.1C69,84.2,68,82.8,66.5,82c-1-0.4-0.9-1.7-1.8-2.2
		c-1.3-2-2.4-4.1-4-5.8c-0.3-0.1-0.3-0.3-0.3-0.6c-0.3-1.4-0.8-2.7-1.9-3.8c-0.4-0.9-0.8-1.9-1.2-2.8c0-1-0.2-2-1-2.8
		c-0.4-0.3-0.2-0.8-0.3-1.2c0.1-1.2-0.2-2.4-0.8-3.5c-0.6-1.6-0.5-3.3-0.7-4.9c-0.5-0.8,0.4-1.7-0.2-2.5c0-1.3,0-2.7,0-4
		c0.6-0.8-0.2-1.7,0.2-2.5c0.4-3.7,0.9-7.3,2.2-10.8c1-2.8,2-5.6,3.7-8.1c1.1-0.5,1.3-1.7,1.9-2.5c0.6-0.8,1.1-1.6,1.6-2.5
		c0.6-0.6,0.8-1.6,1.6-2.1c1.1,0,1-0.9,1.2-1.6c1.2-1.2,2.2-2.6,3.7-3.5c0.8,0,1-0.7,1.3-1.2c1.1-0.5,1.9-1.4,2.9-2.1
		c0.8-0.3,1.7-0.7,2.1-1.5c5.7-3.7,11.9-5.9,18.5-6.8c1.6-0.2,3.3-0.6,5-0.4c1.1-0.2,2.1-0.2,3.2,0c3.8,0.1,7.5,0.8,11.3,1.7
		c2.9,0.7,5.5,1.9,8.1,3c3.4,1.5,6.4,3.6,9.3,5.9c0.9,0.7,1.9,1.4,2.6,2.4c0.6,0.9,1.3,1.6,2.2,2.2c4.8,4.7,8.3,10.2,10.4,16.5
		c5.1,15.5,3.2,30.1-6,43.6c-1.3,1.9-2.9,3.6-4.4,5.3c-0.8,0.7-1.6,1.5-2.4,2.2c-1.2,0.4-2.1,1.5-3,2.3c-1.1,1-2.4,1.7-3.5,2.7
		c-0.6,0.4-1.2,0.8-1.9,1.2c-2.1,0.5-3.8,1.7-5.6,2.7c-0.6,0.2-1.2,0.4-1.8,0.7c-2.5,0.7-5,1.3-7.5,2.1c-1-0.4-1.7,0.3-2.5,0.6
		c-0.4-0.5-0.8-0.4-1.2,0c-0.3,0-0.6,0-0.9,0c-0.4,0.3-0.8,0.2-1.1,0c-0.7-0.3-1.4-0.2-1.9,0.4C103,97.9,102.9,97.9,102.8,97.8z"/>
	<path class="st0" d="M233.6,268.9c0,5.7,0.1,11.5,0,17.2c-0.1,5.2-5,10.6-10.1,11.4c-2.7,0.4-5.5,0.2-8.2,0.3c-4.3,0.1-8.7,0-13,0
		c-5.1-0.5-8.2-3.6-10.2-8.1c-0.8-1.7-1.4-3.4-2.1-5.2c-0.7-1.8-0.4-2.2,1.5-2.3c6.4-0.4,12.7-1,19-2.7c7.4-2,14.3-5.2,20.8-9.4
		C232,269.5,232.6,268.8,233.6,268.9z"/>
	<path class="st1" d="M233.6,268.9c-9.1,6.4-19.1,10.6-30.1,12.5c-4.1,0.7-8.3,0.9-12.4,1.2c-0.5,0-1.4-0.1-1,0.8
		c1.3,3.1,2.1,6.4,4.1,9.1c1.8,2.6,4.4,4.2,7.4,4.9c0.2,0.1,0.5,0.2,0.7,0.3c-4.4,0-8.8,0.2-13.1,0c-5.2-0.3-8.9-3.1-11-7.8
		c-2.2-5.1-4.2-10.3-6.3-15.4c-0.2-0.1-0.2-0.2,0-0.3c1.9,0,3.7,0,5.6,0c0.4-0.2,0.7-0.4,1.1-0.4c1.9-0.1,3.8-0.1,5.6-0.2
		c0.4,0,0.9,0.1,1.3,0.4c0.8,0,1.7,0,2.5,0c2.1-0.7,4.3-0.9,6.5-0.3c0.2,0,0.4,0,0.6,0c1.9-0.8,4-0.7,6.1-1
		c10.9-1.6,20.9-5.4,30.2-11.4c0.7-0.4,1.3-1.1,2.2-0.9C233.6,263.2,233.6,266.1,233.6,268.9z"/>
	<path class="st0" d="M97.2,297.8c-2.9-0.8-5.4-2.1-7.4-4.4c-1.9-2.2-3-4.7-3.1-7.5c-0.1-2.1,0-4.2,0-6.3c0-0.9,0.2-1.2,1.1-0.9
		c4.6,1.7,9.3,2.6,14.1,3.3c2.8,0.4,5.6,0.7,8.4,0.7c5.7,0,11.3,0.6,17,0.3c-0.9,2.2-1.8,4.5-2.7,6.7c-2.4,5.4-6.5,8.2-12.5,8.2
		C107.1,297.8,102.1,297.8,97.2,297.8z"/>
	<path class="st0" d="M233.6,260.3c-8.8,6.2-18.6,10.3-29.1,12.3c-3.1,0.6-6.2,1.1-9.3,1c0.3-0.8,0.7-1.2,1.7-1.3
		c4.6-0.2,9.1-1.2,13.6-2.4c7.9-2.1,15.1-5.6,21.8-10.3c0.7-0.5,1.2-0.4,1.7,0.3C233.8,260.1,233.7,260.2,233.6,260.3z"/>
	<path class="st0" d="M144,98.4c0.1,1.1-0.7,1-1.4,0.9c-3.6-0.8-6.4-4-7-7.6c-0.1-0.8,0.1-1.4,0.9-1.7c0.3,2.3,0.9,4.4,2.7,6
		C140.7,97.3,142.3,98,144,98.4z"/>
	<path class="st3" d="M133.2,274.2c0.8-1,2.1-0.8,3.1-0.9c1.8-0.2,3.7-0.1,5.5-0.1c0.8,0,1.6,0.1,1.6,1.2c-2.4,0-4.8,0-7.1,0
		C135.3,274.1,134.2,274.7,133.2,274.2z"/>
	<path class="st0" d="M159.2,274.5c0.9-1.3,3.4-1.8,5.1-0.8c0.7,0.4,1.3,0.5,2,0.5c0.1,0.1,0.1,0.1,0.1,0.2c0,0.1-0.1,0.1-0.1,0.1
		C164,274.5,161.6,274.5,159.2,274.5z"/>
	<path class="st4" d="M72.4,87.5c0.7,0,1.2,0.1,1.8,0.6c1,0.8,2.1,1.5,3.2,2.1c0.5,0.3,0.9,0.7,0.8,1.3
		C76.2,90.4,74.2,89.1,72.4,87.5z"/>
	<path class="st4" d="M60.6,73.9c0.1-0.2,0.4-0.4,0.5-0.2c1.2,1.9,2.6,3.6,3.5,5.7c0,0.1,0,0.2,0,0.3C62.9,78,61.7,76,60.6,73.9z"/>
	<path class="st4" d="M63.7,21.4c-0.4,2-1.9,3.4-2.8,5.1c-0.1,0.3-0.5,0.1-0.6-0.1C61.2,24.6,62.2,22.8,63.7,21.4z"/>
	<path class="st4" d="M66.5,82c1.9,0.5,2.9,1.9,3.7,3.4C68.6,84.7,67.6,83.2,66.5,82z"/>
	<path class="st4" d="M58.3,69.6c1.4,0.5,2.2,2.1,1.9,3.8C59.5,72.2,58.7,71,58.3,69.6z"/>
	<path class="st4" d="M55,59.3c1.1,1,1.2,2.2,0.8,3.5C55.5,61.6,55.1,60.5,55,59.3z"/>
	<path class="st4" d="M56.2,64c1.2,0.6,1.5,1.6,1,2.8C56.6,65.9,56.4,65,56.2,64z"/>
	<path class="st5" d="M166.3,274.5c0-0.1,0-0.2,0-0.3c1.9,0,3.7,0,5.6,0c0,0.1,0,0.2,0,0.3C170.1,274.5,168.2,274.5,166.3,274.5z"/>
	<path class="st5" d="M133.2,274.2c1,0.1,2.1-0.3,3.1,0.3c-1.9,0-3.7,0-5.6,0c0-0.1,0-0.2,0-0.3c0.1-0.1,0.2-0.1,0.3,0
		C131.7,274.2,132.4,274.2,133.2,274.2z"/>
	<path class="st4" d="M76.4,9.4c-0.2,1.3-1.1,1.5-2.1,1.5C74.9,10.3,75.6,9.8,76.4,9.4z"/>
	<path class="st4" d="M66.5,17.7c0.3,1.4,0,1.8-1.2,1.6C66,19,65.9,18.1,66.5,17.7z"/>
	<path class="st6" d="M136.6,17.4c-1.1-0.3-1.9-1.1-2.2-2.2C135.2,15.9,136,16.6,136.6,17.4z"/>
	<path class="st4" d="M54.1,51.9c1.3,0.7-0.2,1.7,0.2,2.5C53.9,53.6,54.1,52.7,54.1,51.9z"/>
	<path class="st4" d="M71.4,13.1c0,0.9,0,1.7-1.3,1.2C70.6,13.9,71,13.5,71.4,13.1z"/>
	<path class="st4" d="M54.4,45.3c-0.4,0.8,0.9,1.8-0.2,2.5C54.1,47,53.9,46.1,54.4,45.3z"/>
	<path class="st6" d="M103.1,2.2c-1.1,0-2.1,0-3.2,0C101,1.9,102.1,1.9,103.1,2.2z"/>
	<path class="st7" d="M206.4,201.3c-0.3-0.8-0.6-1.6-1-2.4c-1-1.4-1.3-3.1-0.9-4.7c0.2-0.9-0.1-1.9,0.2-2.7c0-0.3,0-0.6,0-0.9
		c-0.3-1-0.1-2,0.6-2.8c0.1-0.3,0.2-0.6,0.3-0.9c0.1-1.9,1.1-3.4,2.8-4.3l0,0c0.6-1.2,1.6-1.6,2.8-1.5c0.6,0,1.2,0,1.7,0
		c2.4,0.3,4.6,2.1,5,4.6l0,0c1.2,1,1.1,2.4,1.3,3.8c0.6,3.1,0.2,6.2-0.3,9.2c-0.1,0.7,0.1,1.4-0.7,1.8c-0.3,0.4-0.6,0.8-0.5,1.3
		c-0.7,2.4-2.3,3.7-4.6,4.3c-1.7,0.4-3.3,0.1-4.4-1.4c-0.3-0.3-0.7-0.7-1-1C207,203,206.6,202.2,206.4,201.3z"/>
	<path class="st7" d="M85,202c-2.8-5.5-2.8-11.1-0.3-16.8c0.5-2.5,3.1-4.7,5.3-4.3c0.3,0,0.6,0,0.9,0c0.8-0.3,1.5,0.2,2.2,0.5
		c2.3,1.1,5.1,6.1,4.6,9.4c0,0.1,0,0.2,0,0.3c0.6,1.2,0.8,2.5,0,3.7c-0.2,1.2-0.4,2.5-0.6,3.7c0.1,3.2-3.3,6.9-5.6,7.4
		C88.9,206.6,85.6,204.7,85,202z"/>
	<path class="st3" d="M184.6,238.6c-4.1,3.7-8.8,6-14.2,7c-3.6,0.6-7.2,0.6-10.8,0.4c-1.1,0-2.1,0.4-3.2,0.3
		c-3.9,0-7.7,0.2-11.6-0.2c-2.7-0.3-5.5,0-8.3-0.1c-5.6-0.2-10.8-1.6-15.4-4.8c-6.3-4.4-10.6-10.3-12.2-17.9c-0.4-2-0.7-3.9-0.7-6
		c0-2.9,0.1-5.8,0-8.7c-0.2-7.5,2-14.2,6.8-20c0.9-1.2,1.9-2.2,3.1-3.1c1.1-1.5,2.8-2.4,4.4-3.3c3.6-2,7.3-3.5,11.5-3.6
		c0.3,0,0.6-0.2,0.9-0.3c2-0.3,3.9-0.3,5.9,0c1.2-0.3,2.5,0.8,3.7,0c1.6-0.4,3.3,0.1,5-0.3c0.1,0,0.2,0,0.3,0c1-0.2,2.1-0.2,3.1,0
		c0.1,0,0.2,0,0.3,0c1.5,0.4,3.1-0.1,4.7,0.3c1.1,0.8,2.3-0.4,3.4,0c2.1-0.2,4.1-0.2,6.2,0c1.5,0.6,3.1,0.4,4.6,0.8
		c4.6,1.3,8.8,3.4,12.4,6.6c0.8,0.6,1.6,1.3,2.2,2.2c3.8,4.2,5.9,9.2,7,14.7c0.2,0.9-0.1,1.9,0.4,2.7c0.3,2.6,0.1,5.2,0.1,7.8
		c0,1.9,0.2,3.9-0.1,5.8c-0.3,1.5-0.5,2.9-0.8,4.4c-1,4.8-3.3,8.9-6.3,12.7C186.4,237,185.6,237.8,184.6,238.6z"/>
	<path class="st0" d="M102.8,97.8c0.1,0,0.2,0,0.3-0.1c0.2-0.1,0.4-0.2,0.6,0.1c-0.3,2.4-1.8,4.3-2.9,6.4c-1.5,3-2.7,6-4,9
		c-0.6,1.6-1.2,3.2-1.9,4.7c-0.5,1.1-0.3,1.8,0.8,2.4c5.6,2.7,10.9,5.8,16.1,9.1c0.3,0.2,0.6,0.4,0.9,0.6c0.6,0.4,0.9,0.8,0.8,1.5
		c-0.1,0.7-0.6,1.1-1.2,1.2c-4.2,1.1-8.2,2.8-12.1,4.6c-3.8,1.8-7.5,3.6-11,5.8c-1.4,0.9-1.1,2.3-1.4,3.4c-0.5,2.3-1.1,4.7-1.1,7
		c0,1.5-0.6,2.8-0.4,4.3c0.1,1.3-0.4,2.8-0.2,4.2c0.1,0.7-0.5,1.4-1.4,1.3c0.2-4.7,0.7-9.4,1.4-14.1c0.2-1.7,0.5-3.3,0.7-5
		c0.1-0.9,0.6-1.6,1.4-2.1c7.4-4.4,15.1-8.3,23.4-10.6c0.1,0,0.3-0.2,0.5-0.3c-2.1-1.7-4.4-2.9-6.6-4.3c-3.7-2.3-7.6-4.4-11.6-6.2
		c-1.1-0.5-1.1-1-0.7-2C95.9,111.6,98.9,104.5,102.8,97.8z"/>
	<path class="st0" d="M114.6,273.9c-2.5,0.6-3.9-1.1-5.4-2.5c-7.9-7.2-13-16.3-16.9-26.1c-3.2-8-5.2-16.3-6.3-24.9
		c-0.6-4.7-1.1-9.4-1.2-14.1c1.5,0.6,1.9,1.5,1.4,3.5c-0.3,1.1-0.6,2.1,0.2,3c0.1,0.2,0.2,0.5,0.2,0.7c-0.2,3.4,0.8,6.8,1.2,10.1
		c0.8,6.5,2.6,12.7,4.8,18.8c2.9,8.4,7.1,16.2,12.7,23.2c1.8,2.2,3.8,4.3,6,6c0.6,0.5,1.3,0.6,2,0.8
		C114,272.7,114.7,272.9,114.6,273.9z"/>
	<path class="st0" d="M85,202c3.6,5.8,8.7,4.3,11.2-0.9c0.4-0.8,0.7-1.7,1-2.6c0.5,0.3,0.6,0.7,0.4,1.3c-0.7,1.7-1.6,3.1-2.6,4.6
		c-1.1,1.6-2.3,2.2-3.9,2.5c-1.5,0.3-2.9,0-4-1.2c-0.6-0.7-1.2-1.7-2.4-1.3C84.9,203.6,84.5,202.8,85,202z"/>
	<path class="st0" d="M97.8,190.8c-0.4-1.4-0.6-2.9-1.2-4.3c-1.1-2.7-2.7-4.8-5.6-5.7c1.2-1.1,2.5-0.1,3.5,0.3
		c0.7,0.3,1.4,1.1,1.7,2.1c0.4,1.1,1.5,1.9,1.8,3.2c0.2,1,0.2,2.2,0.8,3.2C99.1,190.1,98.8,190.9,97.8,190.8z"/>
	<path class="st0" d="M208.8,204.5c3.5,2,6.1,1.3,8.4-2c0.2-0.3,0.4-0.6,0.6-0.9c0,3-1,3.7-3.9,4.7c-1.7,0.6-2.7,0.1-4-0.4
		C209.2,205.7,208.8,205.3,208.8,204.5z"/>
	<path class="st0" d="M125.1,274.2c-2.8,0.1-5.6-0.1-8.4-0.3c0.4-1.2,1.4-0.7,2.2-1c1.4-0.4,2.9-0.3,4.3-0.2
		C124.1,272.8,124.9,273.2,125.1,274.2z"/>
	<path class="st0" d="M185.6,273.9c-2.7,0.3-5.4,0.4-8.1,0.3c0.4-1.4,1.6-1.5,2.7-1.5c1.4,0,2.7,0.2,4.1,0.4
		C184.8,273.1,185.3,273.4,185.6,273.9z"/>
	<path class="st0" d="M90.1,180.9c-2.6,0.5-4.1,2.2-5.3,4.3c-0.5-0.9-0.1-1.9-0.2-2.8c1.1-1.1,2.7-1.3,3.9-2.3
		C89,179.5,89.9,179.6,90.1,180.9z"/>
	<path class="st0" d="M194.6,273.6c-2.2,0.1-4.3,0.5-6.5,0.3c0-0.5,0.3-0.9,0.7-1.1C190.1,272,193.3,272.5,194.6,273.6z"/>
	<path class="st0" d="M84.5,169.7c-0.1-1.9,0-3.7,0.3-5.6C86.6,165.7,86.4,169,84.5,169.7z"/>
	<path class="st0" d="M204.8,191.4c-0.1,2.5,0.1,5,0.7,7.4c-1.1-0.3-1.2-1.1-1.6-2.1c-0.7-1.9,1.2-3.4,0.6-5.1
		C204.4,191.6,204.6,191.5,204.8,191.4z"/>
	<path class="st0" d="M218.1,185.6c-1.2-2-2.6-3.9-5-4.6C215.9,180.3,218.8,183,218.1,185.6z"/>
	<path class="st4" d="M127.6,90c1-1.5,2.7-2.3,4-3.4c0.7-0.6,1.2-2,2.6-1.6C132.2,87,130.1,88.8,127.6,90z"/>
	<path class="st0" d="M208.5,182.4c-1.2,1.3-2,2.8-2.8,4.3C205,184.8,206.5,182.4,208.5,182.4z"/>
	<path class="st0" d="M97.9,194.8c0-1.2,0-2.5,0-3.7c0.9,0.3,1.6,0.7,1.4,1.8C99,193.7,99.4,194.9,97.9,194.8z"/>
	<path class="st0" d="M194.3,219c0-4.5,0-9.1,0-13.6c0.3,0.3,0.3,0.6,0.3,1c0,3.9,0,7.8,0,11.7C194.6,218.4,194.6,218.8,194.3,219z"
		/>
	<path class="st0" d="M219.4,189.3c-0.4-1.3-0.8-2.5-1.3-3.8c1.4,0.1,2.3,1.4,1.7,2.7C219.7,188.6,219.4,188.9,219.4,189.3z"/>
	<path class="st4" d="M110.8,96.8c0.5-0.9,1.5-0.7,2.3-1c1.7-0.5,3.4-1.1,5.2-1.2C115.9,95.7,113.5,96.6,110.8,96.8z"/>
	<path class="st4" d="M120.1,94c1.3-1.6,3.3-1.9,4.9-3c0.2-0.2,0.5,0,0.6,0.3C123.9,92.3,122.1,93.4,120.1,94z"/>
	<path class="st0" d="M211.4,180.9c-1,0.3-2,0.8-2.8,1.5C208.7,180.2,209.5,179.7,211.4,180.9z"/>
	<path class="st0" d="M205.4,187.7c-0.2,0.9-0.4,1.9-0.6,2.8c-0.5-0.2-1-0.5-0.9-1.2C204,188.4,204.5,187.9,205.4,187.7z"/>
	<path class="st0" d="M84.5,178.4c0-1.5,0-3.1,0-4.6C85.4,174.8,85.4,177.3,84.5,178.4z"/>
	<path class="st4" d="M103.7,97.8c-0.2,0-0.4,0-0.6-0.1c0.4-1,1.1-1.2,2-0.6c0.4,0.2,0.7,0.3,1.2,0.3
		C105.4,98,104.5,97.6,103.7,97.8z"/>
	<path class="st0" d="M167.6,178.4c-2.1,0-4.1,0-6.2,0C163.5,177.9,165.5,177.9,167.6,178.4z"/>
	<path class="st0" d="M140.9,178.4c-2,0-3.9,0-5.9,0C137,177.9,139,177.9,140.9,178.4z"/>
	<path class="st0" d="M118.3,185.5c-0.9,1.2-1.9,2.2-3.1,3.1C115.8,187.2,116.9,186.2,118.3,185.5z"/>
	<path class="st0" d="M131,274.2c-0.1,0-0.2,0-0.3,0c-0.7,0-1.4,0-2.1,0C129.3,273.3,130.2,272.7,131,274.2z"/>
	<path class="st0" d="M149.6,178.1c-1.6,0.7-3.3,0.1-5,0.3C146.3,177.7,148,178.3,149.6,178.1z"/>
	<path class="st0" d="M158,178.4c-1.5-0.2-3.1,0.4-4.7-0.3C154.9,178.3,156.5,177.7,158,178.4z"/>
	<path class="st0" d="M184.6,238.6c0.7-1,1.5-1.8,2.5-2.5C186.7,237.3,185.8,238.1,184.6,238.6z"/>
	<path class="st0" d="M186.8,188c-0.8-0.6-1.6-1.3-2.2-2.2C185.7,186.2,186.5,186.9,186.8,188z"/>
	<path class="st0" d="M206.4,201.3c0.5,0.7,1,1.5,1.4,2.2C206.6,203.3,206.3,202.4,206.4,201.3z"/>
	<path class="st0" d="M218.4,200.4c0.2-0.6,0.5-1.2,0.7-1.8C219.4,199.4,219.8,200.2,218.4,200.4z"/>
	<path class="st4" d="M107.1,97.4c0.1-0.5,0.3-0.9,0.8-0.8c0.5,0.1,0.4,0.5,0.4,0.8C107.9,97.4,107.5,97.4,107.1,97.4z"/>
	<path class="st0" d="M153,178.1c-1,0-2.1,0-3.1,0C150.9,177.6,152,177.6,153,178.1z"/>
	<path class="st5" d="M61.3,130.3c3.5,0.3,7.4,1.5,11.2,3.2c2.1,0.9,4.1,2,6,3.2c0.9,0.6,0.7,0.9,0.1,1.5
		c-5.7,5.1-11.4,10.2-17.1,15.3c-0.6,0.5-0.8,0.6-1.2-0.2c-2.5-4.5-3.9-9.4-4.5-14.5c-0.1-1.1-0.3-2.2-0.3-3.4
		C55.3,132.3,57.4,130.3,61.3,130.3z"/>
	<path class="st4" d="M79.2,91.9c1.6,0,2.7,0.7,3.7,1.8C81.6,93.3,80.4,92.7,79.2,91.9z"/>
	<path class="st4" d="M97.8,97.5c1-0.3,2-1.3,2.8,0.3C99.7,97.7,98.7,98,97.8,97.5z"/>
	<path class="st4" d="M85.4,94.7c1.2,0.1,2.5,0.1,3.4,1.2C87.6,95.6,86.4,95.5,85.4,94.7z"/>
	<path class="st4" d="M89.1,95.9c0.8-0.1,1.7-0.4,2.2,0.6C90.5,96.5,89.8,96.3,89.1,95.9z"/>
	<path class="st6" d="M98.7,89.7c-8.5-0.6-15.9-3.6-22.4-9.1c-4-3.4-7.3-7.4-9.8-12c-1.8-3.3-3.2-6.8-3.7-10.7
		c-0.2-1.5-0.7-3-0.7-4.5c-0.3-2.4-0.3-4.8,0-7.1c0.3-6,2.4-11.4,5.2-16.6c1.7-3,4-5.4,6.2-7.9c0.8-0.5,1.4-1.4,2.2-1.9
		c5.3-4.8,11.5-7.8,18.5-9.1c7.7-1.5,15.3-0.9,22.7,2.2c9.4,3.9,16.4,10.6,20.9,19.7c2.4,4.8,3.6,9.9,3.8,15.3
		c0.3,6.7-0.8,13-3.7,19c-1.4,3-3.4,5.8-5.5,8.4c-3.8,4.6-8.4,8.1-13.8,10.7c-3.6,1.8-7.5,2.8-11.5,3.5c-0.7,0.1-1.5-0.2-2.2,0.1
		C102.9,89.9,100.8,89.9,98.7,89.7z"/>
	<path class="st4" d="M62.1,46.3c0,2.4,0,4.8,0,7.1C61.6,51,61.6,48.7,62.1,46.3z"/>
	<path class="st4" d="M98.7,89.7c2.1,0,4.1,0,6.2,0C102.9,90.2,100.8,90.2,98.7,89.7z"/>
	<path class="st4" d="M75.8,19.9c-0.6,0.8-1.1,1.6-2.2,1.9C74.2,21,74.7,20.2,75.8,19.9z"/>
	<path class="st5" d="M150.1,179.3c5.3,0,9.5-0.1,13.6,0c4.9,0.1,9.7,0.7,14.2,3.1c8.1,4.3,13.2,10.9,14.8,20
		c0.8,4.9,0.8,9.8,0.5,14.8c-0.3,3.7-0.7,7.3-2.2,10.8c-3,7-8.1,12-15.1,14.9c-3,1.3-6.1,1.7-9.3,1.9c-9.3,0.6-18.7,0.2-28,0.2
		c-7.2,0-13.7-1.9-19.3-6.7c-4.9-4.2-8.2-9.5-9.3-16c-1-5.7-0.8-11.4-0.4-17.1c0.3-4.8,1.7-9.1,4.3-13c4.7-7.2,11.4-11.4,19.8-12.5
		C139.5,178.9,145.4,179.4,150.1,179.3z"/>
	<path class="st8" d="M101.9,10.9c21.2-0.2,39.7,17.5,39,40.2c-0.6,20.5-17.3,38-39.2,37.9c-21.6-0.1-39.2-17.3-38.8-39.8
		C63.1,28.3,80.1,10.9,101.9,10.9z"/>
	<path class="st5" d="M110.6,213.2c-0.1-5.9-0.3-10.7,1.4-15.2c3.6-9.3,10.3-14.9,20-17.1c1.4-0.3,2.9-0.5,4.4-0.4
		c2.8,0.2,5.6-0.5,8.4-0.6c1.9,0,3.8,0.1,5.7,0.2c2.4,0.2,4.7-0.6,7.1-0.2c5,0.8,10.1,0.1,15,1.5c6.6,1.9,11.9,5.8,15.5,11.7
		c2.8,4.6,4.1,9.5,3.9,14.9c-0.1,3,0,6.1,0,9.1c0,6.6-2.1,12.4-6.4,17.4c-5.3,6-11.9,9.2-19.9,9.2c-2.2,0-4.4,0.3-6.6,0.5
		c-2.1,0.2-4.2,0.1-6.3-0.2c-2.7-0.4-5.5,0.6-8.2,0.2c-5.5-0.9-11.2,0.1-16.5-2c-9.7-3.8-15.5-10.7-17.4-20.9
		C110.2,218.3,110.8,215.2,110.6,213.2z"/>
	<path class="st8" d="M64,49.7c-0.3-20.1,16.7-38.3,38.8-37.8c20.3,0.5,37.1,16.6,37.1,38.3c0,20.3-16.8,38.9-40.5,37.7
		C81,86.9,63.6,71,64,49.7z"/>
	<path class="st9" d="M166.7,218.4c-0.4,0.7-0.9,1.4-1.3,2.1c-0.5,1.1-1.6,1.1-2.5,1.3c-2.9-0.1-4.7-1.2-5-4
		c-0.1-3.4-0.1-6.8,0-10.2c0.5-2.7,1.4-3.6,3.9-4c1.9-0.3,3.6,0.8,4.8,3.1c0.2,0.2,0.4,0.4,0.4,0.6c-0.2,3.6,0,7.2-0.1,10.8
		C166.8,218.2,166.7,218.3,166.7,218.4z"/>
	<path class="st9" d="M142.2,221.2c-3.6,1.4-6.2-0.3-6.3-4.2c0-2.9,0-5.9,0-8.8c0-1.7,0.4-3.3,2.2-4.1c2-0.9,3.8-0.6,5.4,0.9
		c0.9,0.8,1.2,2,1.2,3.2c0,3,0,6,0,9c0,1-0.4,1.8-0.7,2.7C143.7,220.7,143.1,221.2,142.2,221.2z"/>
	<path class="st5" d="M166.7,218.4c0-3.9,0.2-7.8-0.1-11.8c0.5,0.1,0.7,0.4,0.7,0.9c-0.5,3.4-0.3,6.9-0.1,10.3
		C167.1,218.1,166.9,218.3,166.7,218.4z"/>
	<path class="st5" d="M157.9,207.6c0,3.4,0,6.8,0,10.2c-0.5-1.4-0.2-2.8-0.2-4.3C157.7,211.5,157.4,209.5,157.9,207.6z"/>
	<path class="st5" d="M162.9,221.8c0.9-0.4,1.8-0.6,2.5-1.3C165.1,222.1,164,221.9,162.9,221.8z"/>
	<path class="st5" d="M142.2,221.2c0.7-0.4,1.3-0.9,1.8-1.4C144,221.1,143.5,221.7,142.2,221.2z"/>
	<path class="st10" d="M118,28.6c0,0.1,0,0.2,0,0.3c0.3,1.9-1.3,4-3.3,4.4c-1.4,0.2-2.8,0.2-4-0.6c-3.7-2.3-7.6-2.8-11.8-2
		c-2.3,0.5-4.4,1.4-5.6,3.5c-1.3,2.3-0.8,4.2,1.6,5.4c3.8,2,7.9,3.4,12,4.6c3.1,0.9,6.2,2,8.9,3.8c7.6,5.2,8.5,14.7,3.7,21.7
		c-2.7,3.9-6.4,6.4-10.9,7.8c-2.2,0.7-2.3,0.7-2.3,3c0,1.7-0.6,3-1.9,4c-1.6,1.2-3.2,1.3-5,0.5c-1.6-0.8-2.5-2.1-2.6-3.9
		c0-0.2,0-0.3,0-0.5c-0.1-2.1-0.1-2.1-2.3-2.4c-3.9-0.5-7.4-1.8-10.7-3.8c-1.3-0.8-2.5-1.9-2.1-3.8c0.2-3.9,3.4-5.9,6.8-4
		c3.8,2.1,8,2.6,12.2,2.8c0.7,0,1.4-0.1,2.1-0.3c0.5-0.5,1.1-0.4,1.7-0.6c2.8-0.8,5.5-1.9,7.2-4.5c1.9-2.9,1.4-6.1-1.4-8.2
		c-1.3-0.9-2.8-1.4-4.2-1.8c-5.4-1.6-10.7-3.4-15.8-6c-8.5-4.3-9.2-15-3.5-21.4c2.2-2.5,4.9-4.2,8.2-5.1c1.4-0.4,1.9-1,1.8-2.5
		c0-2.7,1.9-4.9,4.3-5c2.7-0.2,5.1,1.9,5.2,4.6c0.1,2.3,0.2,2.1,2.2,2.6c2.9,0.7,5.6,1.8,8,3.6C117.6,25.9,118.5,27,118,28.6z"/>
	<path class="st8" d="M81.7,70.8c0.4,2.3,2,3.4,3.9,4.4c3.3,1.6,6.8,2.6,10.5,3c1,0.1,1.1,0.6,1.1,1.4c0,1.2-0.1,2.5,0.6,3.6
		c1,1.6,2.9,2.4,4.8,1.9c2-0.5,3.2-2,3.3-4c0.1-3.1,0.1-3.1,3-4.1c6.4-2.1,11-6.2,12.7-12.8c1.6-6.1-0.4-11.8-6.1-15.8
		c-2.7-1.9-5.7-2.8-8.8-3.7c-3.9-1.2-7.8-2.4-11.4-4.3c-1.6-0.8-3.2-1.6-3.1-3.8c0.1-2.3,1.2-4.1,3.2-5.1c5.1-2.5,10.2-2.3,15.1,0.5
		c3.5,2,7,0.4,7.5-3.1c0.9,0.5,1.1,1.1,0.5,2c-2,3.3-4.8,4.4-8.3,2.3c-4.1-2.4-8.4-2.8-12.8-1.5c-1.8,0.5-3,1.8-3.7,3.5
		c-0.6,1.5,0.2,3.2,1.6,3.8c2.3,1,4.5,2,6.8,2.8c2.3,0.9,4.6,1.4,6.9,2.1c2.6,0.8,5,1.9,7.2,3.4c2.8,1.9,4.8,4.4,6,7.6
		c1.3,3.4,1.6,6.7,0.1,10.1c-0.6,1.5-0.8,3.1-1.9,4.5c-3.1,4.1-6.7,7.4-11.9,8.6c-0.9,0.2-1.1,0.7-1.2,1.6c-0.3,2.4-0.7,4.7-3.5,5.9
		c-2.4,1-6.2,0.6-7.2-2.1c-0.4-1-0.9-2-1-3.1c0-1.5-0.9-1.6-1.9-1.7c-3.9-0.4-7.4-2-10.9-3.7c-1.1-0.5-1.6-1.6-2.1-2.6
		C80.5,71.7,81,71.2,81.7,70.8z"/>
	<path class="st8" d="M118,28.6c-0.6-3.9-3.9-4.6-6.7-5.9c-1.3-0.6-2.7-1-4.1-1.2c-1.1-0.2-1.4-0.6-1.3-1.6c0.1-1.6-0.1-3.1-1.5-4.2
		c-1.3-1.1-2.8-1.6-4.3-0.9c-1.6,0.7-2.9,1.9-2.9,4c0,2.6-0.1,2.6-2.6,3.4c-5.2,1.7-9,5-10.6,10.4c-1.8,6.1,0.5,11.8,6,14.9
		c5.1,2.8,10.6,4.5,16.1,6.2c1.2,0.4,2.5,0.7,3.6,1.4c4.4,2.6,4.8,7.6,0.8,11.1c-2.2,1.9-4.8,3-7.8,3c0.1-1,0.8-1.2,1.6-1.3
		c2.9-0.6,5.4-1.9,6.9-4.5c1.3-2.3,0.9-5.6-1.9-7.1c-3.4-1.8-7.2-2.4-10.7-3.9c-1.8-0.8-3.7-1.4-5.5-2.2c-1.8-0.8-3.3-1.9-5.1-2.7
		c-2.5-1.2-3.8-3.5-4.8-5.9c-1.6-4.1-1.4-8.4,0.7-12.2c2.1-3.9,5.3-6.7,9.7-8c1.2-0.3,2-0.7,2.2-2.3c0.2-2.8,1.8-4.7,4.6-5.6
		c1.7-0.5,5.3,1,5.9,2.8c0.4,1.1,1.1,2.1,1.1,3.4c0,0.8,0.6,0.9,1.1,1c2.8,0.4,5.3,1.8,7.7,3.1c1.4,0.8,2,2.1,2.5,3.4
		C119.1,27.9,118.5,28.3,118,28.6z"/>
</g>
</svg>
