<?xml version="1.0" encoding="utf-8"?>
<!-- Generator: Adobe Illustrator 21.1.0, SVG Export Plug-In . SVG Version: 6.00 Build 0)  -->
<svg version="1.1" id="Layer_1" xmlns="http://www.w3.org/2000/svg" xmlns:xlink="http://www.w3.org/1999/xlink" x="0px" y="0px"
	 viewBox="0 0 300 300" style="enable-background:new 0 0 300 300;" xml:space="preserve">
<style type="text/css">
	.st0{fill:#F0E5E0;}
	.st1{fill:#F1E7E3;}
	.st2{fill:#25CAF8;}
	.st3{fill:#9C552D;}
	.st4{fill:#24CEF8;}
	.st5{fill:#F2E9E5;}
	.st6{fill:#F9F6F6;}
	.st7{fill:#DBD0CB;}
	.st8{fill:#FBE367;}
	.st9{fill:#EFE3DE;}
	.st10{fill:#25C8F9;}
	.st11{fill:#26C5F8;}
	.st12{fill:#30A9FA;}
	.st13{fill:#DACDC9;}
	.st14{fill:#F7BF71;}
	.st15{fill:#D7CBC6;}
	.st16{fill:#F9C374;}
	.st17{fill:#C87140;}
	.st18{fill:#CA7441;}
	.st19{fill:#D5C8C3;}
	.st20{fill:#F3EBE8;}
	.st21{fill:#1B8AF7;}
	.st22{fill:#F4EDEA;}
	.st23{fill:#DFD3CF;}
	.st24{fill:#998E8C;}
	.st25{fill:#DBCFCB;}
	.st26{fill:#E2D7D2;}
	.st27{fill:#DDD2CD;}
	.st28{fill:#EEE1DC;}
	.st29{fill:#9E9491;}
	.st30{fill:#A29794;}
	.st31{fill:#E4D9D4;}
	.st32{fill:#A39896;}
	.st33{fill:#E6DBD7;}
	.st34{fill:#E8DDD9;}
	.st35{fill:#EAE0DC;}
	.st36{fill:#9C918F;}
	.st37{fill:#A69B98;}
	.st38{fill:#A89C99;}
	.st39{fill:#A69A98;}
	.st40{fill:#AB9F9C;}
	.st41{fill:#EFE5E1;}
	.st42{fill:#EBE1DD;}
	.st43{fill:#E8DEDA;}
	.st44{fill:#ECE2DE;}
	.st45{fill:#A09593;}
	.st46{fill:#A19694;}
	.st47{fill:#A99E9B;}
	.st48{fill:#EEE4E0;}
	.st49{fill:#A39895;}
	.st50{fill:#A79C99;}
	.st51{fill:#F0E6E2;}
	.st52{fill:#ACA19D;}
	.st53{fill:#ADA19E;}
	.st54{fill:#ACA19E;}
	.st55{fill:#F9D36A;}
	.st56{fill:#2AB6F9;}
	.st57{fill:#DED2CE;}
	.st58{fill:#CC7844;}
	.st59{fill:#E19C5A;}
	.st60{fill:#CEC0BB;}
	.st61{fill:#CCBEB9;}
	.st62{fill:#F5BB70;}
	.st63{fill:#F3B86F;}
	.st64{fill:#F2B56E;}
	.st65{fill:#1D8EF8;}
	.st66{fill:#1E90F9;}
	.st67{fill:#A0572F;}
	.st68{fill:#F6BD71;}
	.st69{fill:#D1C4BF;}
	.st70{fill:#CFC2BD;}
	.st71{fill:#F8F4F3;}
	.st72{fill:#9E9391;}
	.st73{fill:#988E8C;}
	.st74{fill:#FBE068;}
	.st75{fill:#928886;}
	.st76{fill:#958B89;}
	.st77{fill:#25C6F8;}
	.st78{fill:#F0B16C;}
	.st79{fill:#27BDF8;}
	.st80{fill:#27BFF8;}
	.st81{fill:#26C2F8;}
	.st82{fill:#28BAF9;}
	.st83{fill:#29B8F9;}
	.st84{fill:#EDAC6B;}
	.st85{fill:#EFAF6C;}
	.st86{fill:#2DAEF9;}
	.st87{fill:#2FABFA;}
	.st88{fill:#2AB4F9;}
	.st89{fill:#2BB2F9;}
	.st90{fill:#2CB0F9;}
	.st91{fill:#2092F9;}
	.st92{fill:#2497F9;}
	.st93{fill:#2295F9;}
	.st94{fill:#9B918E;}
	.st95{fill:#D4C7C3;}
	.st96{fill:#BF7249;}
	.st97{fill:#A45B33;}
	.st98{fill:#D3C6C1;}
	.st99{fill:#E5DAD6;}
	.st100{fill:#F4ECE9;}
	.st101{fill:#F5EEEC;}
	.st102{fill:#F6F0EE;}
	.st103{fill:#F7F2F1;}
	.st104{fill:#E6DCD7;}
	.st105{fill:#FBDD69;}
	.st106{fill:#F7CA6B;}
	.st107{fill:#CD7B45;}
	.st108{fill:#DE9757;}
	.st109{fill:#E09958;}
	.st110{fill:#D78F56;}
	.st111{fill:#D5874D;}
	.st112{fill:#E4A15D;}
	.st113{fill:#DA8F52;}
	.st114{fill:#E6A45F;}
	.st115{fill:#BC6F46;}
	.st116{fill:#E9A862;}
	.st117{fill:#E2D7D3;}
	.st118{fill:#E4D9D5;}
	.st119{fill:#F9CA70;}
	.st120{fill:#FBDC69;}
	.st121{fill:#8D8482;}
	.st122{fill:#8A817F;}
	.st123{fill:#867D7C;}
	.st124{fill:#837A79;}
	.st125{fill:#E49C64;}
	.st126{fill:#E6A166;}
	.st127{fill:#E59E65;}
	.st128{fill:#E9A669;}
	.st129{fill:#E8A367;}
	.st130{fill:#EBA96A;}
	.st131{fill:#E29863;}
	.st132{fill:#E09561;}
	.st133{fill:#DF9261;}
	.st134{fill:#D08056;}
	.st135{fill:#CD7D53;}
	.st136{fill:#CB7B51;}
	.st137{fill:#279BF9;}
	.st138{fill:#DE9060;}
	.st139{fill:#DC8C5F;}
	.st140{fill:#DA895D;}
	.st141{fill:#D9875D;}
	.st142{fill:#D6845A;}
	.st143{fill:#D48258;}
	.st144{fill:#C2744B;}
	.st145{fill:#948A88;}
	.st146{fill:#908785;}
	.st147{fill:#968C8A;}
	.st148{fill:#E1D6D2;}
	.st149{fill:#F3BA6D;}
	.st150{fill:#F0B46A;}
	.st151{fill:#ECAC64;}
	.st152{fill:#EFB268;}
	.st153{fill:#EDAF66;}
	.st154{fill:#F6BE70;}
	.st155{fill:#F8C172;}
	.st156{fill:#D1C3BE;}
	.st157{fill:#CEC1BC;}
	.st158{fill:#F9C473;}
	.st159{fill:#CCBFBA;}
	.st160{fill:#D5C9C4;}
	.st161{fill:#D4C7C2;}
	.st162{fill:#D8CCC7;}
	.st163{fill:#DACECA;}
	.st164{fill:#DCD0CB;}
	.st165{fill:#D8CBC7;}
	.st166{fill:#8D8382;}
	.st167{fill:#D5C8C4;}
	.st168{fill:#D2C5C0;}
	.st169{fill:#D0C3BD;}
	.st170{fill:#FBDA6B;}
	.st171{fill:#FAD56C;}
	.st172{fill:#F3BF6C;}
	.st173{fill:#CF7D47;}
	.st174{fill:#D3844B;}
	.st175{fill:#E29C5A;}
	.st176{fill:#C8794F;}
	.st177{fill:#C5764D;}
	.st178{fill:#E39F5C;}
	.st179{fill:#DF985D;}
	.st180{fill:#D08048;}
	.st181{fill:#D5884D;}
	.st182{fill:#DF9757;}
	.st183{fill:#E0D5D0;}
	.st184{fill:#FAD66C;}
	.st185{fill:#FAD46D;}
	.st186{fill:#F9C572;}
	.st187{fill:#F7C072;}
	.st188{fill:#F5BC6F;}
	.st189{fill:#E6A164;}
	.st190{fill:#DCD1CC;}
	.st191{fill:#EAAA63;}
	.st192{fill:#F9C771;}
	.st193{fill:#D88E51;}
	.st194{fill:#F0B468;}
	.st195{fill:#DACEC9;}
	.st196{fill:#FAD06E;}
	.st197{fill:#FACD70;}
	.st198{fill:#FACA70;}
	.st199{fill:#DF9858;}
	.st200{fill:#E6A35F;}
	.st201{fill:#EDAE66;}
	.st202{fill:#E8A761;}
	.st203{fill:#D68A4E;}
	.st204{fill:#DB9253;}
	.st205{fill:#DD9556;}
	.st206{fill:#F2B76C;}
	.st207{fill:#F0B369;}
	.st208{fill:#E29E5B;}
	.st209{fill:#DC9455;}
	.st210{fill:#E8A862;}
	.st211{fill:#E6A560;}
	.st212{fill:#E5A35F;}
	.st213{fill:#E29D5B;}
	.st214{fill:#EEAF67;}
</style>
<path class="st0" d="M248.5,78c4.8-1.5,9.6-2.7,14.6-3.5c0.5,0.5,0.5,1.1,0.6,1.8c0.1,2.8-0.3,5.6-0.9,8.3c-0.1,0.2-0.3,0.5-0.2,0.7
	c1.4,2.8-0.2,5.5-0.2,8.2c0,2,0.1,4.2,0.5,6c0.9,3.3,0.2,6.5,0.2,9.7c0,3.1,0.2,6.1,0.4,9.2c0,0.8-0.2,1.5-0.4,2.2
	c-3.5,11.6-5.3,23.4-6.3,35.4c-0.6,7.3-0.9,14.7-1.1,22c0,0.8,0,1.7-0.5,2.4c-1.2,0.8-2.6,0.3-3.8,0.5c-0.8,0.1-1.6,0-2.4-0.4
	c-0.7-0.6-0.9-1.5-0.9-2.3c0.1-5.6-0.8-11.2,0.3-16.8c0.4-1.7,0-3.5-0.3-5.1c-0.6-4.2-0.3-8.4-0.3-12.6c0-4.7-0.2-9.4-0.2-14.2
	c0-4.9,0-9.8,0.1-14.8c0-5.4-0.3-10.7,0.1-16.1c0.1-1.4-0.2-2.7-0.2-4c-0.2-4.1,0.4-8.2,0.7-12.2C248.3,81,247.4,79.4,248.5,78z"/>
<path class="st1" d="M248.5,78c0.9,5.5-0.9,11-0.4,16.4c0.4,3.7,0.1,7.4,0.2,11.1c0.1,3,0,6,0,9c0,4.9,0,9.8-0.1,14.7
	c-0.1,4.3,0.3,8.7,0.1,13c-0.2,3.1,0,6.4,0.2,9.5c0.2,3,1,6.2,0.6,9.1c-0.5,3.3-0.3,6.5-0.7,9.8c0,0.3-0.3,0.7-0.1,0.9
	c1.3,2.8-0.2,5.8,0.7,8.6c-1.7,1.1-3.4,0.8-5.2,0.4c-0.7-0.4-1-1.2-1-1.9c-0.4-8-2.1-15.7-4.2-23.4c0-0.1,0-0.3-0.1-0.4
	c-0.7-3.5-2-6.7-3.3-10c-0.3-0.7-0.7-1.4-0.5-2.2c0.3-2,0.7-3.9,0.2-5.9c-0.1-0.4-0.2-0.9-0.2-1.3c0.4-4.3,0.1-8.7-0.2-13
	c-0.2-3.8,0.4-7.6,0.5-11.5c0-6.8-0.4-13.5-0.5-20.3c0-2.1,0.3-4.2,0.4-6.3c0.1-0.9,0.3-1.6,1-2.2C240,80.7,244.1,78.9,248.5,78z"/>
<path class="st2" d="M52.2,261.7c-7.4,0.2-14.9,0.2-22.3,0c-1.7-0.3-1.9-1.6-1.8-2.9c0.4-3.9,0.1-7.8,0.2-11.7
	c0.1-3.6,0.1-7.3-0.5-10.9c0-0.7,0.5-1,1-1.4c2.4-1.6,4.5-3.6,7-5c3.2-1.7,6.7-2.7,10.3-3.2c1.7,0,3.4-0.3,5,0.3
	c0.6,0.6,0.4,1.3,0.3,2c-0.5,5.5-0.4,10.9-0.2,16.4c0.1,4.6,0.4,9.3-0.6,13.9c-0.2,0.7,0,1.2,0.7,1.6
	C51.6,261.1,52.1,261.2,52.2,261.7z"/>
<path class="st3" d="M285.2,207.9c7.1,0.5,10.8,4.4,10.8,11.6c0,8.3,0,16.6,0,24.9c0,0.7-0.1,1.4-0.1,2.1c-0.7-0.2-0.9-0.9-1.2-1.4
	c-1.8-3.3-4.6-5-8.2-5.4c-2.1-0.1-4.2-0.5-6.4-0.4c-1.7-0.2-3.4-0.4-4.6-1.8c-0.5-1-0.3-2.1-0.3-3.2c-0.1-4.9-0.1-9.7,0.1-14.6
	c0.2-3.4-0.4-6.8,0-10.2c0.1-0.6,0-1.3,0.6-1.8C279,207.1,282.1,207,285.2,207.9z"/>
<path class="st4" d="M28,236.1c0.5,2.2,1.3,4.3,0.7,6.6c-0.4,1.6,0.5,3.2,0.3,4.8c-0.1,0.7-0.1,1.6-0.1,2.4c0,2.8,0.2,5.6-0.1,8.4
	c-0.2,1.5,0.1,2.6,1.2,3.5c-6.4,0-12.8,0.2-19.2,0c-4.3-0.1-7.3-3-6.9-7.4c0.2-2.5,0.1-5,0.1-7.5c0.5-4.4,3.6-6.5,7.4-7.9
	c2.9-0.7,5.8-0.6,8.7-1c2.6-0.2,4.9-1.5,7.4-2.1C27.6,235.9,27.8,235.9,28,236.1z"/>
<path class="st5" d="M235.8,82.2c-0.8,4.7-0.9,9.4-0.5,14.2c0.2,2.4,0.5,4.8,0.3,7.1c-0.1,1.8-0.1,3.7,0,5.5c0.1,4.3-0.6,8.6-0.5,13
	c0.1,3.4,0.5,6.8,0.3,10.2c-0.2,3,0.6,6,0.1,9c-0.1,0.6,0.3,1.5-0.7,1.7c-1.2-0.9-1.3-2.5-2-3.7c-1.5-4.6-4.4-8.5-6.5-12.7
	c-0.5-1.2-1.2-2.3-1.9-3.4c-0.5-0.8-0.9-1.6-0.6-2.5c0.4-1.4,0.5-2.7,0.4-4.2c-0.3-4.6-0.4-9.2-0.1-13.8c0.3-4.4-0.9-8.8,0-13.2
	c0.2-0.8,0-1.7,0.6-2.3C228.3,85.3,232,83.6,235.8,82.2z"/>
<path class="st6" d="M69.2,47.2c0.8-2.1,2.6-2.7,4.6-3.1c2.5-0.8,4.9,0,7.4,0.4c6.1,0.9,12.1,2.3,18,3.9c1.1,0.3,2.2,0.6,3.1,1.4
	c0.5,0.6,0.6,1.4,0.6,2.2c0,4.8-0.5,9.6-0.2,14.4c0.2,3.3-0.1,6.5,0.2,9.8c0.1,0.8,0,1.7-0.7,2.3c-0.7,0.4-1.2,0-1.6-0.4
	c-0.8-0.9-1.7-1.7-2.4-2.6c-1.2-2-3.1-3.4-4.6-5.1c-1-1.9-2.7-3.1-4.1-4.6c-1.1-1.1-2.1-2.3-3.4-3.1c-0.6-0.4-1-0.9-1.4-1.5
	c-1.1-1.1-2.3-2-3.3-3.1c-1-1.2-2.4-1.9-3.5-3c-1.3-1.3-2.9-2.2-4.2-3.4c-1.2-1.5-3.2-2.1-4.4-3.7C69,47.5,69.1,47.4,69.2,47.2z"/>
<path class="st7" d="M262.7,120.3c0.1-0.6,0.3-1.3,0.4-1.9c-0.2-1.5,0.5-2.9,1-4.2c1.1-3,2.2-6,3.7-8.8c0.3-0.7,0.5-1.9,1.8-1.5
	c0.8,0.8,0.7,1.8,0.7,2.7c-0.2,6.8,0.1,13.5,0.2,20.3c0.1,6.6-0.2,13.2,0.3,19.7c0.1,1.9-0.5,3.8,0,5.7c-0.9,7.8-0.9,15.6-1.5,23.4
	c-0.1,1.5,0,3.1,0,4.6c-0.5,0.7-1.3,0.6-2,0.6c-1.4,0-2.9,0.3-4.2-0.4c-0.6-0.6-0.7-1.4-0.6-2.1c0.2-6.6-0.1-13.3,0-19.9
	c0.1-9.6-0.6-19.2-0.2-28.8C262.3,126.5,261.9,123.4,262.7,120.3z"/>
<path class="st8" d="M14.7,207.6c0-4.2-0.2-8.3,0-12.5c0.2-5.7,3.2-9.7,8-12.5c0.5-0.9,1.5-1,2.3-1.5c0.9-0.3,1.9-0.7,2.9-0.9
	c0.6-0.1,1.1-0.1,1.7,0c0.9,0.2,1.3,0.8,1.5,1.6c0.3,0.9,0.4,1.7,0.4,2.6c-0.2,6.8,0.2,13.6-0.1,20.5c0,1,0.1,2.1-0.6,2.9
	c-0.5,0.4-1.1,0.4-1.6,0.4c-4.2,0-8.4,0-12.6,0C15.9,208.2,15.2,208.2,14.7,207.6z"/>
<path class="st9" d="M269.3,103.7c-2.4,3.8-3.7,8.1-5.3,12.3c-0.3,0.8-0.6,1.6-0.8,2.3c-0.4-0.3-0.4-0.6-0.4-1
	c0-3.6-0.3-7.3-0.1-10.9c0.1-2.2,0.6-4.4-0.3-6.8c-0.7-1.7-0.7-4.2-0.6-6.2c0.1-1.9,0.4-4,0.9-5.9c0.1-0.4,0.3-1,0-1.1
	c-2.3-0.7-0.5-1.5-0.1-2.3c0.1-0.3,0.2-0.6,0.2-0.9c-0.1-2.9,0.8-5.8,0.4-8.7c3.6-0.7,7.2-1.2,10.8-1.5c1.4,2.4,1,5.1,1,7.7
	c0,1.6-0.2,3.2,0.2,4.8c0.2,0.9,0.1,1.8-0.2,2.6c-0.7,2-0.6,4.1-0.6,6.2c0,0.5,0,1-0.3,1.5C272.3,98.4,271.2,101.3,269.3,103.7z"/>
<path class="st10" d="M52.2,261.7c-2.9-0.5-2.8-0.5-1.9-3.3c0.5-1.7,0-3.5,0.2-5.3c0.3-2.4,0.2-4.9,0-7.3c-0.2-2.9-0.2-5.7-0.2-8.6
	c0-3.3-0.2-6.7,0.7-9.9c1.8-0.7,3.4,0.1,5.1,0.5c1.9,0.6,3.9,1,5.4,2.5c0.1,0.3,0.1,0.7-0.3,0.8c-1,0.4-1,1.1-0.5,1.8
	c0.8,1.3,0.8,2.6,0.2,4c-0.8,2-0.3,4-0.1,6.1c0,0.5,0.3,1,0.2,1.5c-0.4,3,0.5,5.9,0.6,8.9c0,0.6,0.1,1.3-0.3,1.6
	c-1.6,1.4-1.5,3.3-1.6,5.1c0,0.4,0,0.8-0.2,1.1c-0.6,0.5-1.4,0.1-2,0.3C55.9,261.9,54.1,261.9,52.2,261.7z"/>
<path class="st11" d="M57.7,261.7c0.6-0.4,1.2-0.1,1.9-0.2c0.7-0.6,1.7-0.6,2.6-0.6c2.7,0,5.5,0,8.2,0c1.4,0,2-0.4,1.9-2
	c-0.2-3.6,0-7.1,0.2-10.7c0.2-2.9-0.5-5.7,0-8.6c0.1-0.7,0-1.4,0.3-2.1c0.4-0.6,0.9-0.4,1.5-0.4c1.7,0.5,3.4,0.7,5.1,1.2
	c1,0.4,2,0.2,3,0.2c0.3,0,0.6,0,1,0c2.8,0.1,2.7,0.1,2.8,2.8c0,1.3,0,2.6-0.3,4c-0.3,1.4-0.4,2.8,0.6,4c0.3,0.4,0.5,0.8,0.3,1.3
	c-1,2.7,0,5.4-0.4,8.2c-0.3,1.9,0,2.1,1.9,2.1c5.6,0,11.1,0,16.7,0c4.7-0.1,9.3-0.1,14,0c6.4-0.1,12.8-0.1,19.2,0
	c5.6-0.1,11.3-0.1,16.9,0c0.7,0.1,1.4,0,2,0.3c0.2,0.1,0.3,0.3,0.4,0.5c-0.7,0-1.4,0.1-2.1,0.1c-31.9,0-63.7,0-95.6,0
	C59,261.8,58.4,261.7,57.7,261.7z"/>
<path class="st12" d="M290.1,261.5c-0.6,0.3-1.2,0.3-1.9,0.3c-38.8,0-77.7,0-116.5,0c-0.4,0-0.9-0.1-1.3-0.1
	c0.1-0.1,0.1-0.2,0.2-0.3c0.1-0.1,0.2-0.1,0.3-0.2c4.3-0.6,8.7-0.2,13.1-0.2c4.3-0.1,8.7-0.1,13,0c4.2-0.1,8.5-0.1,12.7,0
	c4.4-0.1,8.7-0.1,13.1,0c6.7-0.1,13.4-0.1,20.1,0c4.8,0,9.6,0,14.4,0c1.4,0,2-0.1,2.2-1.9c0.3-3.5-0.2-6.9,0.1-10.3
	c0.1-1,0.1-2,0.4-3c0.4-1.1,0.2-2.1-0.1-3.2c-0.3-1.2-0.3-2.3,0.4-3.3c0.9-0.7,1.9-0.4,2.9-0.5c2.6,0,4.7,1.3,6.8,2.6
	c2.7,2.3,3.8,5.2,3.7,8.7c-0.1,1.8,0,3.7,0,5.6c-0.1,2.5-1.2,4.3-3.3,5.6c1.7-0.2,3.7-0.1,5.6-0.1c1.5-0.1,3-0.1,4.5,0
	c2.4-0.1,4.8-0.1,7.2,0C288.5,260.9,289.5,260.7,290.1,261.5z"/>
<path class="st6" d="M31.1,85c0.6-1.1,1.7-1.3,2.7-1.6c1-0.5,2.1-0.4,3.2-0.2c6.4,0.9,12.7,2.4,18.9,4.1c0.9,0.3,1.9,0.4,2.4,1.4
	c0.1,2.1,0.6,4.3,0.2,6.4c-0.6,3.4,0.1,6.9-0.3,10.3c-0.1,0.9,0.2,2-0.9,2.5c-1.4,0.1-2-1.1-2.9-1.9c-1-1.5-2.4-2.6-3.6-3.9
	c-1.4-1.6-3-2.9-4.6-4.2c-1.3-1.7-3.4-2.5-4.7-4.1c-1.5-1.5-3.2-2.6-4.8-3.9c-1.2-1.3-2.9-1.9-4.2-3C32,86.2,31.1,86,31.1,85z"/>
<path class="st13" d="M269.3,103.7c0.9-2.7,2.5-5,3.9-7.5c0.3-0.6,0.7-1.1,0.8-1.7c0.3-1.3,1.1-2.3,1.9-3.3c0.4-0.5,0.8-1.1,1.5-0.4
	c0.9,1.5,0.2,3.1,0.3,4.7c0.4,4.8-0.1,9.7,0.2,14.5c0.1,2.3-0.3,4.7,0,7.1c-1.1,3.9-2.3,7.8-3.2,11.8c-1.8,7.6-3.4,15.3-3.8,23.2
	c-0.6-1.6-0.8-3.1-0.5-4.8c0.3-2.1-0.4-4.2-0.3-6.4c0.2-3.9,0.2-7.8,0.1-11.7c-0.3-8-0.3-16.1-0.4-24.1
	C269.6,104.7,269.4,104.2,269.3,103.7z"/>
<path class="st14" d="M20.4,238.4c-1.8,0.7-3.6,0.4-5.5,0.6c-1.3,0.2-2.5,0.3-3.8,0.5c-0.4-2.6-0.1-5.3-0.2-8c-0.3-7-0.1-14-0.1-21
	c0-0.7-0.3-1.6,0.6-2.1c1-0.4,2-0.6,3-0.5c1.9-0.3,3.9-0.2,5.8-0.1c0.5,0.5,0.6,1.1,0.6,1.8c0.1,6,0.4,12-0.2,18
	c-0.2,2.7,0.4,5.3,0.2,8C20.9,236.6,21.1,237.6,20.4,238.4z"/>
<path class="st15" d="M196.9,89.9c2.8,2.7,5.6,5.4,8.5,8.1c0.7,0.5,1.5,0.9,1.3,1.9c-0.5,5.4-0.5,10.7-0.1,16.1
	c0.3,4-0.1,8-0.1,12.1c0,0.5-0.1,0.9-0.4,1.2c-1.3,0.7-1.5-0.5-1.9-1.2c-2.1-3.6-4.2-7.2-6.6-10.6c-0.4-0.6-0.9-1.3-1.3-1.9
	c-0.4-0.6-0.7-1.2-0.6-2c0.3-3.9-0.3-7.7-0.2-11.6c0-3.6,0.3-7.2,0.3-10.8C195.9,90.6,195.9,89.8,196.9,89.9z"/>
<path class="st15" d="M277.7,117.2c-1-0.8-0.8-2-0.8-3c0.1-2.6,0.6-5.2,0.2-7.7c-0.4-2.6,0.6-5.1-0.1-7.8c-0.4-1.8-0.2-3.8,0-5.7
	c0.1-0.9,0.1-1.6-0.1-2.4c-0.3-1.6,1-2.4,1.7-3.4c1-1.5,2.1-2.9,2.3-4.7c0.4-3.6-1.2-6.1-4.1-8c-0.6-0.4-1.7-0.5-1.5-1.6
	c0.7-0.3,1.6,0.1,2.3-0.3c2.4,0,4.9,0,7.3,0c1,1.3,0.6,2.8,0.6,4.3c0.1,7.3-0.1,14.6,0.2,21.9c-1.6,3.7-3.7,7.2-5.1,11
	C279.7,112.3,278.7,114.8,277.7,117.2z"/>
<path class="st16" d="M11.5,208.5c0,2.8,0,5.5,0,8.3c0,5.3-0.1,10.7,0,16c0.1,2.3,0.3,4.5-0.4,6.7c-3.6,1.3-6.1,3.6-7.3,7.4
	c0-9.8-0.1-19.6,0-29.4C3.9,213.3,6.9,209.8,11.5,208.5z"/>
<path class="st17" d="M285.2,207.9c-3.1,0-6.3,0.1-9.4,0.1c-1.2,0.9-2.5,0.6-3.9,0.6c-2.4,0.2-4.8-0.1-7.2,0c-1,0-2,0.2-2.8-0.6
	c0.2-1.1,1.1-0.9,1.8-1c1.2-0.1,2.4-0.1,3.6,0c1.8-0.1,3.6,0,5.4-0.1c2-0.1,2.3-0.3,2.4-2.4c0.3-6.9,0.2-13.8,0.2-20.7
	c0-1-0.2-2.1,0.6-2.9c5.6,1.2,9.3,5.7,9.3,11.3C285.1,197.5,285.1,202.7,285.2,207.9z"/>
<path class="st18" d="M275.8,181c0,6,0,12,0,18c0,2.2-0.2,4.4-0.1,6.6c0.1,1.3-0.5,2.2-2.2,2.1c-2-0.2-4.1,0-6.1,0
	c-0.5-0.5-0.6-1.1-0.6-1.8c0-6.1-0.2-12.1,0.2-18.2c0.1-1.4-0.2-2.8-0.2-4.2c0-1.1-0.2-2.2,0.6-3.1c0.6,0,1.3-0.1,1.9-0.1
	C271.5,180.5,273.7,180,275.8,181z"/>
<path class="st19" d="M285.8,98.8c-1-0.5-0.8-1.4-0.8-2.2c0-4.4,0-8.7,0-13.1c0-3.6,0-7.3,0-10.9c5-0.6,10.4,3,10.9,8
	c0.2,2-0.2,3.8-1.4,5.4C291.4,90.1,288.5,94.4,285.8,98.8z"/>
<path class="st13" d="M196.9,89.9c-0.2,0.2-0.6,0.5-0.6,0.7c0.5,5.7-0.7,11.3,0.1,17c0.3,2.1,0.2,4.4-0.3,6.6
	c-1.1,0.1-1.4-0.9-1.9-1.5c-0.7-0.8-1.3-1.7-1.9-2.5c-1.4-2-3.5-3.6-4.3-6.1c0.1-6.4-0.8-12.8-0.3-19.2c0.1-0.8,0-1.7,1.1-1.9
	C191.6,85.2,194.5,87.3,196.9,89.9z"/>
<path class="st20" d="M224.6,87.2c-0.1,4.2,0.2,8.5,0.1,12.7c0,5.2,0.1,10.5-0.1,15.7c-0.1,1.3,0.4,2.5,0,3.8
	c-0.2,0.6-0.3,1.2-0.8,1.7c-1,0.1-1.2-0.7-1.6-1.3c-1.1-1.6-2.2-3.2-3.4-4.8c-0.5-0.9-1.8-1.6-1.2-3c0.5-5.9,0.1-11.8,0.2-17.7
	c0-1.4-0.2-2.8,0.6-4.1C220.6,89.4,222.4,87.8,224.6,87.2z"/>
<path class="st21" d="M290.1,261.5c-0.8,0-1.6-0.1-2.4-0.1c-0.4-4.6-1.4-9.2-0.9-13.8c0.3-2.2-0.2-4.3-0.1-6.5
	c0-0.6-0.1-1.3,0.2-1.9c4.4,0.7,7.4,3,8.9,7.3c0.3,3.1,0.2,6.2,0.1,9.3C295.9,259,293.6,261.1,290.1,261.5z"/>
<path class="st22" d="M218.5,90.3c0,6.7,0,13.4,0,20.1c0,0.8,0.2,1.7-0.8,2.2c-0.6,0.3-1-0.2-1.3-0.6c-1-1.4-2.2-2.6-3.1-4.1
	c-1.8-2.4-3.7-4.6-5.9-6.7c-0.5-0.5-1.1-0.8-1-1.7c-0.4-0.5-0.8-1-1.1-1.5c1,0.1,1.7-0.6,2.4-1.1C211.2,94.5,214.8,92.3,218.5,90.3z
	"/>
<path class="st23" d="M166.9,68c3.2,1.7,6.4,3.5,9.2,5.8c0.5,2.2,0,4.3-0.1,6.5c-0.1,2.7,0.6,5.4,0,8c-0.2,0.7-0.2,1.4-0.7,2
	c-1.6,0.7-2.3-0.8-3.3-1.5c-1.1-1.2-2.5-2.1-3.7-3.2c-0.9-0.7-1.8-1.4-2.1-2.6c0.6-4.4,0.1-8.8,0.2-13.2
	C166.4,69.1,166.4,68.4,166.9,68z"/>
<path class="st24" d="M25,181.5c-0.7,0.6-1.5,0.8-2.3,1.1c-0.1-7.3-0.8-14.6-1.6-21.8c-0.3-8.7-0.2-17.4-0.1-26c0-0.9,0-1.8,0.8-2.5
	c0.9-0.4,1.4,0.3,1.9,0.8c0.6,1,2.1,1.6,1.6,3.1c-0.3,5.4-0.1,10.9-0.1,16.3c0,9.3-0.1,18.6-0.1,27.9
	C25.2,180.7,25.1,181.1,25,181.5z"/>
<path class="st25" d="M188.8,83c-1.1,1.5-0.7,3.3-0.7,4.9c-0.1,5.5,0.5,11.1,0.3,16.6c-0.4,0.2-0.8,0-1-0.3
	c-1.9-2.1-3.9-4.2-5.7-6.4c-0.3-0.4-0.5-0.9-0.5-1.4c-0.7-5,0.5-10.1-0.1-15.1c-0.1-1.1-0.3-2.6,1.2-3.3
	C184.4,79.8,187,80.8,188.8,83z"/>
<path class="st6" d="M23.5,133.3c-0.5-0.4-0.9-0.7-1.4-1.1c-1.2-0.8-2.4-1.7-3.4-2.8c-1.2-1.1-2.3-2.3-3.7-3.2
	c-0.8-0.9-1.9-1.5-2.8-2.3c-1.3-1.2-2.8-2-4.1-3.1c-0.8-0.8-2.1-1.1-2.5-2.2c0.7-0.8,1.5-1.5,2.7-1.1c1.6-0.8,3.3-0.3,4.9-0.1
	c3.2,0.4,6.3,1,9.4,1.9c0.8,0.2,1.8,0.4,2.2,1.4c-0.1,3.7-0.1,7.3-0.2,11C24.7,132.5,24.6,133.3,23.5,133.3z"/>
<path class="st26" d="M166.9,68c0.1,3.8,0.3,7.5,0.3,11.3c0,1.4-0.4,2.7-0.7,4.1c-1.2,0.2-1.7-0.9-2.5-1.5c-1.8-1.1-3.4-2.6-5.1-3.8
	c-0.6-0.5-1.2-1-1.2-1.9c0.2-3.4,0-6.8,0.1-10.2c0-1-0.1-2.2,1.4-2.3C162,64.8,164.5,66.3,166.9,68z"/>
<path class="st5" d="M101.9,49.9c-5.6-2-11.4-3.1-17.2-4.2c-3.6-0.7-7.3-1.1-10.9-1.6c1.4-1.2,3.2-1.1,4.9-1.1
	c6.8,0.2,13.6,0.4,20.3,1.4c3.6,0.5,7.3,1.1,10.9,1.6c0.3,0,0.6,0.2,0.8,0.4c-0.5,1.4-0.8,2.9-0.4,4.4c0.1,0.5,0.1,1-0.3,1.4
	c-0.4,0.3-0.9,0.3-1.3,0.1C106.5,51.6,104,51.2,101.9,49.9z"/>
<path class="st27" d="M182.3,78c-0.4,1.5-0.8,2.9-0.5,4.6c0.3,2,0.4,4.2,0,6.2c-0.5,2.7,0.3,5.4-0.3,8.1c-0.3,0.2-0.6,0.1-0.9-0.1
	c-2-1.7-3.8-3.6-5.5-5.5c-0.2-0.2-0.3-0.6-0.2-0.9c0.5-2.1,0.8-4.1,0.6-6.4c-0.3-3.4-0.3-6.8,0.6-10.2
	C178.2,75.2,180.5,76.2,182.3,78z"/>
<path class="st28" d="M275.4,73c2.2,1.4,4.4,2.7,5.5,5.3c1.1,2.7,0.9,5.3-0.7,7.8c-1,1.6-2.4,2.9-3.3,4.6c-1.4,1-1.7,2.8-3.1,3.9
	c-0.5-2.2-0.4-4.3,0.3-6.4c0.4-1,0.4-1.9,0.2-3c-0.6-2.4-0.1-4.8-0.1-7.2c0-1.7-0.8-3.3-0.5-5c0.4,0,0.8,0,1.1,0
	C275.2,72.8,275.3,72.8,275.4,73z"/>
<path class="st29" d="M46.6,97.5c1.6,1.4,3.3,2.7,4.6,4.3c-0.3,6.3-0.1,12.6-0.2,19c0,1,0.1,2-0.3,3c-0.8,1.2-1.7,0.3-2.6,0.1
	c-0.7-0.3-1.6-0.4-1.9-1.3c-0.5-0.6-0.4-1.2-0.5-1.9c-0.4-7.1-0.1-14.1,0-21.2C45.7,98.7,45.8,97.9,46.6,97.5z"/>
<path class="st30" d="M46.6,97.5c-0.4,3.1-0.4,6.3-0.4,9.4c0.1,4.4-0.1,8.9-0.2,13.3c0,0.2-0.2,0.3-0.3,0.4c-1.5-3.3-3.1-6.7-4.6-10
	c-0.4-3.1-0.3-6.2-0.2-9.3c0-2.2-0.6-4.3,0-6.5c0.2-0.6,0-1.3,0.9-1.5C43.3,94.9,45.3,95.8,46.6,97.5z"/>
<path class="st31" d="M159.2,63.7c-0.9,0.4-0.8,1.2-0.8,2c0,2.8,0,5.5,0,8.3c0,1-0.1,1.9-0.4,2.8c-1.6,0.1-2.5-1.4-3.8-1.9
	c-1.2-1-2.9-1.3-3.4-3.1c0-3.4,0.1-6.7,0.1-10.1c0-0.6,0-1.3,0.5-1.8C154.2,60.9,156.8,62.1,159.2,63.7z"/>
<path class="st32" d="M81.5,57.6c1.2,1,2.4,1.9,3.3,3.1c0,8.4,0,16.7,0,25.1c0,0.9,0.1,1.8-0.6,2.5c-1.3-2.7-2.6-5.4-3.8-8.1
	c-0.3-0.9-0.3-1.9-0.3-2.8c0-5.9-0.1-11.7,0-17.6C80.2,59,79.7,57.5,81.5,57.6z"/>
<path class="st33" d="M151.5,59.9c0,3.4,0,6.7,0,10.1c0,0.8,0,1.5-0.4,2.2c-2.2-0.1-3.5-1.9-5.2-2.8c-1-0.4-1.9-1-2.2-2.2
	c0-2.7-0.2-5.4-0.1-8.1c0-0.9,0-1.8,1-2.3C147,57.7,149.4,58.5,151.5,59.9z"/>
<path class="st5" d="M58.1,88.7c-3.7-1.6-7.6-2.3-11.5-3.2c-4.2-1-8.4-1.9-12.7-2.2c1-0.9,2.3-1.1,3.5-1.1
	c7.8-0.3,15.6,0.5,23.3,1.6c0.2,0,0.3,0.2,0.5,0.3c0.4,1.7,0.4,3.4-0.2,5C59.8,89.8,58.9,89.4,58.1,88.7z"/>
<path class="st34" d="M144.6,56.8c-0.5,0.8-0.4,1.7-0.4,2.6c0,2.7,0.3,5.4,0,8.2c-1.5,0.6-2.4-0.8-3.7-1.2c-1.6-1.1-3.7-1.5-4.8-3.4
	c-0.4-2.4-0.3-4.7-0.2-7.1c0-0.8,0.2-1.7,0.9-2.2C139.4,54.4,142,55.5,144.6,56.8z"/>
<path class="st35" d="M136.5,53.7c-0.8,3.2-0.2,6.4-0.4,9.6c-1.7,0.2-2.9-1.2-4.4-1.6c-1.1-0.6-2.3-1-3.4-1.5
	c-0.7-0.4-1.5-0.6-1.7-1.6c0.1-1.9-0.4-3.9-0.2-5.8c0.1-0.8,0-1.7,0.8-2.2C130.5,51.2,133.6,52.3,136.5,53.7z"/>
<path class="st36" d="M19.1,129.2c1,1,2.3,1.7,3.1,3.1c-1.1,1.2-0.6,2.7-0.6,4c-0.1,7.1-0.1,14.2-0.1,21.3c0,1.1-0.1,2.2-0.4,3.2
	c-1-4.4-2.1-8.7-3.1-13.1c-0.4-5.5-0.3-10.9,0-16.4C18,130.5,18,129.5,19.1,129.2z"/>
<path class="st37" d="M41.8,93.4c-1.1,2.6-0.3,5.4-0.4,8.1c-0.1,2.5,0,4.9,0.1,7.4c0,0.7-0.1,1.3-0.4,1.8c-1.7-2.7-3.3-5.4-5-8.1
	c-0.5-3.7-0.2-7.5-0.2-11.2c0-0.8,0.1-1.5,1-1.9C38.6,90.7,40.4,91.8,41.8,93.4z"/>
<path class="st38" d="M73.7,51.1c1.4,1.1,3.1,1.9,4.2,3.5c0.4,5.8-0.3,11.6-0.1,17.4c0,0.8-0.1,1.6-1,1.9c-1.3-2-2.6-4.1-3.8-6.1
	c-1.1-2.3-0.4-4.6-0.4-7c0-2.5,0.2-5.1,0.2-7.6C72.9,52.4,72.7,51.4,73.7,51.1z"/>
<path class="st39" d="M76.9,73.8c0.3-0.5,0.4-1,0.4-1.6c0-4.9-0.1-9.7,0.3-14.6c0.1-1-0.6-2.1,0.3-3c1.3,0.9,2.6,1.8,3.6,3
	c-1.2,0.2-0.8,1.2-0.8,1.9c0,5.9,0,11.9,0,17.8c0,1-0.1,2-0.4,3C79.2,78.1,78,76,76.9,73.8z"/>
<path class="st40" d="M73.7,51.1c-0.8,2.3-0.2,4.7-0.4,7c-0.3,3.2-0.2,6.4-0.3,9.6c-1.5-2.1-3.1-4.2-4.6-6.2
	c-0.5-4.3-0.2-8.5-0.1-12.8c0-0.5,0.1-1.2,1-1.2C70.7,48.8,72.6,49.5,73.7,51.1z"/>
<path class="st41" d="M110,52.2c-0.1-1.1-0.3-2.3-0.4-3.4c0-0.9-0.1-2,1.1-2.4c3.4,0.6,6.8,1,10,2.3c-0.2,2.4,0,4.7-0.5,7.1
	c-0.7,0.8-1.4,0.3-2.1,0c-1.8-0.7-3.7-1.4-5.5-2.1C111.8,53.3,110.5,53.4,110,52.2z"/>
<path class="st42" d="M74.2,86.8c2.8,0.4,5.5,1.1,8.1,2.3c0.3,1.9,0.2,3.9,0.5,5.9c0.1,1-0.2,1.9-0.9,2.6c-0.2,0.1-0.4,0.2-0.6,0.3
	c-2.9-0.9-5.7-2-8.1-4c-0.1-1.9-0.1-3.7,0.1-5.5C73.3,87.8,73.2,86.9,74.2,86.8z"/>
<path class="st43" d="M81.5,97.6c0.8-1.3,0.9-2.5,0.6-4c-0.3-1.4-0.6-3,0.2-4.4c0.7-0.1,1.3,0.8,2-0.1c0.7-0.1,1.1,0.4,1.7,0.6
	c1,0.5,2.2,0.5,3.1,1.5c0.1,0.2,0.2,0.4,0.2,0.6c0.2,3.2,0.4,6.3-0.1,9.5c-0.8,1.1-1.5,0.2-2.3,0c-1.3-0.8-2.7-1.4-4.1-2.1
	C82.3,98.7,81.4,98.6,81.5,97.6z"/>
<path class="st44" d="M120,56c0.3-2.4-0.7-5,0.8-7.3c2.2,0.5,4.5,0.8,6.5,1.9c-0.4,1.8-0.5,3.7-0.1,5.5c0.2,0.9,0.2,1.7-0.3,2.6
	c-0.9,0.6-1.7-0.1-2.5-0.4c-1.1-0.4-2.2-0.9-3.3-1.4C120.6,56.7,120.2,56.5,120,56z"/>
<path class="st45" d="M19.1,129.2c-0.7,1.1-0.7,2.4-0.7,3.7c0,3.4,0,6.7,0,10.1c0,1.6-0.1,3.2-0.4,4.7c-1-2.6-2-5.2-3.1-7.7
	c-0.5-4.1-0.2-8.3-0.2-12.5c0-0.6,0.1-1.2,0.6-1.5C16.8,126.9,18,128,19.1,129.2z"/>
<path class="st46" d="M85.7,90c-0.7,0-1-0.5-1.5-0.9c0-0.2,0-0.5-0.1-0.7c0-8.5,0-16.9,0-25.4c0-0.8-0.3-1.7,0.6-2.3
	c0.4,0.5,0.9,1,1.3,1.5c0.7,0.8,0.6,1.8,0.6,2.7c0.1,7.4-0.1,14.7,0,22.1C86.7,88.1,86.7,89.2,85.7,90z"/>
<path class="st47" d="M36.9,89.5c-0.6,1.1-0.3,2.2-0.4,3.3c-0.2,3.3,0.5,6.6-0.4,9.8c-1.4-1.9-2.8-3.8-4.3-5.8c0.1-3,0.2-6,0.2-9.1
	c0-0.5-0.3-1.4,0.7-1.4C34.1,87.5,35.8,88,36.9,89.5z"/>
<path class="st48" d="M74.2,86.8c-0.8,1.3-0.4,2.7-0.4,4c0,1.1,0,2.2-0.3,3.3c-0.1,0.1-0.2,0.1-0.2,0.2c-2.2-0.4-4.2-1.2-5.9-2.7
	c-0.5-2.1-1.4-4.3,0.4-6.3C69.9,85.6,72.1,85.9,74.2,86.8z"/>
<path class="st49" d="M15.4,125.9c0,3.6,0,7.2,0,10.8c0,1.1-0.1,2.1-0.4,3.2c-1.2-2.2-2.4-4.4-3.5-6.5c-0.2-2.8,0.2-5.7,0-8.5
	c0-0.6,0.1-1.5,1.1-1.1C13.5,124.5,14.7,124.9,15.4,125.9z"/>
<path class="st50" d="M12.6,123.8c-1.2,0.4-0.6,1.3-0.6,2.1c0,2.5,0.3,5.1-0.6,7.6c-1.4-1.9-2.8-3.9-4.2-5.8
	c-0.4-1.8-0.2-3.7-0.1-5.5c0-0.8,0.3-1.6,1.3-1.5C9.9,121.6,11.4,122.5,12.6,123.8z"/>
<path class="st5" d="M24.6,120.7c-5.2-1.8-10.6-2.8-16.2-3.1c0.3-0.6,0.8-0.7,1.4-0.8c6.3-0.3,12.5,0.4,18.7,1.3
	c0.1,0,0.2,0.2,0.3,0.2c0.7,1,0.7,2,0.2,3C27.3,122.4,26,121.5,24.6,120.7z"/>
<path class="st51" d="M67.7,85.3c-0.8,2.2-0.3,4.4,0,6.5c-0.6,0.3-1.1,0.1-1.7-0.1c-1.2-0.5-2.5-0.9-3.8-1.4
	c-0.6-0.2-1.5-0.2-1.5-1.2c0.2-1.7-0.4-3.4,0.4-5C63.4,84.2,65.6,84.5,67.7,85.3z"/>
<path class="st52" d="M32.7,86.4c-0.1,2.4-0.2,4.8-0.2,7.1c0,1.2,0.4,2.4-0.7,3.3c-3.7-3.5-4.4-6.6-2.4-10.1
	c0.4-0.7,0.8-1.4,1.7-1.8C31.6,85.5,32.2,85.9,32.7,86.4z"/>
<path class="st53" d="M69.3,47.5c-0.7,0.5-0.4,1.3-0.4,2c0,2.9,0,5.9,0,8.8c0,1.1-0.1,2.2-0.4,3.2c-3.7-4-4-9.3-0.7-13.4
	c0.4-0.5,0.7-1.1,1.5-0.9C69.2,47.3,69.2,47.4,69.3,47.5z"/>
<path class="st34" d="M46.2,122.6c0.6,0.3,1.2,0.5,1.9,0.8c1.2,1.4,1.5,4.7,0.6,6.5c-2.5,0-4.3-1.4-6.1-2.7
	c-0.1-0.2-0.1-0.4-0.1-0.6c0.3-1.6-0.3-3.3,0.7-4.7C44.1,122.1,45.1,122.3,46.2,122.6z"/>
<path class="st35" d="M43.1,121.8c-0.2,1.7,0.4,3.4-0.4,5c-2.6,0-4.9-0.9-6.6-2.9c-0.1-1.4-0.5-2.7,0.4-4
	C38.7,120.6,41,120.7,43.1,121.8z"/>
<path class="st48" d="M36.5,119.9c0,1.4,0,2.8,0,4.2c-0.3,0.3-0.7,0.4-1.1,0.3c-2.1-0.8-4.2-1.4-6.3-2.3c-0.2-0.2-0.4-0.4-0.3-0.7
	c0-1,0-2.1,0-3.1C31.4,118.6,34,119.1,36.5,119.9z"/>
<path class="st54" d="M8.5,120.7c-1,0.4-0.8,1.3-0.8,2.1c-0.1,1.6,0.4,3.3-0.4,4.9c-1.1-0.8-1.9-1.9-2.6-3c-1.4-2.1-1-4,1.1-5.9
	C6.7,119.3,7.7,119.8,8.5,120.7z"/>
<path class="st55" d="M20.4,208c-1.9,0-3.9,0-5.8,0c0.1-0.1,0.1-0.2,0.2-0.4c5.3,0,10.7,0,16,0c0.6-0.5,1.2-0.6,2-0.6
	c4.2,0,8.3-0.1,12.5,0.1c1.7,0,3.4-0.4,5.1,0.4c0.2,0.2,0.2,0.4,0.1,0.7c-1.5,0.9-3.1,0.4-4.7,0.5c-3.4,0.1-6.9,0.1-10.3,0
	c-2.7,0.1-5.4,0.1-8.1,0C25,208.5,22.6,209.2,20.4,208z"/>
<path class="st56" d="M170.4,261.5c0,0,0,0.2,0,0.2c-4.4,0.2-8.7,0.2-13.1,0c0,0,0-0.1,0-0.1c0.4-0.6,1.1-0.7,1.7-0.7
	c3.2-0.1,6.4-0.1,9.6,0C169.3,260.9,169.9,261,170.4,261.5z"/>
<path class="st9" d="M275.4,73c-0.1,0-0.3,0-0.4,0c0.8-0.7,1.8-0.3,2.7-0.4C277,73.3,276.2,72.9,275.4,73z"/>
<path class="st57" d="M262.7,120.3c0,7.1,0,14.2,0,21.3c0,2.8,0.5,5.7,0.3,8.5c-0.3,2.7,0,5.3-0.1,7.9c-0.1,3.3,0,6.6,0.2,10
	c0.1,2.9-0.1,5.7,0.2,8.6c0.1,1.1-0.4,2.4-0.2,3.7c-2.7,1.1-5.4,1.1-8.1,0c0.1-5.4,0-10.7,0.4-16.1c0.8-10.1,1.6-20.1,3.7-30.1
	C260.1,129.4,261.1,124.8,262.7,120.3z"/>
<path class="st58" d="M255,180.3c2.7,0,5.4,0,8.1,0c1.4,0,2.8,0.1,4.2,0.1c0,9.1,0,18.2,0,27.2c-1.8,0.2-3.6-0.4-5.4,0.4
	c-0.4,0.4-0.9,0.4-1.4,0.3c-0.4-0.2-0.6-0.5-0.9-0.9c-0.2-0.4-0.4-0.7-0.4-1.2c0.1-4.7,0.1-9.4,0-14.1c0-0.8,0.1-1.5,0.4-2.2
	c0.1-0.8,1.5-0.4,1.3-1.5c-1.7-3.9-4.8-6.2-8.8-7.2c-0.4-0.2-1-0.1-0.9-0.8C252.5,180.3,253.7,180.3,255,180.3z"/>
<path class="st59" d="M251.2,180.4c0.3,0.4,0.7,0.3,1.1,0.3c0.1,0.1,0.3,0.1,0.3,0.2c0.4,2.8,0.8,5.7-0.4,8.5
	c-2.3,0.6-4.7,0.2-7.1,0.3c-1.1-0.1-2.2,0.2-3.2-0.4c-0.1-0.1-0.2-0.2-0.3-0.3c-0.7-2.9-1-5.9-0.2-8.9c0.7-0.5,1.4-0.4,2,0.1
	c1.8,0,3.6,0,5.4,0C249.6,180.3,250.4,180.3,251.2,180.4z"/>
<path class="st60" d="M233.1,139.2c0.5,1.3,1.1,2.6,1.6,3.8c1.9,3.7,3.1,7.6,4.2,11.5c-0.9,0.6-0.7,1.4-0.6,2.2
	c0,3.9-0.1,7.8-0.1,11.6c0,3.1,0.1,6.1,0.1,9.2c0,1,0.2,2.1-0.6,2.9c-1.3,0.7-2.8,0.4-4.2,0.4c-0.6,0-1.2-0.1-1.7-0.5
	c-0.6-0.8-0.5-1.7-0.5-2.6c0-6.3-0.3-12.6,0.1-18.8c0.3-5.6-0.6-11.1,0.2-16.7C231.7,141.1,231.4,139.6,233.1,139.2z"/>
<path class="st61" d="M237.7,180.3c-0.3-3.7-0.2-7.5-0.2-11.3c0-3.3-0.4-6.7,0.2-10c0.2-0.9-0.1-1.9-0.2-2.8
	c-0.1-0.6-0.4-2.2,1.4-1.6c1,4.9,2.7,9.6,3.3,14.6c0.3,2.8,0.9,5.6,0.9,8.5c0,0.9,0.1,1.8,0.4,2.6c-0.6,0-1.3,0.1-1.9,0.1
	C240.3,181.1,239,181.2,237.7,180.3z"/>
<path class="st62" d="M27.3,208c2.7,0,5.4,0,8.1,0c1.3,1.3,0.8,3.1,0.7,4.5c-0.1,1.7-0.2,3.3,0,4.9c0.4,3.7-0.1,7.4,0.2,11
	c0.1,0.6,0,1.3-0.5,1.8c-2.6,1.9-5.2,3.8-7.8,5.8c-0.1,0-0.2,0-0.3-0.1c-0.9-0.2-1.2-0.9-1.2-1.7c0.1-2,0-4.1,0.2-6.1
	c0.2-2.3-0.2-4.6,0-6.9c0.3-3.6,0-7.2,0-10.7C26.7,209.7,26.6,208.8,27.3,208z"/>
<path class="st63" d="M35.7,230.3c0-4.3,0.4-8.6-0.2-12.8c-0.5-3.2,0.7-6.3-0.2-9.5c3.5,0,6.9,0,10.4,0c0.6,0.7,0.7,1.5,0.7,2.3
	c0.2,5.1,0,10.2-0.2,15.3c0,0.6-0.1,1.1-0.6,1.6C42.3,227.8,39,229,35.7,230.3z"/>
<path class="st64" d="M45.7,227.2c0-6.4,0.5-12.8,0-19.2c1.5,0,3.1,0,4.6,0c1.9-0.9,3.9-0.6,5.9-0.3c0.9,0.6,0.9,1.7,0.9,2.6
	c-0.1,5.5,0.3,10.9,0.1,16.4c0,0.8-0.1,1.5-1.2,1.6c-1.6-0.7-3.4-0.5-5-1C49.3,227.3,47.5,227.2,45.7,227.2z"/>
<path class="st65" d="M287,239.3c0.7,2.4,0.8,4.9,0.6,7.2c-0.3,3.6-0.3,7.1,0.3,10.6c0.3,1.5,0.3,2.9-0.2,4.3c-2.4,0-4.9,0-7.3,0
	c-1.1-1.4-0.3-3-0.4-4.5c-0.2-5.7,0.1-11.4-0.3-17.1c0-0.4,0-0.8,0.2-1.1C282.3,238.9,284.7,239.1,287,239.3z"/>
<path class="st66" d="M280,238.8c0.7,2.6,0.5,5.3,0.6,7.9c0.1,3.5-0.1,7.1,0.1,10.6c0.1,1.4-0.4,2.8-0.3,4.2c-1.5,0-3.1,0-4.6,0
	c-1-1.3-0.8-3-0.8-4.4c-0.1-5.7-0.3-11.5-0.2-17.2c0-0.7,0-1.4,0.4-2c0.2-0.2,0.4-0.3,0.6-0.2C277.2,238.1,278.5,238.6,280,238.8z"
	/>
<path class="st67" d="M275.8,237.5c-0.1,0-0.3,0-0.4,0.1c-1.6,0.1-2.9-0.5-3.7-1.8c1-4.9,0.7-9.9,0.9-14.8c0.1-3.1-0.3-5.9-1.7-8.7
	c0.6-1.4-0.3-3.1,1.1-4.3c1.3,0,2.6,0,3.8,0C276.2,217.9,275.7,227.7,275.8,237.5z"/>
<path class="st68" d="M27.3,208c0,4.6,0.2,9.2-0.1,13.8c-0.2,2.5,0.5,4.9-0.1,7.4c-0.3,1.6-0.3,3.6-0.2,5.4c0,0.6,0.5,0.9,0.7,1.3
	c-2.3,1.3-4.7,2.2-7.3,2.4c0-10.1,0-20.3,0-30.4C22.7,208,25,208,27.3,208z"/>
<path class="st69" d="M219.3,114.9c1.5,2.1,3,4.1,4.6,6.2c0.5,2,2.3,3.3,2.7,5.4c-0.2,3.1-0.1,6.3-0.1,9.4c-0.1,13.7,0,27.4,0,41.1
	c0,1.1,0.2,2.3-0.5,3.4c-1.8,0.9-3.6,0.7-5.4,0.2c-1-0.9-0.8-2.1-0.9-3.2c-0.5-5.5-1.3-11-2.6-16.5c-0.2-0.7-0.3-1.4-0.1-2.1
	c0.1-0.6,0.7-1,0.6-1.6c-0.5-2.9,0.2-5.9,0.2-8.8c0.1-5.3-0.5-10.6,0-15.9c0.3-3-0.2-6-0.1-9c0.1-2.4,0.4-4.7,0.4-7.1
	C218,115.7,217.8,114.5,219.3,114.9z"/>
<path class="st70" d="M225.8,180.3c0-15.2,0-30.5,0-45.7c0-2.1,0-4.2,0-6.3c0-0.7,0-1.4,0.8-1.8c2.2,4.2,5.1,8.1,6.5,12.7
	c-1.5,1.7-0.9,3.9-1.1,5.8c-0.3,2.6-0.2,5.3,0.3,8c0.3,1.9-0.4,3.8-0.4,5.7c0,7.2,0,14.4,0,21.6c-1.5,1.2-3.2,0.5-4.9,0.6
	C226.6,180.8,226.1,180.7,225.8,180.3z"/>
<path class="st71" d="M110,52.2c0.8,0.5,1.9,0.5,2.7,1.2c0.5,0.6,0.5,1.3,0.4,2c-0.5,2.9,0.3,5.9-0.8,8.8c-0.5,1.2,0.5,2.4,0.3,3.8
	c-0.4,1.9-0.7,3.8-0.7,5.7c0,0.1-0.1,0.3,0,0.4c1.3,3.4-0.3,6.9,0.3,10.3c0.3,2,0.5,4.6-1.1,6.5c-1.4-0.1-1.7-1.4-2.4-2.2
	c-1.5-2.4-3.4-4.6-5.1-6.8c-0.6-1.2-1.9-1.9-1.9-3.4c1.2-0.8,0.8-1.9,0.6-2.9c-0.2-1-0.3-2,0-3c0-0.1,0.1-0.3,0.1-0.4
	c-0.7-5.8-0.1-11.7-0.3-17.5c0-0.7-0.1-1.4,0.2-2.1c0.3-0.9,0.2-1.8-0.2-2.6C104.7,50.2,107.3,51.5,110,52.2z"/>
<path class="st72" d="M89.6,65.3c1.5,1.4,3.1,2.8,4.2,4.6c0.5,5.6,0.1,11.3,0.2,16.9c0,1.9,0.1,3.8,0,5.8c-0.2,0.8-0.8,0.8-1.3,0.6
	c-1.4-0.5-2.9-0.8-4-2l0-0.1c-0.7-0.7-0.7-1.6-0.6-2.5c0.1-5.3-0.3-10.6,0.3-15.9c0.2-1.6-0.5-3.2-0.3-4.8
	C88.4,66.9,88.2,65.7,89.6,65.3z"/>
<path class="st73" d="M101.5,78.4c0.7,1,1.5,2.1,2.2,3.1c-0.1,4.1,0,8.2-0.1,12.4c0,1,0.1,2-0.6,2.9c-0.9,0.8-1.7,0.2-2.5-0.2
	c-1.1-0.8-2.8-0.7-3.2-2.3c0.1-5.4-0.3-10.8-0.3-16.2c0-0.7-0.1-1.4,0.1-2.1c0.1-0.6,0.2-1.4,1.2-1C99.4,76.1,100.5,77.2,101.5,78.4
	z"/>
<path class="st36" d="M98.4,74.9c-0.4,0.1-0.7,0.3-0.7,0.8c0.1,2.4,0.1,4.8,0.1,7.2c0,3.9,0.8,7.7-0.1,11.6c-1,0.6-1.8-0.3-2.7-0.4
	c-0.6-0.2-1.1-0.5-1.1-1.2c-0.4-0.6-0.4-1.2-0.4-1.8c0-6.5,0-13.1,0-19.6c0-0.6-0.1-1.2,0.4-1.6C95.3,71.7,97.3,72.8,98.4,74.9z"/>
<path class="st46" d="M89.6,65.3c-0.7,0.8-0.8,1.8-0.8,2.9c0.1,2.5,0.2,5,0.1,7.6c-0.3,5.1-0.1,10.2-0.1,15.3
	c-1.1-0.2-2.1-0.5-3.1-1.1c0.6-6.8,0.4-13.6,0.4-20.3c0-2.5,0-5,0-7.5C87.7,62.8,88.6,64.1,89.6,65.3z"/>
<path class="st74" d="M45.4,207.6c-4.9,0-9.7,0-14.6,0c0.2-7.9-0.2-15.8,0.1-23.7c0-1.1,0.3-2.9-1.7-3.3c0.4-1.2,1.5-0.9,2.4-0.9
	c1.1-0.1,2.3-0.1,3.4,0c1.9-0.2,3.7,0.3,5.6-0.2c0.5-0.1,1.1-0.1,1.6-0.2c1.2-0.3,2.3-0.6,3.5-0.5c1.3,0.5,1.1,1.6,1.1,2.6
	c0.1,3.4,0.2,6.8-0.2,10.3c-0.9,2.3-1.3,4.6-0.4,7c-0.2,2.1-0.3,4.3-0.1,6.4C46.2,206,46.1,206.9,45.4,207.6z"/>
<path class="st75" d="M31.5,180.3c-0.8,0.2-1.6-0.1-2.4,0.4c-0.5,0-1,0-1.5,0c-0.6-0.5-0.6-1.2-0.6-1.9C27,166.4,27,154,27,141.7
	c0-0.9-0.1-2,0.8-2.7c0.6-0.2,1.1,0.1,1.5,0.5c1.1,1.4,2.7,2.6,2.7,4.6c-0.3,0.9-0.3,1.9-0.3,2.8c0.4,8.4-0.1,16.8,0,25.1
	c0,2.1,0.5,4.2,0.2,6.3C31.9,179.1,32,179.7,31.5,180.3z"/>
<path class="st76" d="M28.3,139.2c-0.9,0.2-0.7,1-0.7,1.6c0,12.1,0.1,24.1,0.1,36.2c0,1.3-0.1,2.5-0.1,3.8c-0.9,0.4-1.7,0.7-2.7,0.8
	c-0.6-0.6-0.4-1.3-0.4-2c0.1-5.1,0.2-10.2,0.1-15.3c-0.1-8.8,0.1-17.7-0.1-26.5c0-0.7-0.4-1.6,0.7-1.9
	C26.9,136.3,28.2,137.2,28.3,139.2z"/>
<path class="st77" d="M73.1,237.4c0,4.2,0,8.3,0,12.5c0,3.4-0.5,6.8,0,10.1c0.2,1.2-0.5,1.5-1.6,1.5c-4-0.1-7.9,0-11.9,0
	c-0.4-1.5,0.1-3,0-4.5c0-0.2,0-0.6,0.2-0.7c2.9-2.4,1.3-5,0.5-7.6c-0.1-0.4,0-0.7,0.1-1.1c0.4-1.5,0.1-2.9,0-4.4
	c-0.2-2.2-0.8-4.5,0.4-6.7c0.5-0.9,0.5-1.9-0.1-2.7c-0.9-1.3-1.7-2.5,0.7-2.9c0.1,0,0.1-0.2,0.1-0.4c1.1-0.7,1.7,0.3,2.5,0.7
	c0.7,0.3,1.2,0.8,1.9,1.3c1.6,1.5,3.4,2.7,5.4,3.7C71.9,236.3,72.7,236.5,73.1,237.4z"/>
<path class="st78" d="M65.6,232.7c-1.5-0.6-2.4-2.1-4.1-2.3c-1.8-0.7-3.4-1.9-5.3-2.1c1.4-1.6,0.6-3.5,0.7-5.2
	c0.1-2.6-0.3-5.2-0.3-7.9c0.1-2.4,0.1-4.8-0.1-7.1c0.3-0.4,0.7-0.5,1.2-0.5c2.7,0,5.5-0.3,8.2,0.2c0.8,0.5,0.7,1.4,0.8,2.2
	c0.4,4.2,0.2,8.4-0.1,12.6c-0.2,2.7-0.1,5.3-0.1,8C66.6,231.4,67.1,232.5,65.6,232.7z"/>
<path class="st79" d="M138.1,261.5c-6.4,0-12.8,0-19.2,0c0.2-2.2-1-4.5,0.2-6.6c0.2-0.3,0.3-0.8,0.1-1.1c-1.3-2.7-0.1-5,1.2-7.3
	c0.3-0.5,0.2-0.8-0.2-1.1c-1.4-1-1.4-2.1-0.5-3.5c0.4-0.5,0.3-1.1-0.1-1.6c-0.9-1.1-0.9-2.1,0.2-3c0.7-0.6,0.6-1.2-0.1-1.7
	c-1.1-0.8-1.3-1.8-0.6-3c0.3-0.6,0.6-1.3,0.1-1.8c-1.1-1.2-0.7-2.4-0.1-3.6c1.1-0.5,2.1,0.1,3.2,0.2c3,0.8,6,1.7,8.7,3.5
	c2,1.4,3.9,2.9,5.9,4.3c0.5,0.3,1.1,0.7,1.2,1.4c-0.7,2.7,0,5.4,0,8.2c-0.1,4.9,0.9,9.8,0.8,14.7
	C138.6,260.1,138.7,260.8,138.1,261.5z"/>
<path class="st80" d="M118.8,227.3c-0.1,0.4,2.1,0.3,0.3,1.1c-1,0.4-0.4,1.1-0.1,1.3c1.5,0.9,1,2.2,0.4,3.2
	c-0.7,1.2-0.3,1.7,0.6,2.3c1.2,0.8,1.6,1.6,0,2.5c-1,0.5-1.2,1.5-0.2,2.1c1.2,0.8,1,1.4,0.3,2.3c-1,1.2-1,2.2,0.7,2.9
	c1,0.4,1,1.3,0.1,1.7c-1.7,0.6-0.7,2.1-1.2,3.1c-0.5,1-1.5,2-0.1,3.1c0.3,0.2,0.5,1,0.3,1.2c-2,2.2,0.4,5-1,7.3c-4.7,0-9.5,0-14.2,0
	c-0.6-0.7-0.6-1.5-0.6-2.3c-0.1-3.5,0-7-0.7-10.4c-0.6-2.7-0.1-5.6,0-8.3c0.1-3.1,0.5-6.4-0.6-9.4c-0.2-0.9,0.5-1.1,1.1-1.4
	c2.9-1.3,5.9-2.2,9-2.8c1.4-0.1,2.9-0.1,4.3-0.1C117.7,226.7,118.4,226.7,118.8,227.3z"/>
<path class="st81" d="M102.8,230.7c0.9,0.1,1,0.8,1.1,1.5c0,2.5,0,4.9,0.2,7.4c0.1,1.1-0.3,2.4-0.3,3.6c-0.1,2.6,0.1,5,0.7,7.5
	c0.6,2.5,0.2,5.2,0.2,7.7c0,1,0,1.9,0,2.9c-5.9,0-11.8,0-17.6,0c-1.2,0-1.6-0.2-1.5-1.6c0.2-1.9,1-3.8-0.1-5.7c-0.1-0.2,0-0.6,0-0.9
	c0.2-1.5,1.2-2.9-0.3-4.5c-0.6-0.7-0.6-2.7,0-3.7c1.1-1.8-0.4-3.5,0.5-5.2c0.2-0.4-0.3-0.6-0.7-0.6c-0.6,0-1.3,0-1.9-0.1
	c0-0.4,0.2-0.6,0.5-0.7c3.1-0.3,6.3-0.6,9.2-1.9c2.3-0.7,4.2-2.1,6-3.6C99.9,232,100.9,230.5,102.8,230.7z"/>
<path class="st82" d="M138.1,261.5c-0.2-3.6,0.6-7.6-0.3-10.8c-1.1-3.8,0.4-7.5-0.8-11.1c-0.4-1.1,0-2.3,0.7-3.3
	c1.6-0.5,2.7,0.9,4.1,1c1.6,0.5,3.3,0.7,4.9,1.2c1,0.4,1.9,0.2,2.9,0.2c0.3,0,0.6,0,0.9,0c1,0,2,0.1,3-0.2c0.4-0.1,0.8-0.1,1.2-0.1
	c0.7,0.1,1.4,0.3,1.3,1.1c-0.6,6.8,0.7,13.6,0.1,20.3c-0.1,0.6-0.2,1.3-0.7,1.7C149.6,261.5,143.8,261.5,138.1,261.5z"/>
<path class="st83" d="M155.4,261.5c0.5-5.5-0.1-11-0.1-16.5c0-1.7-0.8-3.6,0.2-5.3c0.5-0.9-0.5-0.7-0.9-0.9c0.2-0.9,1-0.9,1.7-1
	c2-0.5,3.9-1.2,5.8-2.1c1.9-1,3.6-2.2,5.2-3.5c0.7-0.6,1.5-1.3,2.6-0.7c0.8,0.6,1,1.6,0.8,2.4c-0.7,3.8,0.3,7.5,0,11.3
	c-0.3,4.6,0.9,9.1,0.4,13.7c-0.1,0.9,0.1,1.9-0.6,2.7c0,0,0,0,0,0c-4.4,0-8.7,0-13.1,0C156.7,261.5,156,261.5,155.4,261.5z"/>
<path class="st84" d="M83.4,238.8c-0.2,0.1-0.3,0.2-0.5,0.3c-0.2,0-0.4,0-0.6,0c-1-0.4-2.1,0.1-3.1-0.3c-1.7-0.4-3.4-0.5-5-1.3
	c-0.5-0.6-0.6-1.3-0.6-2c0.2-5.8-0.6-11.5-0.4-17.2c0.1-2.9,0.6-5.8,0.1-8.8c-0.1-0.6,0-1.3,0.5-1.8c3.1-0.7,6.3-0.5,9.5-0.1
	c1.2,1.5,0.9,3.3,0.9,4.9c0.1,2.5,0.3,5,0.2,7.4c-0.1,5.5-0.2,10.9-0.4,16.4C84,237.3,84.1,238.2,83.4,238.8z"/>
<path class="st85" d="M73.8,208c0.1,9.9,0.3,19.7,0.4,29.6c-0.4-0.1-0.8-0.2-1.2-0.2c-2.7-1.1-5.4-2.5-7.5-4.6
	c0.5-0.3,0.6-0.8,0.5-1.3c-0.3-4.3-0.1-8.6,0.3-13c0.3-3.4-0.2-6.9-0.3-10.4C68.7,207.1,71.3,207.1,73.8,208z"/>
<path class="st81" d="M79.2,238.9c1.1,0,2.1-0.1,3.1,0.3C81.3,239.1,80.2,239.5,79.2,238.9z"/>
<path class="st86" d="M243.1,261.4c-6.8,0-13.6,0-20.4,0c-0.6-0.6-0.6-1.4-0.5-2.2c0.3-3.9,0.1-7.7-0.5-11.6
	c-0.3-1.7-0.1-3.4-0.1-5.1c0-1.2,0-2.4-0.2-3.6c0.2-0.8,0.9-0.9,1.6-1.1c1.8-0.4,3.5-1.1,5.2-1.7c2.9-1,5.1-3.2,7.5-4.9
	c1.3-0.7,2.5-1.8,4.1-1.8c1.4,0.6,3.2,0.9,3.6,2.8c-0.7,2.3-0.2,4.7-0.2,7c0,1.7,0.1,3.4-0.3,5.1c-0.4,1.9,0.1,3.7,0.4,5.5
	c0.7,3.6,0.3,7.2,0.2,10.9C243.5,260.9,243.3,261.2,243.1,261.4z"/>
<path class="st56" d="M170.4,261.5c0-3.1,0-6.3,0-9.4c0-0.9,0.3-2-0.8-2.6c-0.3-0.2-0.3-0.5-0.2-0.9c1.1-3.1,0.6-6.3,0.3-9.5
	c-0.1-1.5-0.1-2.9,0.2-4.4c0.2-1.1,0.7-2.4-0.7-3.3c0.1-1.3,1.3-1.4,2.1-1.9c2.9-1.6,6.1-2.4,9.4-2.8c1-0.1,2-0.1,2.9,0.3
	c0.7,0.6,0.9,1.4,0.9,2.2c-0.6,6.3-0.1,12.6,0,18.9c0,3.6,0.4,7.2,0.4,10.9c0,0.9,0,1.8-0.8,2.5
	C179.4,261.5,174.9,261.5,170.4,261.5z"/>
<path class="st87" d="M243.1,261.4c0-3,0-6,0-9c0-1.3-0.9-2.6-0.8-3.5c0.1-1.9-0.6-3.8,0.1-5.8c0.9-2.3-0.1-4.7,0-7.1
	c0.1-1.5-0.2-2.9,0.7-4.2c1.1-0.2,1.7,0.7,2.5,1.2c2.7,2.1,5.7,3.6,9,4.4c1.9,0.7,4,0.5,5.8,1.6c-0.2,1.4-0.4,2.7,0.3,4.1
	c0.3,0.5,0.2,1.3,0,1.9c-0.9,3.8-0.8,7.6-0.4,11.5c0.1,1.3-0.9,2.7-0.1,4.2c0.4,0.8-0.8,0.7-1.4,0.7
	C253.6,261.5,248.3,261.5,243.1,261.4z"/>
<path class="st88" d="M183.9,261.5c0.2-2.4,0.1-4.8,0.2-7.3c0.1-3.4-0.6-6.8-0.3-10.3c0.2-2.5-0.3-5.2-0.2-7.8
	c0.1-2.3-0.3-4.5,0.3-6.8c0.2-0.7-0.3-1.4-0.4-2.1c1.9-1.2,3.9-0.4,5.9-0.1c1.9,0.5,3.8,1,5.5,1.8c0.6,0.3,1.3,0.6,1.7,1.2
	c0.4,2.5,1.2,5,0.4,7.6c-0.3,1-0.1,2,0,3.1c0.4,5.7,1,11.4,0.9,17.2c0,1.2-0.1,2.4-0.9,3.5C192.6,261.5,188.2,261.5,183.9,261.5z"/>
<path class="st89" d="M196.9,261.5c0.3-2.3,0.4-4.6,0.4-6.9c0-2.1-0.2-4.2-0.7-6.3c-0.2-0.9,0.2-1.6,0.2-2.4c0.1-2-0.4-3.9-0.4-5.9
	c0-3,0.3-6,0-8.9c0-0.2-0.2-0.5-0.3-0.7c1.7-0.5,2.4,1.1,3.7,1.6c2.5,2.2,5.3,4,8.5,5c0.7,0.3,1.4,0.5,1.6,1.3
	c0.4,2.6-0.1,5.2,0,7.8c0.1,1.6,0.4,3.1,0.4,4.7c0.1,2.6-0.2,5.2-0.2,7.8c0,1,0.2,2.1-0.6,2.9C205.4,261.4,201.2,261.5,196.9,261.5z
	"/>
<path class="st90" d="M209.6,261.4c0.1-3.3-0.3-6.6,0.4-9.8c0.2-1.1-0.9-1.9-0.7-2.9c0.5-2.6-0.5-5.3,0.2-7.9
	c0.3-0.9-0.4-1.9,0.1-2.8c1.6-1,3.1,0.4,4.6,0.2c2.1,0.3,4.3-0.1,6.4,0.1c0.3,0.1,0.6,0.2,0.8,0.5c1.6,1.5,0.7,3.5,0.6,5.1
	c-0.2,2.9,0.5,5.7,0.6,8.6c0.2,3-0.1,6-0.1,9C218.3,261.4,214,261.4,209.6,261.4z"/>
<path class="st91" d="M272,236c1.2,0.5,2.3,1.1,3.5,1.6c-0.1,7.9,0,15.9,0.4,23.8c-2.2,0-4.3,0-7.1,0c3.9-1.9,4.7-4.8,4.4-8.3
	c-0.1-1.8,0.1-3.6-0.1-5.4c-0.2-2.6-1.8-4.5-3.4-6.3c-1.1-2.1-0.5-4.2,0.4-6.2C270.9,234.8,271.5,235.4,272,236z"/>
<path class="st92" d="M260.4,239.2c-2.1,0-4.1-0.7-6.2-1.2c-0.9-0.5-1-1.3-1-2.1c0-2.3,0.3-4.7,0.1-7c-0.1-1,0.4-1.6,1.4-1.7
	c1.2-0.1,2.4,0.2,3.5,0.5c1,0.4,2,0.6,3,1.1c0.6,0.3,1.4,0.4,1.4,1.3c-0.4,3.1-0.9,6.2,0.7,9.2C262.5,239.2,261.4,239.2,260.4,239.2
	z"/>
<path class="st93" d="M263.5,239.2c-1.2-0.4-1.6-1.2-1.6-2.5c0.1-1.9,0.3-3.8-0.2-5.7c-0.2-0.8,0.4-1,1-1.1c1.3-0.1,2.2,0.7,3.3,1.2
	c1.5,1.4,3.6,2.1,4.5,4.1c-0.9,2-0.9,4.1-0.9,6.2C267.6,240.6,265.8,239.2,263.5,239.2z"/>
<path class="st71" d="M60.7,89.1c1.6,1.1,3.8,1,5.4,2.3c0.5,0.5,0.6,1.1,0.6,1.8c0.2,7.8,0.3,15.7,0.2,23.5c0,0.8,0.1,1.6-0.7,2.1
	c-0.6,0.2-1-0.1-1.4-0.5c-1.3-2-3-3.6-4.4-5.5c-0.6-1.4-1.9-2.2-2.7-3.4c-0.4-0.6-1.1-0.9-0.9-1.8c0.4-0.1,0.8-0.2,0.8-0.7
	c-0.2-2.3,0.6-4.5,0.1-6.8c-0.3-1.6,0-3.3,0.3-4.9c0.4-2.2-0.6-4.3,0-6.5C59,88.9,59.9,89,60.7,89.1z"/>
<path class="st94" d="M50.4,124.1c0-6.7,0-13.4,0-20.1c0-0.8-0.2-1.7,0.8-2.2c1.3,1.2,2.7,2.2,3.5,3.8c0.6,4.4,0.1,8.8,0.2,13.2
	c0,2.2,0.3,4.4-0.3,6.5C53.1,126.2,51.6,125.7,50.4,124.1z"/>
<path class="st73" d="M54.2,125.7c0-6,0-11.9,0-17.9c0-0.7-0.3-1.5,0.4-2.2c0.7,0.7,1.5,1.3,2.2,2c0.4,0.5,0.8,1,1.1,1.5
	c0,4.1-0.2,8.1,0.2,12.2c0.2,1.9-0.2,3.7-0.6,5.5c-0.7,1-1.5,0.2-2.2,0C54.9,126.6,54.4,126.3,54.2,125.7z"/>
<path class="st0" d="M217.3,158.8c0.7,4,1.5,8,2.1,12c0.5,3.1,0.6,6.3,0.9,9.5c-0.5,0.7-1.3,0.6-2,0.6c-2.4,0.1-4.8,0.1-7.2,0
	c-1.7,0.1-3.3,0.1-5,0c-1.8,0.1-3.6,0.1-5.4,0c-2.6,0-5.3,0.2-7.9-0.1c-0.2-0.1-0.4-0.2-0.6-0.3c-0.9-2.4-1-5-0.9-7.5
	c0.2-4.9,0.5-9.7,0.1-14.6c-0.4-4.9-0.1-9.9-0.1-14.8c0-2.5,0.2-5.1,0.1-7.6c-0.1-2,0.3-4,0.4-6.1c0.1-1.7,0.2-3.4-0.1-5.2
	c-0.6-2.9,0.4-5.7,0.2-8.6c-0.1-1-0.3-2-0.2-3.1c0-1.1-0.2-2.3,0.9-3.1c1.2,1.4,2.3,2.8,3.5,4.2c1.9,3,3.8,5.9,5.6,8.9
	c1.4,2.2,2.7,4.3,4,6.5c2,1.7,2.7,4.3,3.8,6.5c1.4,2.7,2.4,5.6,3.6,8.4c1.6,3.9,2.8,8,4,12C217.3,157.3,217.2,158,217.3,158.8z"/>
<path class="st95" d="M212.7,144.5c-2.3-5-4.3-10.1-6.9-15c0.6-2,0.1-4.1,0.3-6.2c0.1-2,0.3-4,0.1-6c-0.4-4.3-0.4-8.5-0.3-12.8
	c0-1.7,0.1-3.4,0.7-5c2.6,2.6,5.1,5.2,7.3,8.1c-0.4,0.8-0.1,1.6-0.1,2.4c0,10.4,0,20.8,0,31.2C213.7,142.4,214,143.8,212.7,144.5z"
	/>
<path class="st96" d="M265.8,231.5c-1-0.5-2-1-3.1-1.5c-1.3-0.9-2.9-1.2-4.3-1.9c0.6-2.3,0.4-4.7,0.4-7c-0.1-3.6,0.3-7.3,0-10.9
	c-0.1-0.8,0.2-1.5,0.7-2.1c0.3-0.2,0.6-0.2,0.9,0c0.5,0,1,0,1.5,0c0.9,0,1.8,0,2.7,0c0.6,0.4,1.6-0.1,1.9,0.9
	c0.3,5,0.8,10.1,0.3,15.1c-0.2,1.8,0.4,3.6,0.3,5.3C267,230.3,267.2,231.4,265.8,231.5z"/>
<path class="st97" d="M266.2,208.8c-0.5-0.3-1-0.5-1.5-0.8c2.4,0,4.9,0,7.3,0c-0.7,1.2,0.5,2.8-0.8,3.8
	C269.2,211.4,267.8,209.9,266.2,208.8z"/>
<path class="st1" d="M192.7,109.9c-0.4,1.7-0.2,3.4-0.1,5.1c0.1,1.3,0.4,2.7-0.1,4.2c-0.6,2-0.4,4.3,0,6.4c0.2,1.1,0.1,2.2,0.1,3.2
	c0.1,2.9-0.8,5.7-0.3,8.7c0.3,1.4,0,3.3-0.2,5c-0.5,4.9-0.2,9.8-0.2,14.7c0,2.7,0.5,5.4,0.3,8.1c-0.2,2.6,0.2,5.3-0.3,7.9
	c-0.4,2.3,0.6,4.7,0.3,7.1c-0.5,0.7-1.3,0.7-2.1,0.7c-2.5,0-5,0.1-7.4-0.1c-2.3,0.1-4.6,0.1-6.9,0c-1.3,0-2.6,0.2-3.8-0.3
	c-1.2-1.6-0.9-3.6-0.9-5.4c0-3.3-0.4-6.6-0.1-10c0.1-1,0.1-2,0.3-3.1c0.7-5.8,0.6-11.6,0.1-17.4c-0.3-3.3,0.1-6.6,0-10
	c-0.2-8-0.5-16.1-0.2-24.2c0.1-2.4-0.1-4.7-0.1-7.1c0-4.3,0.6-8.6,0.3-12.8c-0.1-0.9-0.1-1.8,0.9-2.3c0.9,0.6,1.6,1.6,2.7,1.9
	c2,2.3,4.2,4.5,6.5,6.5c2.3,2.6,4.6,5.1,6.9,7.7C189.9,106.3,191.3,108.1,192.7,109.9z"/>
<path class="st98" d="M212.7,144.5c0.5-0.8,0.4-1.6,0.4-2.4c0-6.5,0-12.9,0-19.4c0-4.4,0-8.8,0-13.1c0-0.8-0.1-1.6,0.7-2
	c1.1,1.8,2.3,3.5,3.9,5c0.2,0.9,1.3,1.3,1.5,2.3c-0.9,0.1-0.7,0.9-0.8,1.5c-0.1,3.2-0.3,6.3-0.4,9.5c0,2.1,0.4,4.2,0.3,6.2
	c-0.1,1.6-0.5,3.2-0.3,4.8c0.4,4.5,0,9,0.2,13.5c0.1,2.2-0.2,4.5-0.2,6.7c0,0.7-0.5,1.1-0.8,1.7C215.8,154,214.2,149.3,212.7,144.5z
	"/>
<path class="st5" d="M172.3,88.4c-0.8,1.6-0.4,3.3-0.3,4.9c0.2,2.8-0.3,5.5-0.3,8.3c0,2.8,0.1,5.6,0.1,8.4c0,2.5,0.1,5-0.1,7.5
	c-0.2,2.8,0.2,5.7,0.2,8.6c0.1,4.1,0.2,8.1,0.2,12.2c0,3.8,0.3,7.6,0.1,11.4c-0.1,2.3,0.4,4.7,0.1,7.1c-0.2,2.2-0.4,4.4-0.5,6.5
	c-0.2,3-0.3,5.9-0.1,8.9c0.2,2.7,0.3,5.4,0.2,8.2c-0.5,0.6-1.2,0.6-1.9,0.4c-0.2-0.1-0.4-0.2-0.6-0.3c-0.5-0.6-0.6-1.4-0.7-2.2
	c-0.6-6.6-2.6-12.8-4.7-19c-1-3.7-3-7-4.8-10.3c-0.3-0.6-0.6-1.2-0.9-1.9c-1.3-2.5-2.7-4.9-4.4-7.1c-0.5-0.7-1.4-1.3-0.8-2.3
	c0.7-1.4,0.7-3,0.7-4.5c-0.1-4.2,0.3-8.3,0-12.5c-0.3-4.6,0.2-9.1,0-13.6c-0.1-3.9-0.5-7.8,0.3-11.7c0.4-2-0.1-4.2-0.3-6.3
	c-0.3-4.4,0.6-8.7,0-13c-0.1-0.6,0.1-1.1,0.7-1.5c1.2,0.8,2.3,1.5,3.5,2.3c2.8,2.2,5.6,4.4,8.5,6.5
	C168.4,85.1,170.7,86.4,172.3,88.4z"/>
<path class="st71" d="M28.3,139.2c-0.6-1.5-2.1-2.2-3-3.5c-0.3-1-1.4-1.4-1.8-2.3c0.8-0.5,0.7-1.3,0.7-2c0.1-3.5-0.3-7.1,0.4-10.6
	c1.5-0.2,2.7,0.9,4.2,0.8c0.1,0.1,0.3,0.3,0.4,0.4c0.9,0.5,1.3,1.3,1.4,2.4c0.5,4.7-0.2,9.5-0.1,14.2c0,0.7-0.2,1.6-1.3,1.5
	C28.9,139.7,28.6,139.4,28.3,139.2z"/>
<path class="st99" d="M54.2,125.7c0.4,0.3,0.8,0.5,1.2,0.8c1,2.4,0.9,4.7,0.1,7.1c-0.3,0.4-0.7,0.4-1.2,0.3
	c-1.9-0.7-3.4-2.2-5.2-3.1c-0.3-0.2-0.6-0.4-0.7-0.8c0.7-2.2,0.1-4.3-0.4-6.5c0.8,0.2,1.5,0.5,2.3,0.7
	C51.6,124.8,52.9,125.3,54.2,125.7z"/>
<path class="st100" d="M154.6,74.5c-0.5,1.1,0,2.1,0,3.2c0,2.9,0,5.8-0.3,8.7c-0.2,1.7,0.2,3.5,0.3,5.3c0.3,4.4-0.4,8.7-0.4,13.1
	c0,1.6,0.5,3.2,0.3,4.7c-0.5,4.4-0.2,8.9-0.1,13.3c0.1,3.4-0.6,6.8,0.1,10.2c0.3,1.3-0.2,2.8-0.3,4.2c-0.1,0.7-0.6,0.8-1.1,0.8
	c-0.9-0.2-1.1-1.1-1.6-1.7c-1.4-2.2-3.5-3.9-4.9-6.1c-1-1.5-2.5-2.5-3.5-3.9c-0.8-1.4-2.8-2.1-2.9-4.1c0.5-2.9,0.2-5.7,0.2-8.6
	c0-7.1-0.4-14.3-0.1-21.5c0.3-7.8,0-15.5,0.1-23.3c0-0.9-0.2-1.9,0.6-2.7c1.3,0.3,2.1,1.4,3.5,1.5c2.1,1.8,4.7,2.9,6.9,4.6
	C152.3,73,153.5,73.7,154.6,74.5z"/>
<path class="st101" d="M140.8,66.1c0,5.5,0.3,11-0.2,16.4c-0.1,1.3,0.3,2.7,0.3,4.1c0.2,4.4-0.6,8.8-0.4,13.2
	c0.3,4.5,0.3,8.9,0.3,13.4c0,3.1,0.9,6.4-0.4,9.5c-1.8-0.1-2.6-1.6-3.8-2.5c-1.5-1.6-3.2-2.9-4.9-4.2c-0.6-0.5-1.3-0.8-1.2-1.8
	c1.2-2,0.4-4.1,0.4-6.2c0.2-6.4,0.9-12.8,0.5-19.3c-0.4-6.6-0.1-13.3-0.5-19.9c-0.1-1.8,0.1-3.6,0-5.4c0-0.8,0-1.6,0.9-1.9
	c1.5,0.4,2.8,1.3,4.2,1.9C137.7,64.3,139.2,65.2,140.8,66.1z"/>
<path class="st102" d="M131.9,61.4c-0.7,2.8-0.3,5.7-0.3,8.5c0,2.5,0.2,5,0.1,7.5c-0.1,1.5,0.2,3,0.2,4.6c0.1,4.6,0.3,9.2,0.4,13.8
	c0,1.1,0.1,2.2-0.5,3.2c-0.4,0.7-0.5,1.6-0.2,2.2c0.8,2.2-0.1,4.3,0,6.4c0,0.9-0.2,1.9,0.1,2.7c0.6,1.7,0.2,3-0.9,4.3
	c-0.6,0.2-1-0.3-1.4-0.6c-1.4-1.4-3.2-2.3-4.7-3.5c-0.8-0.7-1.7-1.2-2.5-1.8c-0.7-0.5-1.4-1-1.3-2c-0.3-5.2,0.5-10.4-0.2-15.5
	c0-0.3-0.1-0.6,0-1c0.3-7.5,0.1-15,0.5-22.4c0.1-3.1-0.1-6.3-0.2-9.4c0-0.7-0.3-1.4,0.3-2c1.9,0.8,3.8,1.5,5.8,2.3
	C128.3,60.1,130.5,60.1,131.9,61.4z"/>
<path class="st103" d="M121.1,56.4c0.9,2.9,0,5.9,0.4,8.9c0.4,3-0.1,5.9,0,8.9c0,3.2-0.8,6.5,0,9.7c0.2,0.8,0.1,1.7,0,2.5
	c-0.7,4.6,0.7,9.2,0,13.7c-0.4,2.4,0.7,4.8-0.3,7.1c-0.6,0.1-0.8-0.3-1.1-0.7c-2.2-4.1-5.1-7.8-7.4-11.9c-0.4-1.4-2.1-2.3-1.9-4
	c1.3-0.8,0.3-2,0.5-3c0.4-1.7,0.8-3.4-0.1-5.2c0-0.1,0-0.1,0-0.2c1.6-4.1-0.7-8.4,0.6-12.6c0.4-1.2,1-2.9-0.1-4.5
	c-0.5-0.6,0.2-1.6,0.4-2.4c0.3-1,1.4-2.1-0.3-2.9c-0.1-0.1-0.2-0.4-0.1-0.5c1.7-1.9,0.5-4.2,1-6.2c2.6,0.6,4.9,1.7,7.3,2.7
	C120.4,56.2,120.8,56.3,121.1,56.4z"/>
<path class="st102" d="M73.4,94.1c2.7,0.9,5.1,2.4,7.7,3.5c0.6,0.9,0.7,1.9,0.6,3c-0.3,5.3,0.2,10.6,0.2,15.9
	c0.1,8.1-0.7,16.3-0.1,24.4c0,0.6,0,1.2-0.6,1.5c-2,0.1-3-1.3-3.9-2.7c-1-2.9-2.8-5.5-4.2-8.3c-0.4-0.7-0.9-1.4-0.7-2.3
	c0-6.3-0.1-12.6-0.1-18.8c0-4.3,0-8.6,0-12.9C72.4,96.2,72.5,95,73.4,94.1L73.4,94.1z"/>
<path class="st101" d="M80.8,142.2c0.5-0.1,0.7-0.3,0.7-0.9c-0.5-5.6-0.4-11.2,0-16.8c0.1-2.3,0.6-4.7-0.2-7
	c-0.4-1.3,0.3-2.5,0.3-3.8c-0.3-5.4-0.4-10.7-0.4-16.1c0.1,0,0.3,0,0.4,0c1.8,1,3.6,2,5.4,3.1c1,0.7,1.6,1.6,1.6,2.9
	c-0.3,6.2-0.2,12.4-0.2,18.6c-0.1,6.3,0.2,12.5,0.1,18.8c0,1.2,0.1,2.3,0.2,3.4c0.2,1.5,0.1,2.9-0.7,4.3c-0.2,0.2-0.5,0.3-0.9,0.2
	c-2.1-2.1-4.3-4-6.3-6.1C80.6,142.5,80.6,142.4,80.8,142.2z"/>
<path class="st22" d="M87.3,148.8c0.6-1.5,0.9-3.1,0.6-4.8c-0.3-1.6-0.2-3.3-0.2-5c0-6.8,0.2-13.5-0.1-20.3c-0.2-4.5,0.2-9,0.1-13.6
	c0-1.6,0.4-3.2-0.8-4.5c0.6,0.3,1.3,0.5,1.9,0.8c2,0.5,3.7,1.3,4.7,3.2c0.9,6.1,0.5,12.2,1,18.4c0.7,10.1-0.4,20.2,0,30.2
	c0,0.9,0,1.8-0.5,2.6c-0.8,0.8-1.4,0.1-1.9-0.4c-1.3-1.7-2.6-3.4-4-5C87.6,149.9,87,149.5,87.3,148.8z"/>
<path class="st104" d="M93.1,104.1c-1.4-0.9-2.8-1.8-4.2-2.7c0-3.4,0-6.9,0-10.3c1.7,0.6,3.4,1.2,5,1.8c0.4,0.3,0.8,0.6,1.2,0.8
	c0.6,0.6,0.7,1.4,0.6,2.1c-0.2,2.5-0.3,4.9,0,7.4c0.1,0.6,0,1.1-0.2,1.7C94.1,106.1,93.7,104.9,93.1,104.1z"/>
<path class="st103" d="M73.4,94.1c-0.8,5-0.3,10-0.4,14.9c-0.1,4.5,0,9.1,0,13.6c0,1.8,0.1,3.6,0.2,5.5c0,0.6-0.2,1-0.5,1.4
	c-1.9-1-2.3-3.2-3.6-4.7c-0.8-1.4-1.7-2.7-2.6-4c-0.4-0.6-1.1-1.1-0.7-2c0.6-1.8,0.7-3.7,0.6-5.6c-0.2-2.1-0.4-4.1-0.1-6.2
	c0.3-2,0.2-4,0-6c-0.4-3.2-0.1-6.4-0.2-9.6c0.6-0.1,1.1,0.1,1.5,0.4C69.6,92.6,71.5,93.4,73.4,94.1z"/>
<path class="st22" d="M48.4,129.9c0.3,0.1,0.5,0.3,0.8,0.4c0.3,0.4,0.6,0.9,0.6,1.4c0,3.7,0.4,7.4,0.3,11.1
	c-0.2,3.8-0.2,7.7-0.1,11.5c0.1,2.7,0,5.5,0,8.2c-0.1,4.8,0.1,9.6-0.1,14.4c-1,1.6-2.4,2.2-4.2,1.9c-0.4-0.3-0.7-0.8-0.7-1.3
	c-0.4-4.7-2.1-9-3.2-13.6c-0.2-0.6-0.3-1.3-0.1-2c0.8-1.8,0.5-3.9,0.3-5.7c-0.3-3.1-0.1-6.3,0.1-9.3c0.2-4.5-0.4-9,0.1-13.6
	c0.1-1.3,0-2.5-0.1-3.8c-0.1-0.9-0.1-1.8,0.7-2.4C44.7,127.8,46.5,129,48.4,129.9z"/>
<path class="st102" d="M42.7,127.2c0,3.1,0.2,6.3-0.1,9.4c-0.3,3.2,0.1,6.4,0,9.7c-0.1,2.9-0.5,5.9-0.1,8.9c0.2,2.3,1.1,4.9-0.6,7.1
	c-0.7-0.1-0.9-0.7-1.1-1.2c-0.5-1.6-1.6-3-2.1-4.7c-0.9-2.4-2.1-4.5-3.4-6.6c-0.5-0.8-1.1-1.6-0.8-2.6c0.3-3.2,0.6-6.5,0.5-9.7
	c-0.1-3.8-0.2-7.7-0.1-11.5c0-0.6,0.1-1.3,0.6-1.8c0.4,0,0.8,0,1.2,0c1.9,1.2,4,1.9,6.2,2.7C42.7,127,42.7,127.1,42.7,127.2z"/>
<path class="st103" d="M35.4,124.1c0,4-0.2,8,0.1,12c0.2,2.9-0.1,5.7-0.1,8.5c0,1-0.1,2-0.7,2.9c-1.6-0.8-2.3-2.2-2.8-3.8
	c-0.9-1.3-1.8-2.6-2.7-3.8c0.7-0.3,0.8-0.9,0.8-1.6c-0.3-4.7,0.6-9.5,0-14.2c-0.1-0.9-0.3-1.6-0.8-2.3
	C31.3,122.5,33.4,123,35.4,124.1z"/>
<path class="st105" d="M45.4,207.6c0.5-2-0.2-4,0-6c0.1-1.1,0.1-2.2,0.4-3.2c0.3-0.1,0.6,0,0.9,0.3c2.3,2.3,5.2,2.6,8.3,2.7
	c2.1,0,4.3-0.5,6.4,0.5c0.5,2,1.1,4.1-0.3,6c-3.5,0-7.1,0.2-10.6-0.2C48.7,207.6,47,207.6,45.4,207.6z"/>
<path class="st106" d="M50.4,207.6c3.6,0,7.2,0,10.8,0c0.6-0.5,1.2-0.6,2-0.6c4.3,0,8.7-0.1,13,0.1c3.5-0.1,6.9-0.1,10.4,0
	c0.6,0,1.3,0.1,1.8,0.4c0.2,0.2,0.3,0.4,0.2,0.7c-1.7,0.8-3.4,0.9-5-0.1c-3.2,0-6.4,0-9.6,0c-2.6,0-5.1,0-7.7,0c-3.2,0-6.4,0-9.6,0
	c-2.1,0-4.1,0-6.2,0C50.4,207.9,50.4,207.8,50.4,207.6z"/>
<path class="st107" d="M260,189.5c-0.3,3.9-0.1,7.8,0,11.7c0,1.7-0.2,3.5-0.4,5.2c-0.1,0.1-0.3,0.1-0.4,0.1c-2-1.5-4.3-2.5-6.1-4.2
	c-0.6-2.5-0.1-4.9-0.1-7.4c0-1.3,0.2-2.5,0.1-3.8c-0.1-0.7-0.1-1.4,0.6-1.9C255.8,189,257.9,188.5,260,189.5z"/>
<path class="st108" d="M252.3,189.2c0-2.8,0-5.6,0-8.5c4.3,1.1,7.5,3.5,9.2,7.7c0.3,0.5,0.1,0.9-0.5,0.9
	C258.2,189.3,255.2,189.6,252.3,189.2z"/>
<path class="st109" d="M253.5,202.6c2.4,0.7,4.3,2.3,6.2,3.9c0.1,0.3,0.3,0.5,0.4,0.8c-0.1,0.8-0.8,0.8-1.3,0.9c-3,0-6,0.3-9-0.2
	c-1.8-1.9-1.3-3.9-0.5-6c0.1-0.2,0.3-0.3,0.5-0.4C251.2,201.3,252.5,201.4,253.5,202.6z"/>
<path class="st110" d="M249.6,207.6c2.9,0,5.7,0,8.6,0c0.6,0,1.3,0.2,1.8-0.4c0.3,0.2,0.4,0.4,0.4,0.8c-0.3,0-0.5,0-0.8,0
	c-2,1.2-4.1,0.5-6.1,0.6c-2.2,0.1-4.4,0.1-6.5,0c-2.2,0.1-4.3,0.1-6.5,0c-1.3,0-2.7,0.3-3.9-0.5c-0.2-0.2-0.2-0.4,0-0.7
	c2.1-0.9,4.3-0.4,6.5-0.4C245.3,207.1,247.6,206.4,249.6,207.6z"/>
<path class="st111" d="M252.3,189.2c2.5,0,5.1,0,7.6,0c0.6,0,1.5,0.3,1.7-0.8c0.4,1.1,0.4,1.1-1.5,1.2c-2.2,0-4.4,0-6.5,0
	c-1.6,1.1-3.5,0.5-5.2,0.6c-1-0.2-2.1,0.2-3.1-0.4c-0.2-0.2-0.3-0.4-0.2-0.6C247.5,189.2,249.9,189.2,252.3,189.2z"/>
<path class="st112" d="M237.7,180.3c1.3,0,2.6,0.1,3.9,0.1c0.1,2.9,0.3,5.9,0.4,8.8c-2.7,1-5.4,0.7-8.1,0.2c-0.4-0.4-0.6-1-0.6-1.6
	c-0.1-1.9-0.1-3.8-0.3-5.7c-0.1-0.6,0-1.3,0.5-1.7C234.9,180.3,236.3,180.3,237.7,180.3z"/>
<path class="st113" d="M233.9,189.2c2.7,0,5.4,0,8.1,0c1,0,2.1,0,3.1,0c0,0.1,0,0.3,0,0.4c-1.8,1.2-3.8,0.5-5.7,0.6
	c-2.9,0.1-5.8,0.1-8.7,0c-0.7,0-1.5,0.1-2.1-0.5c-0.1-0.2-0.1-0.5,0.1-0.7C230.4,188.3,232.1,188.2,233.9,189.2z"/>
<path class="st114" d="M233.9,189.2c-1.8,0-3.6,0-5.4,0c-0.5,0.4-1.1,0.5-1.7,0.1c-1-3-1-5.9,0.1-8.9c1.7,0,3.3-0.1,5-0.1
	c0.5,0,1,0.1,1.5,0.1C233.7,183.3,234,186.2,233.9,189.2z"/>
<path class="st115" d="M266.2,208.8c2,0.4,3.4,1.9,5,3.1c2,3,2.1,6.3,1.9,9.7c-0.2,4.8,0.5,9.7-1.2,14.4c-0.5-0.2-0.9-0.5-1.4-0.7
	c-1.6-1.3-3.2-2.5-4.7-3.8c1.5-1.3,0.7-3,0.6-4.4c-0.1-1.3-0.3-2.5,0-3.8c0.6-2.4-0.2-4.9,0-7.3
	C266.6,213.6,266.3,211.2,266.2,208.8z"/>
<path class="st116" d="M226.9,180.4c-0.2,2.9-0.2,5.9,0,8.8c-0.7,0.7-1.5,0.6-2.3,0.5c-2.1-0.1-4.2,0.5-6.2-0.4c-0.9-3-1-6,0.1-8.9
	c0.6,0,1.3-0.1,1.9-0.1c1.8,0,3.6,0,5.4,0C226.2,180.3,226.6,180.3,226.9,180.4z"/>
<path class="st76" d="M102.7,96.8c0.4-0.7,0.4-1.4,0.4-2.2c0-3.8,0-7.6,0-11.4c0-0.6-0.3-1.5,0.7-1.7c1.8,2.2,3.7,4.4,5.1,6.9
	c0.3,2.9-0.1,5.9,0,8.8c0,0.8-0.2,1.5-0.6,2.2c-0.7,0.7-1.3,0.1-1.9-0.1C105.2,98.4,103.5,98.3,102.7,96.8z"/>
<path class="st75" d="M108.1,99.5c0.1-3.2,0.3-6.4,0.4-9.6c0-0.6-0.1-1.2,0.4-1.6c0.6,0.8,1.2,1.6,1.8,2.3c0.7,1.3,1.9,2.3,2.3,3.8
	c-0.2,1.5-0.1,2.9-0.1,4.4c0,0.9,0,1.8-0.7,2.5C110.4,101.8,109.1,101.2,108.1,99.5z"/>
<path class="st117" d="M102.7,96.8c1.3,0.7,2.6,1.4,3.8,2c0.1,0.2,0-0.1,0.1,0.2c0.8,1.8,0.7,11.8-0.1,13.7c-0.3,0.3-0.6,0.5-1,0.3
	c-1.9-1.2-4-2.2-5.2-4.3c-0.3-1.5-0.3-3.1-0.1-4.6c0.3-2,0.3-3.9,0-5.9c-0.1-0.8-0.2-1.5,0.5-2.1C101.4,96.3,102,96.6,102.7,96.8z"
	/>
<path class="st118" d="M100.8,96.1c0.8,4.3-0.2,8.7,0,13c-0.6,0.3-1-0.2-1.5-0.4c-1.5-1.1-3.3-1.7-4.3-3.5c-0.4-3.8,0-7.7,0-11.5
	c1-0.2,1.7,0.7,2.7,0.8C98.7,95.1,99.7,95.6,100.8,96.1z"/>
<path class="st119" d="M61.1,201.9c-3.4-0.2-6.9,0.3-10.3-0.3c-2.1-0.4-3.8-1.4-5.1-3.2c-1.3-2.3-0.8-4.4,0.4-6.5
	c1.4-2.6,3.9-3.1,6.5-3.2c2.8-0.2,5.6-0.1,8.4,0c4.7-0.1,9.3-0.1,14,0c4.5-0.1,8.9-0.1,13.4,0c1.9-0.1,3.8-0.1,5.7,0
	c0.8,0,1.7-0.1,2.1,0.9c-0.4,0.6-1,0.7-1.6,0.7c-2.7,0.1-5.3,0.1-8,0c-6.8,0.1-13.5,0-20.3,0.1c-3,0-3.5,0.5-3.3,3.4
	c0.1,1.6-0.1,3.2,0,4.8c0.1,2.2,0.3,2.4,2.5,2.4c6.3,0,12.5,0,18.8,0c0.8,0,1.5,0,2.3,0.1c2.7-0.1,5.3-0.1,8,0c0.5,0,1,0.1,1.3,0.6
	c-0.3,1-1.1,0.9-1.9,1c-1.5,0.1-2.9,0.1-4.4,0c-4.5,0.1-8.9,0.1-13.4,0c-4.3,0.2-8.7,0.1-13,0.1C62.4,202.5,61.7,202.4,61.1,201.9z"
	/>
<path class="st120" d="M60.7,189.2c-2.8,0-5.6-0.1-8.4,0c-2.4,0.1-4.4,1.2-6.2,2.7c-0.2-0.7-0.2-1.5-0.1-2.2c0.5-3.1-0.1-6.2,0-9.3
	c0-0.6-0.1-1-0.8-1.1c-0.1-0.3,0-0.4,0.3-0.4c1.4-0.2,2.7-0.9,3.9-1.6c1.3-1.7,3.4-2.5,4.8-4.1c1.5-1.3,3-2.6,4.5-3.8
	c0.5-0.4,1-1,1.9-0.5c0.6,0.8,0.5,1.8,0.5,2.8c0,2.8,0.3,5.6-0.5,8.3c-0.2,0.6,0.2,1.1,0.2,1.7C61.4,184.1,61.8,186.6,60.7,189.2z"
	/>
<path class="st121" d="M31.9,143.8c0.9,1.3,1.9,2.6,2.8,3.8c0.3,0.7,0.7,1.3,1,2c0,9.2,0,18.4,0,27.6c0,1.1,0.2,2.2-0.6,3.1
	c-1.2,0-2.3,0-3.5,0c-0.5-7.6-0.4-15.2-0.2-22.8c0.1-3.9-0.1-7.8-0.2-11.7C31.1,145,31,144.2,31.9,143.8z"/>
<path class="st122" d="M35,180.3c0-9.5,0-19,0-28.4c0-0.8-0.3-1.7,0.7-2.3c1.3,2.1,2.5,4.2,3.5,6.5c-0.2,3.6,0,7.3,0,10.9
	c0,3.1,0,6.3-0.1,9.4c0,1.6,0.2,2.9,1.8,3.5C38.9,180.6,36.9,180.2,35,180.3z"/>
<path class="st123" d="M40.8,180c-2.5-0.1-2.4-0.1-2.4-2.6c0.1-6.3,0-12.7,0-19c0-0.8-0.3-1.7,0.7-2.3c0.9,2.1,1.8,4.1,2.7,6.2
	c0.1,0.5,0.3,1,0.4,1.5c-0.1,4.9-0.1,9.8,0,14.7c0,0.4,0.2,0.9,0,1.3C41.8,179.9,41.3,179.9,40.8,180z"/>
<path class="st124" d="M42.2,179.8c-0.6-0.4-0.7-0.9-0.7-1.6c0-4.1,0-8.3,0-12.4c0-0.7,0.2-1.4,0.7-1.9c1.6,4.9,2.9,9.9,3.5,15
	c-0.1,0.1-0.2,0.2-0.3,0.4C44.3,179.4,43.3,179.6,42.2,179.8z"/>
<path class="st125" d="M141.5,237.6c-1.4-0.2-2.6-1-3.8-1.4c-2.5-1.4-4.8-3.2-7-5.1c0.7-4.9,0.5-9.8,0.3-14.7c-0.1-2.3,0-4.6,0-6.9
	c0-0.7,0-1.4,0.7-1.9c3.3-0.4,6.5-0.5,9.8,0.1c0.5,0.4,0.6,1,0.6,1.6c0,2.7,0.4,5.4,0.2,8.1c-0.3,4.2-0.1,8.3-0.1,12.5
	C142.3,232.4,142.5,235.1,141.5,237.6z"/>
<path class="st126" d="M118.8,227.3c-2.2-0.3-4.4,0-6.5-0.1c-0.8-0.8-0.7-1.9-0.6-2.9c0.2-4.8-0.2-9.5,0-14.3c0-0.8,0-1.7,0.7-2.3
	c3.6-0.5,7.3-0.5,10.9,0c0.8,0.6,1,1.5,0.8,2.4c-0.9,3.2-0.5,6.4-0.2,9.6c0.2,2.1,0.2,4.1,0.1,6.1c-0.1,1-0.2,2.1-1.7,1.8
	C121.1,227.5,120,227.4,118.8,227.3z"/>
<path class="st127" d="M122.3,227.6c1-0.1,1.2-0.7,1.2-1.6c0.2-4-0.4-8-0.5-12c0-1.2,0-2.4,0.4-3.5c0.4-0.9,0.3-1.7,0.1-2.6
	c1.2-1,2.6-0.4,3.9-0.5c1-0.1,1.9,0,2.9,0c0.5,0,1,0.1,1.3,0.5c0.1,4.6,0,9.1,0.3,13.7c0.1,2.6,0.1,5.4-0.2,8.1
	c-0.1,0.6-0.3,1.1-0.9,1.4C128,229.6,125.2,228.6,122.3,227.6z"/>
<path class="st128" d="M102.8,230.7c-1.7,0.9-3.1,2.1-4.6,3.3c-1.5,1.2-3.2,2.3-5.1,2.8c-0.5-1.5-0.6-3,0-4.5
	c0.2-0.4,0.3-0.9,0.3-1.3c-0.5-6.2,0.2-12.4-0.2-18.6c-0.1-1.6-0.5-3.5,1.1-4.8c3.2-0.2,6.4-0.3,9.7,0c1.1,0.9,0.7,2.2,0.6,3.2
	c-0.5,5.8-0.3,11.6-0.3,17.4c0,0.6,0,1.1-0.4,1.6C103.5,230.2,103.1,230.4,102.8,230.7z"/>
<path class="st129" d="M103.8,229.9c-0.3-3.3,0-6.6-0.1-9.9c-0.1-3.5,0.5-6.9,0.2-10.3c0-0.5,0.2-1.1,0.3-1.7c2.7-0.9,5.4-0.9,8.1,0
	c0,6.4,0,12.8,0,19.3C109.4,227.9,106.6,228.9,103.8,229.9z"/>
<path class="st130" d="M93.8,208c0.5,0.9-0.2,1.7-0.1,2.6c0.1,4.1-0.1,8.2,0,12.3c0,2.4-0.5,4.9,0.1,7.2c0.2,0.8,0.2,1.5-0.3,2.2
	c-1.1,1.4,0.3,3-0.5,4.4c-3,1.5-6.2,2.1-9.6,2c-0.1-3,0.3-6.1,0-9.1c-0.3-3,0.6-5.9,0.4-9c-0.2-3.2-0.3-6.4-0.4-9.5
	c0-1.1,0-2.1,0-3.2c1.7,0,3.3,0,5,0C90.2,207.2,92,207.1,93.8,208z"/>
<path class="st131" d="M141.5,237.6c0-9.9,0-19.7,0-29.6c0.3-0.3,0.6-0.5,1-0.5c2.9,0,5.8-0.3,8.8,0.1c1.1,0.6,1.3,1.6,1.3,2.8
	c-0.1,4.2-0.2,8.4,0.2,12.6c0.2,2.3-0.1,4.7-0.4,7c-0.4,2.9-0.1,5.7-0.3,8.6c-0.4,0.7-1.3,0.1-1.8,0.5c-0.2,0-0.4,0-0.6,0
	c-1-0.4-2.1,0.1-3.1-0.3C144.9,238.4,143.1,238.4,141.5,237.6z"/>
<path class="st132" d="M151.9,238.8c-0.7-2.5-0.3-5-0.3-7.6c0-1.7,0.1-3.5,0.3-5.2c0.4-5.1-0.6-10.2,0.1-15.3
	c0.2-1.1-0.5-1.8-0.5-2.7c0.2-0.2,0.5-0.4,0.8-0.5c3.3-0.1,6.5-0.4,9.8,0.2c0.7,0.5,0.6,1.4,0.7,2.1c0.2,5,0.1,10.1,0,15.1
	c0,3.1-0.4,6.2,0,9.4c0.1,0.6-0.1,1.1-0.4,1.6c-2.4,1.5-5.1,2-7.8,2.8c-0.4,0-0.7,0.1-1.1,0.1C152.9,239,152.4,239.1,151.9,238.8z"
	/>
<path class="st83" d="M146.6,238.9c1.1,0,2.1-0.1,3.1,0.3C148.6,239.1,147.6,239.5,146.6,238.9z"/>
<path class="st83" d="M151.9,238.8c0.5,0,1,0,1.5,0.1c-1,0.6-2.1,0.2-3.1,0.3C150.8,239,151.4,238.9,151.9,238.8z"/>
<path class="st133" d="M162.3,236c-0.7-7.9,0.3-15.9,0-23.8c0-1.4-0.4-2.8,0-4.1c2.6-1.1,5.3-0.6,7.9-0.3c0.9,0.6,0.8,1.6,0.7,2.4
	c-0.2,5.3,0.5,10.5-0.1,15.8c-0.2,1.3,0.3,2.6,0.4,4c-0.7,0.5-1.4,1-2.1,1.5C166.7,232.7,164.9,235,162.3,236z"/>
<path class="st134" d="M221.6,238.8c-0.3,0-0.5-0.1-0.8-0.1c-1.1-2-0.9-4.2-0.9-6.3c-0.1-7.3,0.1-14.5,0-21.8c0-1,0.1-2.1,0.9-2.8
	c2.5-0.5,5-0.5,7.6,0c0.7,0.7,0.7,1.6,0.7,2.5c-0.1,5.3,0.2,10.6,0.1,15.9c0,2.4,0.1,4.8,0.1,7.2c0,1.1,0,2.2-0.8,3
	C226.4,237.8,223.9,238.1,221.6,238.8z"/>
<path class="st135" d="M228.5,236.5c0.5-4.3,0.1-8.7,0-13c-0.1-5.2,0-10.3,0-15.5c2.1-1,4.3-0.7,6.5-0.2c0.8,0.8,0.7,1.9,0.6,2.9
	c-0.2,5.1-0.1,10.2,0,15.3c0,1.8,0,3.7,0.3,5.5C233.6,233.5,231.4,235.5,228.5,236.5z"/>
<path class="st136" d="M235.9,231.5c-0.6-0.3-0.9-0.7-0.9-1.4c0-4.4-0.3-8.8-0.2-13.2c0-3,0.1-6,0.2-9c0.5-0.5,1-0.4,1.5,0
	c1.3,0,2.6,0,3.9,0c0.9,1.1,0.9,2.5,0.9,3.9c0.2,4.5,0.1,8.9-0.2,13.4c-0.1,1.1,0.2,2.2,0,3.3c-0.2,0.8-0.8,1.1-1.6,1.1
	C238.4,230.3,237.1,230.9,235.9,231.5z"/>
<path class="st137" d="M239.7,229.6c0.4-0.2,0.8-0.5,1.2-0.7c0.8-1.3,2.3-1.2,3.5-1.6c0.9-0.3,1.9-0.4,2.8-0.6
	c2.2-0.2,4.4-0.2,6.6,0c0.6,0.1,1.2,0.1,1.3,0.9c-0.6,0-1.3,0.1-1.1,0.9c0.5,2.7-0.2,5.4,0,8.1c0,0.5,0.2,1,0.4,1.5
	c-4.3-1-7.8-3.5-11.2-6.2C242.1,230.8,240.7,230.5,239.7,229.6z"/>
<path class="st138" d="M171.2,230c-1.6-1-1.1-2.8-1-4.1c0.1-3.2,0.5-6.4,0.3-9.7c-0.2-2.7,0-5.5,0-8.2c1-0.9,2.3-0.4,3.5-0.6
	c2,0.1,4-0.2,6,0.2c0.9,0.4,1.1,1.3,1.1,2.1c-0.3,5.2,0.7,10.4,0.1,15.7c-0.1,0.6-0.1,1.3-0.6,1.8
	C177.2,227.8,174.2,228.6,171.2,230z"/>
<path class="st139" d="M180.4,227.2c0.1-3.1,0.6-6.3,0.1-9.3c-0.6-3.3,0.7-6.7-0.5-9.9c0.3-0.3,0.6-0.5,1-0.5c3.2,0,6.4-0.3,9.6,0.2
	c0.9,0.6,0.8,1.5,0.8,2.4c-0.1,3.6,0.3,7.1,0.5,10.6c0.1,2.1-0.8,4.1-0.7,6.2c0,0.9-0.8,1-1.6,0.7c-2-0.1-4-0.7-6.1-0.4
	C182.4,227.2,181.4,227.2,180.4,227.2z"/>
<path class="st140" d="M189.6,227.6c0.5,0,1.3-0.1,1.1-0.7c-0.8-2.5,0.9-4.6,0.5-7.1c-0.6-3.9-0.5-7.9-0.4-11.9
	c0.3-0.4,0.7-0.5,1.2-0.5c2.7,0,5.5-0.3,8.2,0.2c1.8,1.6,0.9,3.6,0.8,5.4c-0.1,2.6-0.3,5.1-0.1,7.8c0.3,3.4-0.4,6.8-0.4,10.3
	c0,0.5-0.3,1-0.9,1.2c-1.2-0.5-2.1-1.6-3.4-2C194.2,228.9,191.8,228.6,189.6,227.6z"/>
<path class="st141" d="M199.6,232.3c0.4-0.7,0.4-1.5,0.4-2.2c0.1-2.3-0.2-4.6,0.3-6.9c0.2-1.1,0-2.2-0.2-3.3
	c-0.4-2.3,0.1-4.6,0.3-6.8c0.2-1.6,0.5-3.3-0.1-5c2.7-1,5.4-0.7,8.1-0.2c0.7,0.8,0.7,1.8,0.6,2.7c-0.2,7.5,0.3,15,0.1,22.5
	c0,0.8,0.2,1.5,0.2,2.3c-0.1,0.9-0.1,1.9-1.3,1.9C204.7,236.4,202,234.6,199.6,232.3z"/>
<path class="st142" d="M208,237.3c0.7-0.5,1.1-1.3,0.8-2c-0.8-2.1-0.1-4.2-0.2-6.2c-0.3-5.1-0.1-10.2-0.1-15.3c0-1.9,0-3.8,0-5.8
	c1.9-1,3.8-0.5,5.8-0.4c0.2,0.1,0.4,0.2,0.5,0.4c0.4,0.7,0.4,1.5,0.4,2.2c0,7.6,0.4,15.2,0.2,22.8c-0.1,1.9,0.2,4-1.1,5.7
	c-1.6,0.1-3.1-0.6-4.6-0.7C209.1,237.8,208.5,237.5,208,237.3z"/>
<path class="st143" d="M214.2,238.7c0.8-4.3,0.7-8.8,0.7-13.1c-0.1-5.9-0.3-11.7-0.3-17.6c2.1-0.9,4.1-0.9,6.2,0
	c-0.5,3.8,0.1,7.6-0.2,11.4c-0.2,2.8,0.3,5.5-0.1,8.3c-0.5,3.7,0.4,7.3,0.3,11C218.6,239,216.4,239.1,214.2,238.7z"/>
<path class="st144" d="M255.1,227.6c-0.4-0.1-0.8-0.3-1.2-0.4c-1-0.5-1-1.4-1-2.3c0-5-0.2-10.1,0-15.1c0-0.7,0.1-1.3,0.6-1.8
	c2.1,0,4.1,0,6.2,0c-0.7,2.4-0.2,4.7,0,7.1c0.1,1.9-0.7,3.8-0.4,5.7c0.4,2.1,0.3,4.1,0,6.2c-0.1,0.6-0.2,1-0.9,1.1
	C257.3,228.1,256.2,227.4,255.1,227.6z"/>
<path class="st145" d="M60.7,112.6c1.5,1.7,3.1,3.4,4.3,5.4c-0.3,3.2-0.2,6.5-0.2,9.7c0,0.9,0,1.8-0.6,2.5c-1.1,0.8-1.9,0-2.8-0.4
	c-0.5-0.3-0.9-0.7-1.2-1.3c-0.4-0.7-0.4-1.5-0.4-2.2c0-3.8-0.1-7.7,0-11.5C59.8,114,59.5,112.9,60.7,112.6z"/>
<path class="st146" d="M63.8,130.4c0.9-3,0.2-6,0.4-9c0.1-1.2-0.3-2.4,0.8-3.4c0.3,0.3,0.5,0.5,0.8,0.8c1.1,2,2.8,3.6,3.7,5.8
	c-0.2,2,0,4.1-0.2,6.1c-0.1,0.8,0,1.7-0.6,2.4c-1.1,0.7-1.8-0.3-2.7-0.6C65.3,131.7,64.1,131.6,63.8,130.4z"/>
<path class="st147" d="M60.7,112.6c-0.6,5.4-0.6,10.8,0,16.1c-1.6,0.4-2.7-0.3-3.5-1.6c0.8-3.9-0.2-7.8,0.2-11.8
	c0.2-1.4-0.2-2.9-0.3-4.4c0-0.7-0.1-1.4,0.7-1.8C59,110.3,60.2,111.2,60.7,112.6z"/>
<path class="st148" d="M57.3,127.1c1.1,0.6,2.2,1.3,3.5,1.6c0.3,0.2,0.5,0.5,0.8,0.7c1.1,2.7,0.5,5.5,0.4,8.3
	c-0.2,0.4-0.5,0.9-0.9,0.6c-2.1-1.4-4.5-2.5-6-4.6c0.8-2.4,0.2-4.9,0.4-7.3C56,126.7,56.7,126.9,57.3,127.1z"/>
<path class="st149" d="M182.7,180.4c3.2,0,6.4-0.1,9.6-0.1c0.1,0,0.3,0.1,0.4,0.1c0.8,0.8,0.7,1.8,0.6,2.7c-0.1,2.1,0.5,4.2-0.5,6.2
	c-0.9,0.7-1.9,0.5-2.9,0.5c-2.2-0.1-4.4,0.3-6.6-0.3c-1.1-1-0.7-2.4-0.8-3.6C182.1,184,182.1,182.2,182.7,180.4z"/>
<path class="st150" d="M192.7,189.2c0-2.9,0-5.9,0-8.8c2.7,0,5.4,0,8.1,0c0.9,2.7,0.2,5.6,0.4,8.3c0,0.3-0.3,0.6-0.5,0.7
	c-1.6,0.5-3.2,0.2-4.8,0.3C194.7,189.6,193.6,190,192.7,189.2z"/>
<path class="st151" d="M218.5,180.4c0,2.9,0,5.9,0,8.8c-2.2,1-4.5,0.6-6.8,0.3c-1.2-1-0.9-2.4-1-3.7c-0.1-1.8-0.6-3.6,0.5-5.3
	C213.6,180.4,216,180.4,218.5,180.4z"/>
<path class="st152" d="M200.8,189.2c-0.1-2.4-0.2-4.9-0.3-7.3c0-0.5,0.2-1,0.3-1.5c1.8,0,3.6,0,5.4,0c0.4,0.4,0.6,0.9,0.6,1.4
	c0.1,2.1,0.1,4.2,0.3,6.3c0,0.5-0.1,0.9-0.4,1.2C204.7,189.9,202.7,190.1,200.8,189.2z"/>
<path class="st153" d="M206.6,189.2c-0.5-2.9-0.4-5.9-0.4-8.8c1.7,0,3.3,0,5,0c-0.1,2.9,0.1,5.9,0.4,8.8
	C209.9,190,208.2,190,206.6,189.2z"/>
<path class="st154" d="M182.7,180.4c0.1,2.9,0.3,5.9,0.4,8.8c-2.4,0.9-4.9,0.8-7.4,0.1c-0.8-3-1-5.9,0.1-8.9
	C178.1,180.4,180.4,180.4,182.7,180.4z"/>
<path class="st155" d="M175.8,180.4c0,2.9,0,5.9,0,8.8c-2,1-4,0.6-6.1,0.2c-1.3-2.3-1.1-7.3,0.3-9c0.6,0,1.3-0.1,1.9-0.1
	C173.2,180.3,174.5,180.3,175.8,180.4z"/>
<path class="st156" d="M151.9,136.1c0.4,0.6,0.8,1.3,1.2,1.9c2.2,2.8,4.3,5.6,5.7,8.9c0,5.2-0.4,10.3-0.3,15.5c0,4.3,0.2,8.7,0.1,13
	c0,1.7,0.2,3.4-0.5,5.1c-0.6,0.5-1.2,0.5-1.9,0.5c-0.9,0-1.8,0-2.6-0.1c-1-0.5-2.5-0.2-3-1.6c0.4-4.7,0.1-9.3,0.2-14
	c0.2-6.1-0.4-12.1,0.1-18.2c0.3-2.8-0.4-5.6-0.3-8.4C150.7,137.5,150.5,136.4,151.9,136.1z"/>
<path class="st157" d="M158.1,180.3c0-2.7,0-5.3,0-8c0-6.9-0.4-13.9,0.2-20.8c0.1-1.6,0-3.1,0.6-4.6c2,3.9,4.5,7.7,5.8,11.9
	c-0.3,1.3,0.1,2.5,0.1,3.8c0,2.7,0.3,5.5-0.2,8.2c-0.5,2.5,0.2,5.1,0,7.6c-0.1,0.8,0.1,1.7-0.7,2.3
	C161.8,181,159.9,181.4,158.1,180.3z"/>
<path class="st158" d="M158.1,180.3c1.9,0,3.8,0,5.8,0c1.9-0.9,3.9-0.9,5.8,0c0.1,0,0.2,0.1,0.4,0.1c-1,2.9-0.2,5.9-0.4,8.8
	c-1.8,1.1-3.9,0.3-5.8,0.6c-2.5-0.2-5.1,0.4-7.7-0.4c-0.7-0.7-0.8-1.6-0.8-2.5c0-2.2-0.2-4.4,0.8-6.5
	C156.8,180.3,157.4,180.3,158.1,180.3z"/>
<path class="st159" d="M169.6,180.3c-1.9,0-3.9,0-5.8,0c0.2-3.9-0.3-7.9,0.3-11.9c0.4-2.7,0-5.6-0.1-8.4c0-0.6,0-1,0.5-1.2
	c1.8,5.5,3.7,10.8,4.4,16.6C169.3,177,169.4,178.6,169.6,180.3z"/>
<path class="st5" d="M55,133.8c2.2,1.5,4.4,3.1,6.5,4.6c1-0.1,1.3,0.5,1.4,1.3c0.7,6.3,0,12.6,0.2,18.9c0.1,2.4-0.4,4.9,0.3,7.3
	c-0.3,1.7-1.5,2.5-3,3c-1.9,1.6-3.8,3.1-5.8,4.7c-0.6-0.5-0.6-1.2-0.6-1.9c-0.1-5.5-0.2-11-0.4-16.5c-0.1-4.2,0.1-8.4-0.2-12.6
	c-0.2-2.4-0.1-5,0.2-7.4c0.1-0.6,0.1-1.2,0.6-1.6C54.5,133.5,54.7,133.6,55,133.8z"/>
<path class="st20" d="M54.2,133.4c-0.5,13.4,0.2,26.7,0.4,40c-1.4,1.6-3.1,2.8-5,3.7c-0.1-2.1-0.3-4.1-0.4-6.2
	c-0.1-3.8,0.3-7.7,0-11.5c-0.3-4.6-0.3-9.2,0-13.7c0.3-5.2-0.3-10.3-0.1-15.4C50.9,131.3,52.5,132.4,54.2,133.4z"/>
<path class="st98" d="M151.9,136.1c-1.4,1.7-0.7,3.7-0.6,5.5c0.2,2.2,0.3,4.3,0,6.5c-0.3,2.3,0,4.6,0,6.9c0,1.9,0.3,4,0.1,5.9
	c-0.4,4.3,0.2,8.6,0.1,12.9c0,1.5-0.7,3-0.1,4.5c0.1,0.3-0.3,0.7-0.7,0.8c-2.5,0.2-4-1.3-5.2-3.2c0-2-1-3.8-0.4-5.8
	c0.8-1.6,0.5-3.4,0.6-5.1c0.1-4.5,0.4-9.1,0.1-13.6c-0.2-4.3-0.1-8.6-0.2-12.8c-0.1-2.5,0.1-5,0.3-7.5c0-0.7,0.1-1.3,1.1-1.3
	C148.4,132.1,150.5,133.8,151.9,136.1z"/>
<path class="st160" d="M136.9,119.9c1.1,0.9,2.3,1.8,3.4,2.7c1,1.1,2,2.3,3,3.4c0.5,6.6-0.3,13.1,0,19.7c0.1,4.1,0.2,8.3-0.1,12.4
	c0,0.6-0.1,1.3-0.6,1.8c-0.7,0.3-1.1-0.2-1.3-0.7c-1.6-4.1-3.5-8-5.5-11.8c-0.2-0.4-0.2-0.9-0.2-1.3c0.5-2.4,0.2-4.9,0.1-7.3
	c-0.1-5.5,0.5-11.1-0.2-16.6C135.5,121.2,135.4,120,136.9,119.9z"/>
<path class="st161" d="M142.3,159.9c0.8-1.6,0.5-3.4,0.5-5c-0.1-5.8,0.1-11.6,0-17.4c-0.1-3.3,0.9-6.6,0-9.8c-0.2-0.6,0-1.3,0.7-1.6
	c1.2,1.3,2.3,2.6,3.5,3.8c-1.1,1.3-0.6,3-0.6,4.4c-0.2,4.6-0.3,9.2,0,13.8c0.2,2.2,0.2,4.4,0.3,6.6c0.1,1.7-0.3,3.5-0.2,5.4
	c0.2,2.7-0.2,5.5-0.3,8.2c0,0.8,0.1,1.6-0.8,2c-0.6,0.1-0.8-0.4-0.9-0.8c-0.8-2.8-1.6-5.7-2.4-8.5C142,160.6,142,160.2,142.3,159.9z
	"/>
<path class="st162" d="M136.9,119.9c-1.1,0.5-0.9,1.5-0.8,2.4c0.6,4.5,0.2,9,0.1,13.5c-0.1,2.5-0.1,5,0.2,7.5
	c0.1,1.1-0.1,2.2-0.4,3.2c-0.6,0.2-1-0.3-1.2-0.7c-2-3.5-4.5-6.8-6.7-10.2c-0.1-0.3,0-0.6,0.1-0.9c1.1-2.5,0.3-5,0.5-7.5
	c0.3-3.7-0.3-7.5-0.1-11.2c0-0.8,0-1.7,0.9-2.1c0.4,0.3,0.8,0.5,1.1,0.8C132.9,116.2,135.3,117.7,136.9,119.9z"/>
<path class="st163" d="M129.6,113.7c-0.7,3-0.6,6.1,0,9.1c0.1,0.6,0.2,1.1-0.1,1.8c-0.7,1.9,0.3,3.9-0.1,5.7
	c-0.4,1.5,1.3,3.5-0.9,4.6c-0.2,0.1-0.4,0.1-0.5,0c-1.8-1.7-3.7-3.4-4.4-6c0.3-5.2,0-10.3,0.2-15.5c0-1.2-0.2-2.6,1.4-3.2
	C126.6,111.4,128.4,112.1,129.6,113.7z"/>
<path class="st164" d="M125,110.3c-0.8,0.9-0.8,2-0.8,3.1c0,4.4,0,8.8,0,13.2c0,1-0.1,2-0.4,3c-0.2,0.1-0.4,0.1-0.5,0
	c-1.7-1.9-3.9-3.3-5-5.8c-0.4-3.7,0.6-7.3,0.1-11c-0.2-2-0.6-4,0.3-6c0.5-0.6,1.1-0.5,1.7-0.3c0.3,0.3,0.5,0.5,0.8,0.8
	C122.2,108.6,124,108.9,125,110.3z"/>
<path class="st146" d="M120.4,106.4c-0.4,0.5-0.7-0.2-1.1-0.1c-1.7-0.3-2.9-1.5-4.3-2.3c-0.7-0.4-1.3-0.8-2-1.1
	c-0.5-0.3-1.2-0.6-1.1-1.4c0.8-1.6,0.3-3.3,0.4-5c0.1-0.7-0.1-1.5,0.7-2C115.6,98.4,118.2,102.3,120.4,106.4z"/>
<path class="st165" d="M80.8,142.2c0,0.1,0,0.2,0,0.4c0.4,0.6,0.6,1.3,0.6,2c-0.3,3.7,0,7.5-0.2,11.3c0,0.5-0.1,0.9-0.5,1.2
	c-0.4,0.2-0.8,0.2-1.3,0.1c-1.8-1.6-3.3-3.4-4.1-5.8c-0.2-3.5-0.1-7-0.1-10.5c0-0.7,0.1-1.4,0.6-2c0.9-0.7,1.5-0.1,2,0.6
	C78.5,140.7,79.7,141.4,80.8,142.2z"/>
<path class="st166" d="M77.7,139.5c-0.5-0.3-1-0.5-1.6-0.8c-1.9-0.6-3.2-2.2-4.9-3c-0.8-1-2.5-1.1-2.8-2.6c0.7-2.2,0.3-4.5,0.4-6.8
	c0-0.6-0.3-1.5,0.7-1.7c1.1,1.7,2.2,3.3,3.3,5c1.4,2.7,2.8,5.4,4.2,8.1C77.3,138.2,77.7,138.8,77.7,139.5z"/>
<path class="st167" d="M80.3,156.9c0.6-1.6,0.4-3.4,0.3-4.9c-0.3-3.2,0.4-6.3,0.1-9.4c2.3,1.7,4.4,3.6,6.1,5.8
	c0.4,2.6,0.2,5.3-0.2,7.9c-0.1,0.9-0.1,1.8-1.3,2.1c-1.5,0-2.8-0.5-4.3-0.7C80.8,157.6,80.3,157.4,80.3,156.9z"/>
<path class="st168" d="M85.4,158c0.4-0.1,0.8-0.3,0.7-0.7c-0.2-2.5,0.9-4.9,0.2-7.4c-0.2-0.6,0.1-1.1,0.5-1.5
	c0.1,0.1,0.3,0.2,0.4,0.4c1.7,2,3.5,4,4.9,6.2c-0.2,1.6-0.1,3.1-0.2,4.7c0,0.8,0,1.7-0.9,2.1c-1,0.2-1.8-0.4-2.5-1
	C87.8,159.5,86,159.5,85.4,158z"/>
<path class="st20" d="M95,105.3c1.5,1,3.1,2.1,4.6,3.1c1.1,2.2,1.3,4.6,0.9,6.9c-0.7,4.8,0,9.6,0.2,14.3c0.2,2.6-0.1,5.1-0.1,7.6
	c-0.2,7.6,0.3,15.2,0.4,22.8c0,2-0.1,4-0.1,5.9c0,0.8-0.1,1.5-0.9,2c-0.9,0.2-1.1-0.4-1.4-1c-1.5-3.2-3.1-6.3-5-9.2
	c-0.3-0.5-0.8-1.1-0.3-1.7c0.5-0.8,0.4-1.6,0.4-2.4c0-4.2-0.1-8.3,0-12.5c0.1-4.2,0.5-8.5,0.3-12.7c-0.3-6.8-0.6-13.6-0.8-20.4
	c0-1.3-0.4-2.6-0.3-4C93.7,104.5,94.3,104.9,95,105.3z"/>
<path class="st169" d="M93.4,156.1c1.4,2.8,3.3,5.3,4.5,8.2c0.5,1.2,1.1,2.4,1.7,3.7c0.5,0.3,0.7,0.6,0.4,1.2
	c-0.6,0.3-1.1,0-1.6-0.4c-2.6-1.9-4.9-4.1-7.3-6.1c-0.3-0.3-0.6-0.7-0.5-1.2c0.9-0.1,0.8-0.8,0.8-1.4c0-1.2,0-2.4,0-3.6
	c0-0.6-0.2-1.3,0.7-1.5C92.6,155.3,93,155.7,93.4,156.1z"/>
<path class="st170" d="M61.1,201.9c5,0,10,0,15,0c1.2,1.9,1,3.8,0,5.8c-5,0-10,0-15,0C61.1,205.7,61.1,203.8,61.1,201.9z"/>
<path class="st171" d="M76.1,207.6c0.1-1.9,0.3-3.8,0-5.8c4.5,0,9,0,13.5,0c1,2,0.4,3.9-0.3,5.8c-0.3,0.2-0.6,0.2-0.9,0
	C84.3,207.6,80.2,207.6,76.1,207.6z"/>
<path class="st172" d="M88.4,207.6c0.3,0,0.5,0,0.8,0c0.6-0.5,1.2-0.6,2-0.6c3.7,0,7.4-0.1,11.1,0.1c4.6-0.1,9.2-0.1,13.8,0
	c4.3-0.1,8.5-0.1,12.8,0c0.5,0.1,1,0.1,1.4,0.4c0.2,0.2,0.3,0.4,0.2,0.6c-2.3,0-4.6,0-6.9,0c-3.7,0-7.4,0-11.2,0c-2.7,0-5.4,0-8.1,0
	c-3.5,0-6.9,0-10.4,0c-1.8,0-3.6,0-5.4,0C88.4,207.9,88.4,207.8,88.4,207.6z"/>
<path class="st173" d="M248.1,189.5c1.8,0,3.6,0,5.4,0c0.6,4.4-0.3,8.7,0,13.1c-1.1-0.4-2.3-0.8-3.5-0.8c-0.8-0.2-1.8,0.5-2.5-0.5
	c-0.1-3.4-0.6-6.8-0.3-10.3C247.2,190.4,247.5,189.9,248.1,189.5z"/>
<path class="st174" d="M247.7,201.5c0.8,0.1,1.6-0.3,2.3,0.4c-0.1,0-0.3,0-0.4,0c-2.1,1.2-4.3,0.5-6.5,0.6c-1.7,0.1-3.4,0.1-5-0.1
	c-1.6-0.5-3.3-0.2-5-0.3c-0.8,0-1.7,0.1-2.4-0.4c-1-0.9-1-2.2-0.9-3.4c0.2-2.6,0.5-5.1,0.2-7.7c0-0.4,0.1-0.8,0.4-1.1
	c2.9,0,5.9,0,8.8,0c1,1,1,2.2,0.9,3.4c-0.2,1.9-0.1,3.8-0.1,5.7c0,1.8,0.4,2.1,2.3,2.3C244.1,201.1,246,200.4,247.7,201.5z"/>
<path class="st175" d="M243.1,201.9c2.2,0,4.4,0,6.5,0c-0.4,1.9-0.7,3.8,0,5.8c-2.2,0-4.4,0-6.5,0
	C242.1,205.7,242.1,203.8,243.1,201.9z"/>
<path class="st176" d="M246.9,227.3c-2,0.6-4.1,1.1-6.1,1.7c-0.6-3.8,0-7.6,0-11.4c0-3.2-0.1-6.3-0.4-9.5c2.2,0,4.4,0,6.5,0
	c1.2,0.7,1,2,0.9,3.1c-0.3,4.6-0.4,9.3-0.1,13.9C247.9,225.9,247.7,226.7,246.9,227.3z"/>
<path class="st177" d="M246.9,227.3c0.9-1.6,0.1-3.3,0-4.9c-0.1-2.5,0.5-4.9,0.1-7.4c-0.3-1.5,0.2-3.2,0.3-4.7
	c0.1-0.8,0.1-1.5-0.4-2.2c2.2,0,4.4,0,6.5,0c0,5.7,0,11.3,0,17c0,0.8-0.1,1.5,0.4,2.2C251.6,227.2,249.2,227.2,246.9,227.3z"/>
<path class="st178" d="M243.1,201.9c0,1.9,0,3.8,0,5.8c-2.2,0-4.4,0-6.5,0c-0.2,0.1-0.5,0.1-0.6-0.2c-0.6-1.9-0.7-3.7,0.1-5.6
	c0.7-0.3,1.4-0.3,2.1,0C239.8,201.9,241.4,201.9,243.1,201.9z"/>
<path class="st179" d="M236.2,207.6c0.1,0,0.3,0,0.4,0c0,0.1,0,0.3,0,0.4c-0.5,0-1,0-1.5,0c-2.2,0-4.4,0-6.5,0c-2.6,0-5.1,0-7.7,0
	c-2.1,0-4.1,0-6.2,0c0,0,0,0,0,0c-0.1-0.2-0.1-0.4,0.1-0.6c0.2-0.1,0.4-0.2,0.6-0.3c2.1-0.2,4.2-0.1,6.2-0.1c2-0.1,4.1-0.1,6.1,0
	c2.1-0.1,4.2-0.1,6.3-0.1C234.8,207,235.6,207.1,236.2,207.6z"/>
<path class="st180" d="M247.7,201.5c-1.8,0-3.6,0-5.4,0c-2.7,0-3.1-0.6-3-3.3c0-2.9,0.7-5.8-0.1-8.7c1.9,0,3.8,0,5.8,0
	c1,0,2.1,0,3.1,0c-0.8,2-0.5,4.1-0.3,6.1C248,197.6,248,199.5,247.7,201.5z"/>
<path class="st181" d="M230.4,189.5c0.5,2.5,0.6,5,0.1,7.6c-0.3,1.4-0.2,2.9,0.3,4.3c-2.5,1-5.1,0.7-7.7,0.2
	c-0.5-0.5-0.7-1.1-0.5-1.8c0.5-2.6,0.1-5.1-0.1-7.6c0-0.9-0.1-1.9,0.5-2.7c1.8-0.2,3.6-0.3,5.4,0
	C229.1,189.5,229.8,189.5,230.4,189.5z"/>
<path class="st182" d="M228.5,189.5c-1.8,0-3.6,0-5.4,0c-1.4,1.1-3.1,0.5-4.6,0.6c-0.8,0.1-1.5-0.1-2.3,0c-3.1,0.1-6.1,0.1-9.2,0
	c-3.2,0.1-6.5,0.1-9.7,0c-0.5,0-0.9-0.1-1.4-0.3c-0.2-0.2-0.3-0.4-0.1-0.6c1.7,0,3.3,0,5,0c1.9,0,3.8,0,5.8,0c1.7,0,3.3,0,5,0
	c2.3,0,4.6,0,6.9,0c2.8,0,5.6,0,8.5,0c0.5,0,1,0,1.5,0C228.5,189.3,228.5,189.4,228.5,189.5z"/>
<path class="st183" d="M111.9,101.6c0.4,0.3,0.8,0.6,1.2,1c0.2,5,0.7,10.1-0.4,15c-0.5,0.8-1.1,0.5-1.6,0.1c-1.7-1.6-3.8-2.6-5-4.7
	c1-2.7,0.3-5.5,0.4-8.2c0.1-2,0-3.9,0-5.9c0.5,0.2,1,0.4,1.5,0.7C109.3,100.3,110.5,101,111.9,101.6z"/>
<path class="st5" d="M106.1,113c1.7,1.4,3.3,2.8,5,4.2c0.9,1.5,1.3,3.1,1.3,5c0,1.9,0.2,3.9,0,5.9c-0.2,2.4,0,4.8,0.3,6.9
	c0.4,2.7-0.3,5.3,0.2,7.9c0.5,2.8,0.5,5.7,0.9,8.6c0.2,1.1,0.1,2.3,0,3.4c-0.2,1.4-1,2.8-0.3,4.3c0.2,0.4-0.2,0.8-0.4,1.2
	c-0.6,1.1-0.5,2.3-0.5,3.5c0.1,2.5,0.6,5.3-1.9,7.2c-2.8,1-5.7,0.7-8.5-0.2c-0.8-0.5-2.2-0.4-2.4-1.8c-0.1-0.4-0.2-0.8-0.4-1.2
	c0.7-0.3,0.7-1,0.7-1.6c0-5.3,0-10.5-0.2-15.8c-0.1-2.8-0.7-5.7,0.1-8.7c0.3-1.3-0.2-2.7-0.1-4.1c0.2-4.9,0.2-9.9-0.4-14.8
	c-0.3-2.4-0.2-4.9,0.2-7.4c0.3-1.3,0.1-2.8-0.1-4.2c-0.2-1-0.2-2-0.3-3c0.4,0.3,0.8,0.5,1.2,0.8C102.6,110.4,104.3,111.7,106.1,113z
	"/>
<path class="st184" d="M85.4,158c1.2,0.8,2.6,1.1,3.5,2.3c0.3,0.5,0.3,1,0.3,1.5c0.1,8.2-0.2,16.4-0.1,24.7c0,0.9,0.1,1.9-0.6,2.7
	c-4.5,0-9,0-13.5,0c-0.4-0.4-0.8-0.7-0.8-1.3c0.1-2.6-0.5-5.2-0.4-7.8c0.3-5.9,0.8-11.9,0.3-17.8c-0.1-1.4-0.2-2.8,0.1-4.2
	c1.4-1.7,3.2-1.5,5-1.1c0.4,0,0.7,0,1.1-0.1C82,157.2,83.7,157.6,85.4,158z"/>
<path class="st185" d="M88.4,189.2c-0.1-5.5-0.4-11.1,0-16.6c0.2-3.4-0.3-6.7,0.1-10c0.1-0.8,0.3-1.5,0.4-2.2
	c0.6,0.4,1.2,0.8,1.9,1.2c3,2.7,5.8,5.6,9.3,7.7c0.6,0.7,1.6,0.7,2.3,1.2c0.8,1.6,0.7,3.3,0.4,4.9c-0.8,5.3-0.4,10.6-0.1,15.9
	c0.3,5.2-0.1,10.3,0.1,15.5c0,0.4-0.1,0.8-0.4,1.1c-4.4,0-8.7,0-13.1,0c0.1-1.9,0.3-3.8,0.4-5.8c2-0.2,4.1,0.4,6.2-0.4
	c0.7-0.8,1.8-0.9,2.6-1.5c1.6-1.1,2.6-2.6,2.6-4.6c-0.1-2.1-1.1-3.6-3.1-4.5c-0.7-0.3-1.5-0.5-1.7-1.3
	C93.6,188.7,91,189.4,88.4,189.2z"/>
<path class="st170" d="M74.6,158c0.1,4.8,0.5,9.7,0.2,14.5c-0.2,2.8-0.2,5.6-0.5,8.4c-0.3,2.7,0.4,5.5,0.6,8.3c-4.7,0-9.5,0-14.2,0
	c0-1.7,0-3.4,0-5.2c0-0.3,0.1-0.6,0-0.8c-1-2.2-0.3-4.4-0.1-6.6c0.2-2.4,0-4.7,0-7c0-0.3,0-0.6-0.3-0.8c0.9-0.9,1.8-1.7,2.7-2.6
	c1-1.7,2.6-2.7,4.1-3.9c1.6-1.4,3.2-2.9,5.1-3.9C73,158,73.7,157.4,74.6,158z"/>
<path class="st186" d="M86.5,201.5c-7.4,0-14.9,0-22.3,0c-1,0-1.6,0.1-1.8-1.4c-0.2-2.9,0-5.8-0.1-8.7c-0.1-1.2,0.6-1.9,2.1-1.8
	c7.4,0.1,14.7,0,22.1,0c0.1,0.2,0.1-0.1,0.1,0.2c0.4,3.8,0.8,7.5,0.2,11.3C86.8,201.2,86.6,201.3,86.5,201.5z"/>
<path class="st187" d="M86.5,201.5c0.2-4-0.4-7.9,0-11.9c2.7,0,5.4,0,8.1,0c1,1.3,0.7,2.8,0.7,4.2c0,2.6,0.3,5.2-0.7,7.7
	C91.9,201.5,89.2,201.5,86.5,201.5z"/>
<path class="st154" d="M94.6,201.5c0-4,0-7.9,0-11.9c0.5,0,1,0,1.5,0c1.7,0.9,3.7,1.3,4.7,3.3c1.8,3.7-0.5,7.9-5.1,8.6
	C95.4,201.5,95,201.5,94.6,201.5z"/>
<path class="st188" d="M130.4,208c0-0.1,0-0.2,0-0.4c0.5-0.6,1.2-0.6,1.9-0.6c5.1,0,10.2-0.1,15.3,0c7-0.1,14-0.1,21,0
	c1.7,0,3.4-0.3,5,0.3c0.2,0.2,0.3,0.4,0.2,0.6c-1.2,0-2.3,0-3.5,0c-2.7,0-5.4,0-8.1,0c-3.6,0-7.2,0-10.8,0c-3.3,0-6.7,0-10,0
	c-3.3,0-6.7,0-10,0C131.1,208,130.8,208,130.4,208z"/>
<path class="st189" d="M173.8,208c0-0.1,0-0.2,0-0.4c0.9-0.9,2.1-0.6,3.2-0.6c3.3-0.1,6.6-0.1,9.9,0c2.9-0.1,5.9-0.1,8.8,0
	c3-0.1,5.9-0.1,8.9,0c2.7-0.2,5.4-0.1,8,0c0.7,0,1.4,0,1.9,0.6c0,0.1,0,0.3,0,0.4c-2.1,0-4.1,0-6.2,0c-2.7,0-5.4,0-8.1,0
	c-3.2,0-6.4,0-9.6,0c-3.6,0-7.2,0-10.8,0C178,208,175.9,208,173.8,208z"/>
<path class="st23" d="M62.7,139.5c-0.3-0.5-0.7-0.9-1.2-1.2c0-3,0-5.9,0-8.9c0.8,0.3,1.5,0.6,2.3,0.9c0.8,0.5,1.6,1,2.3,1.5
	c0.9,3.2,1.1,6.3,0.4,9.6c-0.5,0.8-1.1,0.4-1.6,0.1C64,141,63.2,140.5,62.7,139.5z"/>
<path class="st190" d="M66.1,141.8c0.6-3.3-0.3-6.6,0-9.9c0.8,0.4,1.5,0.8,2.3,1.2c1,0.8,2.1,1.5,3.1,2.3c0.3,3.6,0.6,7.3-0.4,10.8
	c-0.2,0.3-0.5,0.5-0.8,0.3C68.6,145.2,66.7,144.1,66.1,141.8z"/>
<path class="st191" d="M195.8,189.2c0,0.1,0,0.3,0,0.4c-1,0.9-2.1,0.6-3.3,0.6c-1.5,0-2.9,0.1-4.4-0.1c-2.2,0.1-4.4,0.1-6.6,0
	c-2.2,0.1-4.4,0.1-6.5,0c-2.3,0.1-4.5,0.1-6.8,0c-1.4,0-2.8,0.3-4.2-0.3c-0.2-0.2-0.3-0.4-0.2-0.6c1.9,0,3.8,0,5.8,0
	c2.1,0,4.1,0,6.2,0c2.4,0,4.9,0,7.3,0c3.2,0,6.4,0,9.6,0C193.7,189.2,194.8,189.2,195.8,189.2z"/>
<path class="st192" d="M156.2,180.4c0.1,2.9-0.4,5.9,0,8.8c-0.4,0.4-0.9,0.5-1.4,0.5c-3.6,0-7.1,0.1-10.7,0c-0.3,0-0.6-0.1-0.9-0.3
	c-0.3-0.2-0.5-0.5-0.5-0.8c0.2-2.8-0.1-5.6,0.3-8.3c0.4-0.4,0.9-0.5,1.4-0.5c3.1-0.2,6.1-0.1,9.1,0.5
	C154.3,180.3,155.2,180.3,156.2,180.4z"/>
<path class="st193" d="M153.4,180.3c-3.1,0-6.1,0-9.2,0c-1-2-0.9-3.6,0.4-4.8c0.5-0.1,0.9,0.1,1.2,0.6c1.5,1.3,3,2.6,5,3.1
	C151.5,179.9,152.7,179.6,153.4,180.3z"/>
<path class="st194" d="M143.1,189.2c4.4,0,8.7,0,13.1,0c2.6,0,5.1,0,7.7,0c0,0.1,0,0.3,0,0.4c-0.9,0.9-2.1,0.6-3.1,0.6
	c-2.7,0.1-5.3,0.1-8,0c-2.8,0.1-5.6,0.1-8.4,0c-2.9,0.1-5.9,0.2-8.8-0.1c-0.4-0.1-0.7-0.2-0.9-0.6c0.1-0.3,0.2-0.5,0.4-0.6
	C137.7,188.4,140.4,188,143.1,189.2z"/>
<path class="st1" d="M66.1,141.8c1.4,1.7,2.9,3.2,4.6,4.6c0.3-0.2,0.7-0.1,0.9,0.2c1.4,1.7,3.3,3,4.1,5.2c1.2,1.7,2.3,3.4,3.5,5.1
	c-1.5,0.6-3.3,0-4.7,1.1c-2.9,0.5-4.7,2.7-6.8,4.3c-1.6,1.2-3,2.8-4.7,3.8c-1.4-2.2-0.3-4.6-0.6-6.9c-0.4-3,0-6.1,0.2-9.1
	c0.1-1.7,0.1-3.3-0.2-5c-0.3-1.7-0.3-3.8,0.2-5.7C64.1,139.9,64.9,141.3,66.1,141.8z"/>
<path class="st0" d="M145.8,176.1c-0.2-0.1-0.5-0.3-0.7-0.4c-1.6-0.8-2.9-2-4.2-3.1c-1.1-1-2.2-1.9-3.4-2.8c-1.1-1.3-2.5-2.1-4-3
	c-1.3-0.7-2.7-1.2-4.1-1.5c-1.3-0.3-2.6,0.2-3.8-0.6c-0.3-0.3-0.2-0.7,0.2-0.8c2.1-0.6,2.4-2.3,2.1-4c-0.6-3.4,0.2-6.9-0.4-10.3
	c-0.1-0.3-0.1-0.7,0.2-0.9c1.4-1.3,1-2.9,0.7-4.5c-0.5-2.3-0.3-4.7-0.4-7.1c0-0.6,0-1.2,0.5-1.6c2.8,2.8,4.6,6.2,6.6,9.5
	c0.3,0.5,0.5,1.1,1,1.3c0.5,2.1,2,3.7,2.8,5.6c1,2.7,2.3,5.2,3.4,7.8c1,3.5,2,6.9,3.1,10.4c0.2,1.4,0.4,2.9,0.6,4.3
	C146.1,175.2,146.3,175.7,145.8,176.1z"/>
<path class="st1" d="M128.5,135.7c0.1,3.4-0.1,6.8,0.7,10.2c0.2,1,0.6,2.4-1,2.9c-0.1,0-0.3,0.3-0.3,0.4c0.6,1.6,0.5,3.2,0.2,4.8
	c-0.6,2.9,1,5.8-0.1,8.9c-0.6,1.8-2,0.6-2.6,1.5c-0.1,0.1-0.1,0.2-0.1,0.2c-0.7,0.5-1.6,0.6-2.4,0.7c-1.1,0.1-2,0.6-3,1.1
	c-1.8,0.8-3,2.3-4.7,3.2c-1.4,0.7-2.6,2-4.3,1c1.7-2.1,1.7-4.5,1.2-7c-0.3-1.3,0-2.5,0.8-3.6c0.2-0.3,0.7-0.8,0.5-0.9
	c-2-1.1-0.2-2.4-0.1-3.4c0.5-3.7-0.1-7.4-0.6-11c-0.2-1.9-0.8-3.7,0.2-5.6c0.1-0.2,0.2-0.4,0.2-0.5c-0.9-1.8-0.5-3.8-0.8-5.6
	c-0.4-2.7-0.1-5.2,0-7.8c0-0.5,0.1-1-0.2-1.5c-0.2-0.3-0.5-0.7-0.4-0.8c1.1-2-0.3-3.7-0.5-5.6c0.4,0.3,0.8,0.5,1.2,0.8
	c2.9,1.3,4.7,3.7,6.5,6.2c1.7,1.8,3.3,3.6,5,5.4c1.6,1.8,2.7,3.9,4.6,5.4C128.4,135.2,128.5,135.4,128.5,135.7z"/>
<path class="st57" d="M118.8,124.1c-2.2-2.1-4.4-4.1-6.5-6.2c0.7-4.3,0.3-8.7,0.4-13.1c0-0.8,0-1.7,0.4-2.4c2.2,1.1,4.2,2.3,6.2,3.8
	c-0.5,0.8-0.5,1.7-0.4,2.6C119.3,114,119,119.1,118.8,124.1z"/>
<path class="st195" d="M75.8,151.8c-1.7-1.8-3.3-3.6-5-5.4c0.4-3,0.4-5.9,0.4-8.9c0-0.8-0.1-1.5,0.4-2.2c1.6,1,3.3,2.1,4.6,3.4
	c-0.6,1.1-0.4,2.2-0.4,3.4C75.7,145.4,75.8,148.6,75.8,151.8z"/>
<path class="st196" d="M110.8,170.7c1.6,0.1,2.9-0.7,4.2-1.5c0.6,0.3,1,0.9,1.2,1.6c0.2,2.2,0.2,4.5,0.2,6.7
	c0,9.6,0.1,19.1,0.1,28.7c0,0.5,0,1-0.3,1.5c-4.6,0-9.2,0-13.8,0c-0.2-3.1-0.3-6.1-0.1-9.2c0.2-4.3-0.2-8.6-0.6-12.9
	c-0.2-3.2,0-6.3,0.5-9.5c0.3-1.9-0.3-3.8,0.2-5.6C105.1,171.2,107.9,171.5,110.8,170.7z"/>
<path class="st197" d="M116.1,207.6c-0.7-2.4-0.3-4.9-0.4-7.4c-0.1-5.2,0-10.4,0-15.6c0-4.8,0-9.5,0-14.3c0.8-0.5,1.3,0.1,1.8,0.6
	c0.8,0.7,1.4,1.5,2.3,2.1c1,0.7,1.7,1.7,2.8,2.4c1.1,0.8,1.9,1.8,3.1,2.3c1.1,0.8,2.4,1.2,3.7,1.6c0.4,0.2,0.7,0.4,0.9,0.7
	c1.3,3.8,0.6,7.6,0.2,11.4c-0.1,0.6-0.3,1.1-0.6,1.6c-0.9,1.6-0.9,3.3-0.1,4.9c0.3,0.6,0.5,1.2,0.5,1.8c-0.1,1.8-0.2,3.6-0.1,5.4
	c0.1,0.9,0.1,2-0.9,2.5C124.9,207.6,120.5,207.6,116.1,207.6z"/>
<path class="st198" d="M129.2,207.6c0.9-2.1,0-4.2,0.4-6.3c0.1-0.6-0.2-1.3,0.4-1.8c0.8-0.3,1.4,0.1,2,0.5c1.7,1.1,3.5,1.4,5.5,1.3
	c2.7-0.1,5.4,0,8.1,0c0.8,0,1.7-0.1,2.4,0.6c0.6,1.9,0.8,3.9-0.2,5.7c-5.8,0-11.5,0-17.3,0C130,207.6,129.6,207.6,129.2,207.6z"/>
<path class="st199" d="M223.1,201.5c2.6,0,5.1,0,7.7,0c2.4,0.2,4.9-0.4,7.3,0.4c-0.6,0-1.3,0-1.9,0c-1.1,0.9-2.4,0.6-3.7,0.6
	c-1.5,0-2.9,0.1-4.4-0.1c-2.2,0.1-4.4,0.1-6.6,0c-2.3,0.1-4.6,0.1-6.9,0c-3.2,0.1-6.3,0.1-9.5,0c-1.2,0-2.4,0.3-3.6-0.4
	c-0.2-0.2-0.2-0.4,0-0.7c1.7-0.9,3.6-0.4,5.4-0.4c3.2-0.1,6.4-0.1,9.5,0C218.7,201,221,200.2,223.1,201.5z"/>
<path class="st200" d="M228.1,201.9c2.7,0,5.4,0,8.1,0c0,1.9,0,3.8,0,5.8c-2.8,0-5.6,0-8.5,0C226.6,205.6,227.3,203.7,228.1,201.9z"
	/>
<path class="st201" d="M205,201.9c3.2,0,6.4,0,9.6,0c1,1.9,0.8,3.8,0.4,5.8c-0.1,0-0.3,0-0.4,0c-3.3,0-6.7,0-10,0
	C203.6,205.6,203.7,203.7,205,201.9z"/>
<path class="st191" d="M215,207.6c-0.6-1.9-0.3-3.8-0.4-5.8c2.3,0,4.6,0,6.9,0c1,1.9,0.7,3.8,0,5.8
	C219.4,207.6,217.2,207.6,215,207.6z"/>
<path class="st202" d="M221.6,207.6c0-1.9,0-3.8,0-5.8c2.2,0,4.4,0,6.5,0c0.2,1.9-0.6,3.8-0.4,5.8
	C225.7,207.6,223.6,207.6,221.6,207.6z"/>
<path class="st203" d="M223.1,201.5c-2.2,0-4.4,0-6.5,0c-1.4-2.5-0.7-5.3-0.7-8c0-1.3-0.2-2.7,0.3-3.9c2.3,0,4.6,0,6.9,0
	C223,193.5,223.8,197.5,223.1,201.5z"/>
<path class="st204" d="M206.9,201.5c-1.8,0-3.6,0-5.4,0c-1.5,0.9-3,0.7-4.5,0.2c-0.8-1-0.5-2.2-0.5-3.3c0.1-2.6,0.2-5.2,0.1-7.8
	c0-0.4,0.1-0.8,0.3-1.1c3.3,0,6.7,0,10,0c0.5,0.5,0.6,1.1,0.6,1.8c0.2,2.8,0,5.6,0,8.4C207.5,200.4,207.4,201,206.9,201.5z"/>
<path class="st193" d="M206.9,201.5c0-4,0-7.9,0-11.9c3.1,0,6.2,0,9.2,0c0.1,0.3,0.3,0.6,0.3,0.9c-0.1,3.7-0.3,7.4,0.1,11
	C213.3,201.5,210.1,201.5,206.9,201.5z"/>
<path class="st205" d="M196.9,189.5c0.7,2.5,0.5,5.1,0.3,7.6c-0.1,1.4,0.3,2.9-0.3,4.3c-0.8,0.8-1.8,0.6-2.7,0.5
	c-1.8,0-3.7,0.2-5.5-0.2c-1-0.7-1.1-1.8-1-2.9c0.4-2.4,0.1-4.8-0.1-7.2c0-0.8-0.2-1.5,0.4-2.2c2.6,0,5.1,0,7.7,0
	C196.2,189.5,196.5,189.5,196.9,189.5z"/>
<path class="st186" d="M147.7,207.6c0-1.9,0-3.8,0-5.8c0.5-0.6,1.3-0.5,2-0.5c5.8,0,11.6,0,17.4,0c0.6,0,1.3,0,1.8,0.4
	c0.9,2,1,4,0,5.9C161.8,207.6,154.7,207.6,147.7,207.6z"/>
<path class="st155" d="M168.8,207.6c0-1.9,0-3.8,0-5.8c1.1-0.9,2.4-0.5,3.6-0.5c1.3,0,2.7-0.1,4,0.1c0.2,0.1,0.5,0.2,0.6,0.4
	c0.7,1.9,0.9,3.9-0.2,5.8c-1,0-2,0-3.1,0C172.2,207.6,170.5,207.6,168.8,207.6z"/>
<path class="st188" d="M176.9,207.6c0-1.9,0-3.8,0-5.8c0.2-0.3,0.5-0.4,0.8-0.5c3-0.1,6-0.4,9,0.2c0.7,2,1.3,4,0.2,6
	C183.6,207.6,180.3,207.6,176.9,207.6z"/>
<path class="st206" d="M186.9,207.6c0.4-1.9-0.9-3.8,0-5.8c0.6-0.7,1.3-0.2,2-0.2c2.2,0,4.5,0,6.7,0c1.3,1.9,1.4,4.3,0.2,5.9
	C192.8,207.6,189.9,207.6,186.9,207.6z"/>
<path class="st207" d="M195.8,207.6c0.9-1.9-0.3-3.8,0-5.8c1.9-0.3,3.9-0.3,5.8,0c1.2,0,2.3,0,3.5,0c-0.5,1.9-0.4,3.8-0.4,5.8
	C201.7,207.6,198.7,207.6,195.8,207.6z"/>
<path class="st112" d="M160.8,189.5c1,0,2,0,3.1,0c1.4,0,2.8,0,4.2,0c1.1,1.7,0.7,3.7,0.8,5.5c0.1,2.1,0.4,4.4-0.4,6.5
	c-2.7,0.2-5.3,0.1-8,0c-0.7-0.5-0.8-1.3-0.7-2.1c0-2.5,0-5.1,0.1-7.6C159.8,191,160.1,190.2,160.8,189.5z"/>
<path class="st199" d="M188.1,189.5c0.6,4,0.2,8,0.4,11.9c-2.4,0.4-4.8,0.1-7.2,0.1c-0.9-1.3-0.4-2.7-0.4-4.1
	c-0.1-2.1,0.1-4.3,0.2-6.4c0-0.6,0.2-1.1,0.6-1.6C183.7,189.5,185.9,189.5,188.1,189.5z"/>
<path class="st208" d="M168.5,201.5c-0.1-4-0.3-7.9-0.4-11.9c2.3,0,4.6,0,6.9,0c0.3,0.3,0.5,0.7,0.5,1.2c0.1,3.2,0.2,6.3,0.1,9.5
	c0,0.5-0.2,1-0.6,1.4C172.8,201.7,170.6,201.8,168.5,201.5z"/>
<path class="st59" d="M175,201.5c0-4,0-7.9,0-11.9c2.2,0,4.4,0,6.5,0c0,3.2,0,6.5,0,9.7c0,0.7-0.2,1.5-0.4,2.2
	c-1.5,0.4-3,0.1-4.5,0.2C176.1,201.6,175.5,201.8,175,201.5z"/>
<path class="st119" d="M130,191.5c0.3-3.8,0.7-7.7,0-11.5c1.1-0.8,2.4-0.1,3.6-0.2c1.2,0,2.5-0.1,3.7,0c1.2-0.1,2.3,0,3.5,0
	c0.8,0,1.7-0.1,2.3,0.6c0.7,2.9,0.3,5.9,0,8.8c-2.2,0-4.5,0-6.7,0c-0.6,0-1.3-0.2-1.8,0.4C133.1,190.2,131.8,191.5,130,191.5z"/>
<path class="st209" d="M143.1,180.3c-0.8,0-1.5,0-2.3-0.1c-0.5-0.4-0.8-0.8-0.8-1.4c0-1.9,0.2-3.8,0.1-5.7c0-0.5,0.3-1,1-0.9
	c1.4,1,2.9,2,4,3.4c-1.1,0.2-0.8,1.1-0.8,1.8c0,0.9,0,1.9,0,2.8C143.8,180.3,143.5,180.3,143.1,180.3z"/>
<path class="st151" d="M135.4,189.5c2.9,0,5.9,0,8.8,0c1.2,1.3,0.8,2.9,0.9,4.4c0.1,1.9-0.3,3.8-0.3,5.7c0,0.8-0.2,1.7-1.1,2.1
	c-2.4,0-4.7,0-7.1,0c-1,0-1.6-0.3-1.7-1.3c-0.2-3-0.1-6-0.3-9C134.4,190.7,134.8,190,135.4,189.5z"/>
<path class="st210" d="M143.8,201.5c0.7-4,1-7.9,0.4-11.9c2.8,0,5.6,0,8.5,0c0.1,0.1,0.2,0.2,0.2,0.3c0.6,3.9,0.8,7.8-0.1,11.6
	C149.8,201.8,146.8,201.8,143.8,201.5z"/>
<path class="st211" d="M152.7,201.5c0-4,0-7.9,0-11.9c2.7,0,5.4,0,8.1,0c-0.7,4-0.3,7.9-0.4,11.9
	C157.8,201.8,155.3,201.8,152.7,201.5z"/>
<path class="st153" d="M152.7,201.5c2.6,0,5.1,0,7.7,0c2.7,0,5.4,0,8.1,0c2.2,0,4.4,0,6.5,0c0.5,0,1,0,1.5,0
	c0.1,0.1,0.2,0.2,0.1,0.2c0,0.1-0.1,0.1-0.1,0.1c-2.6,0-5.1,0-7.7,0c-7.1,0-14.1,0-21.2,0c-3.2,0-6.4-0.2-9.6,0
	c-3.1,0.2-5.6-0.7-8.1-2.4c-1.9-2.7-1.9-5.4,0-8.1c1.5-0.7,2.7-2.1,4.6-1.9c0.3,0,0.5,0,0.8,0c-0.6,3.6,0.3,7.2,0,10.8
	c-0.1,1,0.6,1.1,1.4,1.1c2.4,0,4.7,0,7.1,0C146.8,201.5,149.7,201.5,152.7,201.5z"/>
<path class="st212" d="M133.5,180.3c-1.2,0.2-2.3-0.3-3.5-0.3c-0.3-0.1-0.5-0.3-0.8-0.4c-0.8-4.5-0.5-9-0.5-13.5
	c0-0.5,0-1.2,0.9-1.2c1.6,0.1,3,0.7,4.2,1.5c0.6,1.2,0.4,2.5,0.3,3.8c-0.1,2.8,0.1,5.6,0,8.4C134.2,179.3,134.2,180,133.5,180.3z"/>
<path class="st191" d="M129.6,164.9c-0.5,0.4-0.4,1-0.4,1.6c0.1,3.7-0.1,7.5,0.3,11.2c0.1,0.7,0,1.3-0.3,1.8
	c-1.4-0.1-2.7-0.7-3.8-1.6c-0.8-1.8-0.8-11.8,0-13.4c0,0,0-0.1,0-0.1C126.8,164.7,128.3,164.2,129.6,164.9z"/>
<path class="st213" d="M133.5,180.3c0.5-1.9,0.3-3.8,0.3-5.7c0-2.7-0.2-5.4,0.1-8.1c1.4,0.9,2.9,1.7,4,3c0.3,3.1-0.1,6.2,0.1,9.3
	c0,0.6-0.2,1.1-0.6,1.5C136,180.3,134.7,180.3,133.5,180.3z"/>
<path class="st199" d="M137.3,180.3c0-3.3,0.1-6.6,0.1-9.9c0-0.4,0.1-0.7,0.4-1c1.2,0.8,2.4,1.6,3.2,2.8c-0.2,0.2-0.5,0.4-0.5,0.5
	c0.4,2.5-0.5,5,0.2,7.5C139.6,180.3,138.5,180.3,137.3,180.3z"/>
<path class="st214" d="M125.4,164.6c0,4.5,0,8.9,0,13.4c-1.3-0.4-2-1.6-3.1-2.3c-0.9-1.4-0.6-2.9-0.6-4.4c0-1.4,0-2.8,0-4.2
	c0-0.8,0.1-1.7,1-2.1C123.6,164.9,124.4,164.4,125.4,164.6z"/>
<path class="st207" d="M122.7,165c-0.8,2.1-0.2,4.2-0.4,6.3c-0.1,1.5,0,2.9,0,4.4c-0.9-0.8-1.8-1.5-2.7-2.3c-0.7-2.4-1-4.8,0-7.2
	C120.6,165.6,121.6,165.1,122.7,165z"/>
<path class="st206" d="M119.6,166.1c0,2.4,0,4.8,0,7.2c-1.5-0.8-2.1-2.6-3.8-3.1c-0.5-0.2-0.8-0.6-0.8-1.1
	C116.7,168.4,117.8,166.8,119.6,166.1z"/>
<path class="st200" d="M176.5,201.8c0-0.1,0-0.3,0-0.4c1.5,0,3.1,0,4.6,0c2.4,0,4.9,0,7.3,0c2.8,0,5.6,0,8.5,0c1.5,0,3.1,0,4.6,0
	c0,0.1,0,0.3,0,0.4c-1.9,0-3.9,0-5.8,0c-2.9,0-5.9,0-8.8,0c-3.3,0-6.7,0-10,0C176.8,201.9,176.7,201.9,176.5,201.8z"/>
</svg>
