<?xml version="1.0" encoding="utf-8"?>
<!-- Generator: Adobe Illustrator 21.1.0, SVG Export Plug-In . SVG Version: 6.00 Build 0)  -->
<svg version="1.1" id="Layer_1" xmlns="http://www.w3.org/2000/svg" xmlns:xlink="http://www.w3.org/1999/xlink" x="0px" y="0px"
	 viewBox="0 0 300 300" style="enable-background:new 0 0 300 300;" xml:space="preserve">
<style type="text/css">
	.st0{fill:#084F86;}
	.st1{fill:#E4B43D;}
	.st2{fill:#7AC0A4;}
	.st3{fill:#FC715D;}
	.st4{fill:#2C3046;}
	.st5{fill:#F9F9EF;}
</style>
<path class="st0" d="M221.6,210.9c6.4,7.8,12.9,15.6,19.3,23.4c13,15.8,26,31.7,38.9,47.5c-0.8,0-1.6,0.1-2.4,0.1
	c-84.5,0-169.1,0-253.6,0c-0.8,0-1.6-0.1-2.4-0.1c18.5-22.6,37-45.1,55.5-67.7c0.9-1.1,1.9-2.2,2.8-3.2c7.1,7.1,14.3,14.2,21.4,21.3
	c1.8,1.8,1.8,1.8,3.6-0.1c6.9-6.9,13.9-13.9,20.8-20.9c1-1,1.5-1,2.5,0c7.1,7.2,14.2,14.2,21.3,21.4c1,1,1.6,1.1,2.6,0
	c7-7.1,14.2-14.2,21.2-21.3c1.1-1.1,1.6-1.2,2.8,0c6.9,7,13.9,13.9,20.8,20.9c1.3,1.3,2,1.5,3.4,0
	C207.2,225.1,214.4,218,221.6,210.9z M131.4,272.2c1.2,0,2.5,0,3.7,0c1,0,1.3-0.4,1.3-1.3c0-1.3,0-2.6,0-3.9c0-4.5,0-4.5-4.5-4.5
	c-5.1,0-5.1,0-5.1,5.1C126.7,272.2,126.7,272.2,131.4,272.2z M150.4,272.2c1.2,0,2.5,0,3.7,0c1,0,1.4-0.3,1.3-1.3
	c-0.1-1.3,0-2.6,0-3.9c0-4.5,0-4.5-4.5-4.5c-1.6,0-3.7-0.7-4.8,0.4c-1,1-0.3,3.1-0.3,4.7C145.7,272.2,145.8,272.2,150.4,272.2z
	 M174.5,267.3c0-4.8,0-4.8-4.7-4.8c-5,0-5,0-5,5c0,4.7,0,4.7,4.8,4.7C174.5,272.2,174.5,272.2,174.5,267.3z"/>
<path class="st1" d="M112.5,176.6c1.6-7.5,3.1-14.9,4.7-22.4c3.1-14.6,6.3-29.2,9.4-43.9c0.1-0.6,0.2-1.2,0.2-1.8
	c0-10.1,0-20.1,0.1-30.2c0-1.7-0.5-2-2.1-2c-4.5,0-9,0.4-13.4-0.6c-13.4-2.9-22.8-14.3-22.8-28c-0.1-12.1,0-24.3,0-36.4
	c0-1.6,0.5-2,2-2c5,0.1,10,0.1,14.9,0c2-0.1,2.3,0.6,2.3,2.4c-0.1,11.6,0.1,23.3-0.1,34.9c-0.1,5.7,3.7,10.7,10.7,10.7
	c9.5-0.1,19,0,28.6-0.1c-7-1.6-12.8-5-16.6-11.2c-3.8-6.2-4.7-12.9-2.5-19.9c3.4-10.7,13.2-16.9,23.3-16.6
	c12.3,0.4,21.7,9.3,23.2,21c0.8,6.4-0.9,12.3-4.8,17.5c-3.9,5.1-9.2,7.9-15.4,9.3c9.6,0,19.1-0.1,28.7,0c7.6,0.1,11-5.5,10.8-10.7
	c-0.2-11.7,0-23.5-0.1-35.3c0-1.6,0.5-2,2-2c5.2,0.1,10.3,0.1,15.5,0c1.4,0,1.8,0.4,1.8,1.8c0,11.9,0.1,23.8-0.1,35.6
	c-0.1,12-5.4,21.1-16.2,26.7c-0.2,0.1-0.3,0.2-0.4,0.3c-1.5,0.5-3,1.1-4.6,1.5c-5,1.5-10.1,1.1-15.1,1.1c-1.5,0-2,0.4-2,2
	c0.1,10.2,0,20.4,0,30.5c0,0.6,0.1,1.2,0.2,1.8c3.1,14.3,6.1,28.6,9.2,43c1.6,7.7,3.2,15.3,4.9,23c-8,0-16,0-23.9,0
	c-0.1-0.4-0.1-0.7-0.2-1.1c-4.3-17.4-8.7-34.8-13.1-52.1c-0.3-1.1-0.3-2.3-1.1-3.4c-0.1,0.4-0.2,0.7-0.3,0.9
	c-2.9,11.4-5.7,22.8-8.6,34.3c-1.8,7.2-3.5,14.3-5.3,21.5C128.4,176.6,120.4,176.6,112.5,176.6z"/>
<path class="st2" d="M112.5,176.6c8,0,15.9,0,23.9,0c9.5,0,19,0,28.5,0c8,0,16,0,23.9,0c3.7-0.6,5.9,1.1,8.2,3.9
	c8.1,10.2,16.4,20.2,24.7,30.3c-7.2,7.1-14.4,14.3-21.5,21.5c-1.4,1.4-2.1,1.3-3.4,0c-6.9-7-13.9-13.9-20.8-20.9
	c-1.1-1.1-1.7-1.1-2.8,0c-7,7.1-14.2,14.2-21.2,21.3c-1,1.1-1.6,1-2.6,0c-7.1-7.2-14.2-14.3-21.3-21.4c-1-1-1.5-1-2.5,0
	c-6.9,7-13.9,13.9-20.8,20.9c-1.8,1.8-1.8,1.8-3.6,0.1c-7.1-7.1-14.3-14.2-21.4-21.3c4.1-5,8.2-10.1,12.3-15.1
	c4.8-5.8,9.6-11.6,14.3-17.5c1-1.2,1.9-1.8,3.4-1.6C110.6,176.8,111.5,176.7,112.5,176.6z"/>
<path class="st3" d="M183.9,153.6c-3.1-14.3-6.1-28.6-9.2-43c-0.1-0.6-0.2-1.2-0.2-1.8c0-10.2,0-20.4,0-30.5c0-1.6,0.4-2,2-2
	c5.1,0,10.2,0.4,15.1-1.1c1.5-0.5,3.1-1,4.6-1.5c7,4.9,11.3,12,15.3,19.2c2.4,4.3,4.8,8.7,7.7,12.7c6.2,8.4,13.9,14.2,25.5,13.2
	c-8.7,5.8-13.5,14.6-19.4,22.3c-6.6,8.6-15.5,12.5-26,13.2C194.2,154.7,189,154.2,183.9,153.6z"/>
<path class="st4" d="M21.4,281.8c0.8,0,1.6,0.1,2.4,0.1c84.5,0,169.1,0,253.6,0c0.8,0,1.6-0.1,2.4-0.1c4.2,0,8.5,0,12.7,0
	c1.1,0,1.5,0.3,1.5,1.4c-0.1,2.2-0.1,4.5,0,6.7c0,1-0.2,1.5-1.3,1.4c-0.4-0.1-0.7,0-1.1,0c-93.9,0-187.9,0-281.8,0
	c-2.4,0-2.4,0-2.4-2.5c0-1.9,0.1-3.7,0-5.6c-0.1-1.2,0.3-1.5,1.5-1.4C12.9,281.9,17.2,281.8,21.4,281.8z"/>
<path class="st4" d="M131.4,272.2c-4.7,0-4.7,0-4.7-4.6c0-5.1,0-5.1,5.1-5.1c4.5,0,4.5,0,4.5,4.5c0,1.3,0,2.6,0,3.9
	c0,0.9-0.3,1.4-1.3,1.3C133.9,272.2,132.6,272.2,131.4,272.2z"/>
<path class="st4" d="M150.4,272.2c-4.7,0-4.7,0-4.6-4.6c0-1.6-0.7-3.6,0.3-4.7c1.1-1.1,3.2-0.4,4.8-0.4c4.5-0.1,4.5,0,4.5,4.5
	c0,1.3,0,2.6,0,3.9c0,1-0.4,1.3-1.3,1.3C152.9,272.2,151.7,272.2,150.4,272.2z"/>
<path class="st4" d="M174.5,267.3c0,4.9,0,4.9-4.9,4.9c-4.8,0-4.8,0-4.8-4.7c0-5,0-5,5-5C174.5,262.6,174.5,262.6,174.5,267.3z"/>
<path class="st5" d="M164.8,176.6c-9.5,0-19,0-28.5,0c1.8-7.2,3.5-14.3,5.3-21.5c2.8-11.4,5.7-22.9,8.6-34.3
	c0.1-0.2,0.1-0.5,0.3-0.9c0.8,1.1,0.9,2.3,1.1,3.4c4.4,17.4,8.7,34.8,13.1,52.1C164.8,175.9,164.8,176.2,164.8,176.6z"/>
</svg>
