<?xml version="1.0" encoding="utf-8"?>
<!-- Generator: Adobe Illustrator 21.1.0, SVG Export Plug-In . SVG Version: 6.00 Build 0)  -->
<svg version="1.1" id="Layer_1" xmlns="http://www.w3.org/2000/svg" xmlns:xlink="http://www.w3.org/1999/xlink" x="0px" y="0px"
   viewBox="0 0 300 300" style="enable-background:new 0 0 300 300;" xml:space="preserve">
<style type="text/css">
  .st0{fill:#FC725E;}
  .st1{fill:#084F86;}
  .st2{fill:#F4E06F;}
  .st3{fill:#7BC0A4;}
  .st4{fill:#A9B3BC;}
  .st5{fill:#C33F51;}
  .st6{fill:#69B195;}
</style>
<path class="st0" d="M223.1,114.1c10.8,0,21.5-0.1,32.3-0.1c2.6,0,4.2,1.6,4.3,4.3c0,0.9,0,1.8,0,2.7c0,52,0,104,0,156
  c0,1.1,0,2.3,0,3.4c-0.5,1.3-1.6,1.2-2.6,1.2c-11.6,0.1-23.1,0.1-34.7,0c-0.8,0-1.6-0.1-2.3-0.6c-0.8-1-0.7-2.3-0.7-3.5
  c0-52.3,0-104.6,0-156.9C219.4,117.8,219.6,115,223.1,114.1z"/>
<path class="st1" d="M247.7,30.6c-4.4,0.5-8.3,0.9-12.2,1.5c-5.6,0.8-10-2.3-10.8-7.6c-0.7-4.8,2.9-9.1,8.3-9.8
  c11.1-1.4,22.2-2.9,33.2-4.2c7-0.9,11.1,2.8,11.1,9.9c0,11.1,0,22.2,0,33.3c0,4.6-2.4,7.7-6.5,8.9c-3.6,1-7.4-0.4-9.6-3.6
  c-1.2-1.7-1.5-3.7-1.5-5.8c0-3,0-6,0-9.4c-3.8,4.3-7.3,8.4-10.8,12.3c-24.3,26.9-52.4,48.9-84.1,66.3C133.3,139.9,99.7,152,64.4,159
  c-12,2.4-24.1,4.3-36.3,4.8c-6.5,0.3-10.8-5-9.2-11.1c0.9-3.5,4.2-6.1,8.3-6.4c35.7-2.5,69.8-11.8,102.5-26
  c35.1-15.3,66.5-36.1,93.8-62.9c7.9-7.8,15.4-15.9,22.5-24.5C246.4,32.3,246.9,31.6,247.7,30.6z"/>
<path class="st2" d="M123.9,280.7c0-37.8,0-75.5,0-113.3c0-3.7,1.6-5.3,5.4-5.3c13.9,0,27.9,0,41.8,0c3.8,0,5.4,1.6,5.4,5.5
  c0,37.7,0,75.3,0,113c-0.8,1.1-2,0.9-3.1,0.9c-15.4,0-30.9,0-46.3,0C125.9,281.7,124.7,281.8,123.9,280.7z"/>
<path class="st3" d="M43.5,184.5c0.7-0.6,1.5-0.4,2.3-0.4c13.9,0,27.9,0,41.8,0c2.5,0,4.5,0.6,5.2,3.4c0.3,0.8,0.2,1.6,0.2,2.4
  c0,29.5,0,59,0,88.4c0,3.1-0.2,3.3-3.3,3.3c-15.3,0-30.6,0-45.9,0c-1.2,0-2.5,0.2-3.2-1.1c0.8-1,2-0.8,3.1-0.9c2.3-0.1,4.7,0,7,0
  c1.5,0,2.2-0.7,2.3-2.2c0-1,0-1.9,0-2.9c0-27.6,0-55.2,0-82.8c0-1.5-0.1-3.1,0.3-4.6c0.4-1.4-0.3-1.7-1.5-1.7c-1.8,0-3.6,0-5.3,0
  C45.4,185.3,44.3,185.4,43.5,184.5z"/>
<path class="st4" d="M40.8,280.4c0.6,0.8,1.5,0.5,2.3,0.5c15.7,0,31.4,0,47.2,0.1c2.2,0,2.6-0.7,2.6-2.8c-0.1-29.3,0-58.5,0-87.8
  c0-1,0-1.9,0-2.9c0.7,0.9,0.4,2,0.4,3.1c0,29.1,0,58.1,0,87.2c0,2.3,0.4,3.2,3,3.1c9.2-0.2,18.5-0.1,27.7-0.2
  c11.7,0,23.4,0.1,35.1,0.1c5.8,0,11.6-0.1,17.4-0.1c10.2,0,20.4,0.1,30.7,0.1c0.7-0.6,1.5-0.7,2.3-0.7c3.6,0.2,7.3-0.6,10.8,0.5
  c5.6,0.1,11.1,0.1,16.7,0.2c6.8,0,13.5,0,20.3,0c0.9,0,1.8,0.2,2.6-0.4c0.9,0.6,1.9,0.4,2.8,0.4c7.6,0,15.2,0,22.9,0
  c3.3,0,4.8,1.3,4.9,4.1c0,2.8-1.7,4.5-4.7,4.7c-0.6,0-1.1,0-1.7,0c-89.2,0-178.3,0-267.5,0c-1.1,0-2.3,0.1-3.4-0.3
  c-2-0.7-3.6-2.7-3.4-4.5c0.3-2.3,2.1-3.9,4.4-3.9c7.8,0,15.6-0.1,23.3,0c2.3,0,2.8-0.6,2.8-2.8c-0.1-29.2-0.1-58.4,0-87.5
  c0-1-0.3-2.1,0.4-3.1c1,0.9,0.8,2.1,0.8,3.2c0,28.8,0,57.7,0,86.5C41.5,278.3,41.6,279.5,40.8,280.4z"/>
<path class="st5" d="M220.2,280.7c-4.4,0.1-8.7,0.1-13.1,0.2c0-53.4,0-106.8,0-160.2c0-0.8,0-1.6,0-2.4c0.2-2.4,1.9-4.1,4.3-4.1
  c3.9-0.1,7.8,0,11.7,0.1c-2.4,1.4-2.9,3.6-2.9,6.2C220.2,173.8,220.2,227.2,220.2,280.7z"/>
<path class="st6" d="M40.8,280.4c0-30.1,0-60.2,0-90.3c0-0.9,0-1.8-0.1-2.7c0.4-1.6,1.3-2.6,2.9-2.9c3.4,0,6.8,0,10.2,0.1
  c1,0,2.1,0.1,0.9,1.4c-1,1-0.7,2.3-0.7,3.4c0,29.2,0,58.4,0,87.7c0,3.3,0,3.3-3.4,3.3C47.2,280.4,44,280.4,40.8,280.4z"/>
</svg>
