<?xml version="1.0" encoding="utf-8"?>
<!-- Generator: Adobe Illustrator 21.1.0, SVG Export Plug-In . SVG Version: 6.00 Build 0)  -->
<svg version="1.1" id="Layer_1" xmlns="http://www.w3.org/2000/svg" xmlns:xlink="http://www.w3.org/1999/xlink" x="0px" y="0px"
	 viewBox="0 0 300 300" style="enable-background:new 0 0 300 300;" xml:space="preserve">
<style type="text/css">
	.st0{fill:#FC715D;}
	.st1{fill:#F4E06F;}
	.st2{fill:#7BC0A5;}
	.st3{fill:#5A646F;}
	.st4{fill:#0A5188;}
	.st5{fill:#F9F9EF;}
</style>
<path class="st0" d="M207.4,148.8c0-30.5,0-61.1,0-91.6c0-1.8,0.4-2.4,2.3-2.4c17.7,0.1,35.5,0.1,53.2,0c1.8,0,2.2,0.5,2.2,2.2
	c0,61.1,0,122.3,0,183.4c0,1.8-0.4,2.3-2.3,2.3c-17.8-0.1-35.6-0.1-53.4,0c-1.6,0-2-0.4-2-2C207.4,210.1,207.4,179.5,207.4,148.8z
	 M231.4,157.4c0-14.1,0-28.2,0-42.2c0-3-1.8-4.7-4.8-4.7c-3,0-4.8,1.8-4.8,4.7c0,5.2,0,10.4,0,15.7c0,22.8,0,45.5,0,68.3
	c0,1.5,0.2,2.9,1.5,3.9c1.7,1.4,3.5,1.6,5.5,0.8c1.9-0.8,2.7-2.3,2.7-4.3C231.3,185.5,231.4,171.5,231.4,157.4z M231.4,221.4
	c0-1.3,0-2.7,0-4c0-2.7-1.9-4.5-4.6-4.5c-2.9,0-4.9,1.7-4.9,4.4c0,2.7,0,5.5,0,8.2c0,2.6,2,4.4,4.7,4.5c2.7,0,4.7-1.9,4.8-4.4
	C231.4,224.2,231.4,222.8,231.4,221.4z"/>
<path class="st1" d="M178.5,170.3c0,23.4,0,46.9,0,70.3c0,1.7-0.4,2.2-2.2,2.2c-17.8-0.1-35.6-0.1-53.4,0c-1.7,0-2.1-0.5-2.1-2.1
	c0-47,0-94,0-140.9c0-1.7,0.5-2.3,2.2-2.3c17.7,0.1,35.4,0.1,53.2,0c1.7,0,2.2,0.4,2.2,2.2C178.5,123.2,178.5,146.8,178.5,170.3z
	 M145,178.8c0-6.9,0-13.8,0-20.8c0-3-1.9-4.9-4.8-4.9c-3,0-4.7,1.8-4.7,4.8c0,13.8,0,27.7,0,41.5c0,3.1,1.7,4.8,4.7,4.8
	c3,0,4.8-1.8,4.8-4.9C145,192.5,145,185.7,145,178.8z M145,221.5c0-1.3,0-2.7,0-4c0-2.8-1.8-4.6-4.8-4.6c-2.9,0-4.8,1.7-4.8,4.5
	c0,2.7,0,5.3,0,8c0,2.7,2.1,4.6,4.8,4.6c2.6,0,4.6-2,4.7-4.5C145,224.1,145,222.8,145,221.5z"/>
<path class="st2" d="M92.2,195.8c0,15,0,30,0,45c0,1.6-0.5,2-2,2c-17.9-0.1-35.7-0.1-53.6,0c-1.7,0-2.1-0.6-2.1-2.2
	c0-29.9,0-59.9,0-89.8c0-1.7,0.5-2.1,2.1-2.1c17.8,0.1,35.6,0.1,53.4,0c1.8,0,2.2,0.5,2.2,2.2C92.2,165.9,92.2,180.9,92.2,195.8z
	 M49.1,191.6c0,2.7,0,5.5,0,8.2c0,2.8,1.9,4.5,4.8,4.5c2.9,0,4.7-1.8,4.8-4.6c0-5.5,0-10.9,0-16.4c0-2.7-2-4.6-4.7-4.6
	c-2.8,0-4.8,1.7-4.8,4.5C49,186,49.1,188.8,49.1,191.6z M49.1,221.3c0,1.4,0,2.8,0,4.2c0.1,2.6,2.1,4.4,4.7,4.5
	c2.6,0,4.7-1.9,4.8-4.5c0-2.8,0.1-5.6,0-8.4c-0.1-2.6-2-4.2-4.7-4.3c-2.9,0-4.8,1.6-4.8,4.3C49,218.5,49.1,219.9,49.1,221.3z"/>
<path class="st3" d="M149.7,264c-45.9,0-91.8,0-137.7,0c-0.7,0-1.5,0-2.2,0c-2.3-0.3-4-2.2-4-4.2c0-2,1.8-3.8,4-4.1
	c0.7-0.1,1.5-0.1,2.2-0.1c89.9,0,179.9,0,269.8,0c2.4,0,2.4,0,2.4-2.4c0-64.2,0-128.5,0-192.7c0-4,2.6-6.2,6.1-5.3
	c2.2,0.6,3.4,2.1,3.4,4.3c0,0.4,0,0.7,0,1.1c0,65.9,0,131.8,0,197.7c0,4.4-1.4,5.8-5.9,5.8C241.8,264,195.8,264,149.7,264z"/>
<path class="st4" d="M144.9,76.2c-4.8-4.3-9.5-8.4-14-12.6c-1.3-1.2-2-1.1-3.3,0c-13.6,12.2-27.4,24.4-41.1,36.6
	c-2.6,2.3-5.2,2.3-7.8,0c-3.1-2.8-6.3-5.5-9.4-8.4c-0.8-0.7-1.3-0.8-2.2,0c-16.3,14.5-32.6,29-49,43.6c-1.4,1.2-2.7,2.4-4.1,3.6
	c-1.5,1.3-3.2,1.7-5.1,1.1c-1.6-0.5-2.8-1.5-3.2-3.2c-0.4-1.6,0.3-3,1.5-4c4.8-4.3,9.6-8.5,14.4-12.8C36,107.5,50.1,94.9,64.2,82.3
	c2.7-2.4,5.2-2.4,7.9-0.1c3.1,2.7,6.2,5.5,9.2,8.2c0.6,0.5,1.1,1.2,2.1,0.3c12.8-11.5,25.7-22.9,38.6-34.4c0.1-0.1,0.1-0.2,0.2-0.4
	c-5.1-4.6-10.3-9.2-15.7-14c4.7-0.5,9.1-0.9,13.5-1.3c9.4-0.9,18.7-1.8,28.1-2.8c1.3-0.1,1.7,0.1,1.5,1.5c-1.5,11.7-3,23.5-4.4,35.2
	C145.2,75.1,145.1,75.5,144.9,76.2z"/>
<path class="st5" d="M231.4,157.4c0,14,0,28,0,42.1c0,2.1-0.8,3.6-2.7,4.3c-1.9,0.8-3.8,0.6-5.5-0.8c-1.2-1-1.5-2.4-1.5-3.9
	c0-22.8,0-45.5,0-68.3c0-5.2,0-10.4,0-15.7c0-3,1.8-4.8,4.8-4.7c3,0,4.8,1.7,4.8,4.7C231.4,129.3,231.4,143.4,231.4,157.4z"/>
<path class="st5" d="M231.4,221.4c0,1.4,0,2.8,0,4.2c-0.1,2.6-2.1,4.4-4.8,4.4c-2.7,0-4.7-1.9-4.7-4.5c0-2.7,0-5.5,0-8.2
	c0-2.7,2-4.5,4.9-4.4c2.8,0,4.6,1.8,4.6,4.5C231.4,218.7,231.4,220,231.4,221.4z"/>
<path class="st5" d="M145,178.8c0,6.9,0,13.7,0,20.6c0,3.1-1.8,4.9-4.8,4.9c-3,0-4.7-1.7-4.7-4.8c0-13.8,0-27.7,0-41.5
	c0-3,1.7-4.8,4.7-4.8c3,0,4.8,1.8,4.8,4.9C145,165,145,171.9,145,178.8z"/>
<path class="st5" d="M145,221.5c0,1.3,0,2.7,0,4c-0.1,2.6-2.1,4.5-4.7,4.5c-2.7,0-4.8-1.9-4.8-4.6c0-2.7,0-5.3,0-8
	c0-2.8,1.8-4.5,4.8-4.5c2.9,0,4.7,1.7,4.8,4.6C145,218.8,145,220.1,145,221.5z"/>
<path class="st5" d="M49.1,191.6c0-2.8,0-5.6,0-8.4c0-2.8,2-4.6,4.8-4.5c2.7,0,4.7,1.9,4.7,4.6c0,5.5,0,10.9,0,16.4
	c0,2.8-1.9,4.6-4.8,4.6c-2.9,0-4.7-1.7-4.8-4.5C49,197,49.1,194.3,49.1,191.6z"/>
<path class="st5" d="M49.1,221.3c0-1.4,0-2.8,0-4.2c0.1-2.6,2-4.3,4.8-4.3c2.7,0,4.6,1.7,4.7,4.3c0.1,2.8,0,5.6,0,8.4
	c0,2.5-2.2,4.5-4.8,4.5c-2.7,0-4.7-1.9-4.7-4.5C49,224.1,49.1,222.7,49.1,221.3z"/>
</svg>
