<?xml version="1.0" encoding="utf-8"?>
<!-- Generator: Adobe Illustrator 21.1.0, SVG Export Plug-In . SVG Version: 6.00 Build 0)  -->
<svg version="1.1" id="Layer_1" xmlns="http://www.w3.org/2000/svg" xmlns:xlink="http://www.w3.org/1999/xlink" x="0px" y="0px"
   viewBox="0 0 300 300" style="enable-background:new 0 0 300 300;" xml:space="preserve">
<style type="text/css">
  .st0{fill:#094F87;}
  .st1{fill:#FC715D;}
  .st2{fill:#F9F9EF;}
  .st3{fill:#42596A;}
  .st4{fill:#D1D6D2;}
</style>
<g>
  <path class="st0" d="M268,73c12.3,17.9,20,37.6,22.9,59.1c3.5,26.1,0.1,51.3-10.8,75.3c-10.8,23.7-27.1,43-48.5,57.7
    c-18.7,12.9-39.4,20.8-62,23.8c-30.6,4-59.7-0.9-86.7-15.6c-37.7-20.5-62.2-51.7-71.1-93.8c-9.2-43.5,1-83,29.4-117.2
    c21.4-25.8,49-41.8,81.9-48c38.8-7.3,74.9,0.1,107.9,21.9c0.3,0.2,0.5,0.4,0.7,0.6c-2,1.4-2.1,3.4-2.1,5.6c0.1,6.9,0,13.8-0.1,20.7
    c-2.4,1.6-4.1,3.9-6.2,5.8c-0.7,0.7-1.4,1.4-2.4,1.5c-7.4-5.9-15.3-11.1-23.9-15c-21.7-9.9-44.4-12.8-67.6-7.7
    C94.9,55,69.4,74.6,53.8,106.3C44,126,41.3,147,45.1,168.7c4,22.9,14.6,42.4,31.7,58.2c26.4,24.3,57.6,33.6,93,27.9
    c24.8-4,45.6-15.8,62.4-34.5c8.1-8.9,14.5-18.9,18.9-30.2c2.5-5.5,4.2-11.2,5.4-17.1c0.1-0.3,0.2-0.7,0.3-1
    c3-14.7,2.9-29.5-0.4-44.1c-3.8-16.6-11.4-31.4-22.4-44.5c1.1-1.2,2.3-2.3,3.4-3.5c1.5-1.7,3.5-3,4.7-5c7.1,0,14.2-0.1,21.3-0.1
    C265.2,74.7,266.8,74.6,268,73z"/>
  <path class="st1" d="M268,73c-1.2,1.5-2.8,1.7-4.7,1.7c-7.1-0.1-14.2,0-21.3,0.1c-3.6,0-7.2-0.1-10.9-0.1c-1.3,0-1.7-0.3-1.6-1.6
    c0.1-3.4,0-6.8-0.1-10.1c0-6.9,0.1-13.8,0.1-20.7c0-2.2,0.1-4.2,2.1-5.6c5.6-5.4,11.2-10.8,16.8-16.1c3-2.9,6-5.8,9.1-8.7
    c0.4,0.7,0.2,1.3,0.3,1.9c0,9.9,0,19.8,0,29.7c0,3.6-0.5,3.1,3,3.1c10.3,0,20.5,0,30.8,0c0.6,0,1.3,0,2,0c-0.2,0.9-0.8,1.2-1.2,1.7
    c-7.8,8-15.7,15.9-23.5,23.9C268.5,72.4,268.3,72.7,268,73z"/>
  <path class="st2" d="M251.1,190.1c-4.4,11.2-10.8,21.2-18.9,30.2c-16.8,18.6-37.6,30.5-62.4,34.5c-35.4,5.7-66.6-3.6-93-27.9
    c-17.1-15.7-27.6-35.3-31.7-58.2C41.3,147,44,126,53.8,106.3C69.4,74.6,94.9,55,129.3,47.6c23.3-5,45.9-2.2,67.6,7.7
    c8.7,3.9,16.5,9.1,23.9,15c0.1,0.4-0.1,0.7-0.4,0.9c-7.6,7.3-15.3,14.5-22.9,21.8c-1-0.8-1.9-1.7-2.9-2.5
    C178.1,77.3,159.4,72,138.4,76c-14.8,2.8-27.4,10.1-37.5,21.2c-17.1,18.8-23.3,41-19.3,65.9c2.8,17.7,11.1,32.8,24.7,44.6
    c15.2,13.3,33,19.2,53.1,16.8c18.3-2.2,33.1-11,45-24.9c5.4-6.3,9.4-13.5,12.6-21.2c6.7,2.3,13.3,4.6,20,6.9
    C241.6,187,246.2,189,251.1,190.1z"/>
  <path class="st2" d="M234,83.4c11,13.1,18.6,27.8,22.4,44.5c3.4,14.7,3.4,29.4,0.4,44.1c-0.1,0.4-0.2,0.7-0.3,1
    c-2.7-0.5-5.2-1.6-7.7-2.5c-9.1-3.2-18.2-6.3-27.3-9.5c1.2-10.2,0.8-20.4-1.7-30.4c-2.1-8.5-5.7-16.3-10.4-23.7
    c6.5-6.3,13-12.6,19.5-18.9C230.6,86.4,232.1,84.7,234,83.4z"/>
  <path class="st3" d="M234,83.4c-1.9,1.3-3.4,3-5.1,4.6c-6.5,6.3-13,12.6-19.5,18.9c-9,8.8-18.1,17.5-27.1,26.3
    c-3.4,3.3-6.8,6.6-10.3,9.9c-3.4,3.3-6.8,6.5-10.2,9.8c-1.9,1.9-4,3.1-6.6,3.5c-0.4,0-0.8,0-1.3-0.1c-4.1-0.2-7-2.1-8.6-5.9
    c-1.4-3.5-0.5-7.1,2.6-10.1c2.2-2.1,4.4-4.2,6.6-6.3c4.9-4.7,9.8-9.4,14.6-14.1c0.2-0.2,0.5-0.3,0.7-0.5
    c9.2-8.8,18.4-17.6,27.6-26.4c7.6-7.3,15.3-14.5,22.9-21.8c0.3-0.3,0.5-0.5,0.4-0.9c1-0.2,1.7-0.9,2.4-1.5c2.1-1.9,3.8-4.2,6.2-5.8
    c0,3.4,0.1,6.8,0.1,10.1c0,1.3,0.4,1.6,1.6,1.6c3.6,0,7.2,0,10.9,0.1c-1.2,2-3.1,3.3-4.7,5C236.3,81,235.1,82.2,234,83.4z"/>
  <path class="st4" d="M221.5,161c9.1,3.2,18.2,6.3,27.3,9.5c2.6,0.9,5,2.1,7.7,2.5c-1.2,5.9-2.9,11.6-5.4,17.1
    c-4.9-1.2-9.5-3.2-14.2-4.8c-6.7-2.2-13.3-4.6-20-6.9C219,172.8,220.5,166.9,221.5,161z"/>
  <path class="st1" d="M221.5,161c-1,6-2.5,11.8-4.6,17.5c-3.2,7.7-7.2,14.8-12.6,21.2c-11.9,14-26.7,22.8-45,24.9
    c-20.1,2.4-37.9-3.5-53.1-16.8c-13.6-11.8-21.8-26.9-24.7-44.6c-4-24.9,2.3-47.1,19.3-65.9C111,86.1,123.5,78.9,138.4,76
    c21-4,39.7,1.3,56.3,14.5c1,0.8,1.9,1.6,2.9,2.5c-9.2,8.8-18.4,17.6-27.6,26.4c-0.2,0.2-0.5,0.4-0.7,0.5
    c-7.7-4.2-15.8-5.7-24.4-4.2c-20.4,3.5-33.7,24.3-28.3,44.2c6.5,23.5,33.9,33.9,54.3,20.6c5.4-3.5,9.8-8.1,12.5-14.1
    c0.3-0.6,0.7-1.1,1-1.7c2.2-5.2,3.1-10.5,2.7-16.1c-0.2-5.6-1.7-10.7-4.7-15.5c9-8.8,18.1-17.5,27.1-26.3
    c4.7,7.3,8.2,15.2,10.4,23.7C222.3,140.6,222.8,150.7,221.5,161z"/>
  <path class="st2" d="M183.4,166.5c-2.7,6-7,10.6-12.5,14.1c-20.4,13.3-47.8,2.9-54.3-20.6c-5.5-19.8,7.9-40.7,28.3-44.2
    c8.6-1.5,16.7,0,24.4,4.2c-4.9,4.7-9.8,9.4-14.6,14.1c-2.2,2.1-4.4,4.2-6.6,6.3c-3,2.9-4,6.5-2.6,10.1c1.6,3.8,4.5,5.7,8.6,5.9
    c0.4,0,0.8,0,1.3,0.1c0.2,0.8,1,0.8,1.6,1c4.8,1.7,9.5,3.4,14.3,5C175.3,163.8,179.2,165.5,183.4,166.5z"/>
  <path class="st4" d="M183.4,166.5c-4.2-1-8.1-2.7-12.2-4.1c-4.8-1.6-9.6-3.3-14.3-5c-0.6-0.2-1.3-0.2-1.6-1
    c2.6-0.4,4.7-1.7,6.6-3.5c3.3-3.3,6.8-6.5,10.2-9.8c0,0.8,0.8,0.8,1.3,1c1.2,0.5,2.5,0.9,3.7,1.3c3.3,1,6.5,2.6,9.9,3.2
    c0.4,5.6-0.5,11-2.7,16.1C184.1,165.4,183.7,165.9,183.4,166.5z"/>
  <path class="st2" d="M187,148.6c-3.5-0.6-6.6-2.2-9.9-3.2c-1.3-0.4-2.5-0.8-3.7-1.3c-0.5-0.2-1.3-0.2-1.3-1
    c3.4-3.3,6.8-6.6,10.3-9.9C185.3,137.9,186.8,143.1,187,148.6z"/>
</g>
</svg>
