<?xml version="1.0" encoding="utf-8"?>
<!-- Generator: Adobe Illustrator 21.1.0, SVG Export Plug-In . SVG Version: 6.00 Build 0)  -->
<svg version="1.1" id="Layer_1" xmlns="http://www.w3.org/2000/svg" xmlns:xlink="http://www.w3.org/1999/xlink" x="0px" y="0px"
	 viewBox="0 0 300 300" style="enable-background:new 0 0 300 300;" xml:space="preserve">
<style type="text/css">
	.st0{fill:#FEFEFE;}
	.st1{fill:#7CC1A5;}
	.st2{fill:#FDCABE;}
	.st3{fill:#0A5088;}
	.st4{fill:#FDD070;}
	.st5{fill:#FDD071;}
	.st6{fill:#FBFCFC;}
	.st7{fill:#D3D5D6;}
	.st8{fill:#87C6AD;}
	.st9{fill:#81C4A9;}
</style>
<path class="st0" d="M294.1,61.5c-0.3-0.3-0.6-0.6-0.8-0.9c0-1,0-2,0-3c0.3-0.3,0.6-0.6,0.8-0.9C294.1,58.3,294.1,59.9,294.1,61.5z"
	/>
<path class="st0" d="M293.3,250.3c0.3-0.3,0.6-0.6,0.9-0.9c0,1.6,0,3.2,0,4.8c-0.3-0.3-0.5-0.5-0.8-0.8
	C293.3,252.4,293.3,251.3,293.3,250.3z"/>
<path class="st0" d="M294.1,28c-0.3-0.3-0.5-0.5-0.8-0.8C294,27,294.3,27.3,294.1,28z"/>
<path class="st0" d="M8.8,27.2C8.5,27.4,8.3,27.7,8,28C7.8,27.3,8.1,27,8.8,27.2z"/>
<path class="st0" d="M8,274.1c0.3,0.3,0.5,0.5,0.8,0.8C8.1,275.1,7.8,274.8,8,274.1z"/>
<path class="st0" d="M293.3,274.9c0.3-0.3,0.5-0.5,0.8-0.8C294.3,274.8,294,275.1,293.3,274.9z"/>
<path class="st1" d="M112.3,11.1c24.8,0,49.6,0,74.4,0.1c-7.1,10.4-14.2,20.8-21.8,31.8c7.7,1.2,15.1,2.1,22.1,4.9
	c24,9.7,39.6,31.8,40,57.7c0.2,15.5,0.4,31.1-0.1,46.6c-0.3,9,1.5,16.8,7,23.9c1.9,2.4,3.4,5.2,5,7.8c-0.9,2.1-3,2.4-4.7,3.1
	c-10.2,4.4-20.4,8.7-30.6,13.1c-2.5,1.1-4.9,2.4-7.7,2.4c-28.2,0-56.5,0.1-84.7,0c-5.3,0-9.7-4-9.8-9c-0.1-5,2.4-8.6,7.4-9.8
	c2.2-0.5,4.6-0.8,6.9-0.8c12.3-0.1,24.5,0.1,36.8-0.1c12.4-0.3,24.1-11.2,25.6-23.3c0.4-3.3-0.2-5.4-4.2-4.9c-1.3,0.1-2.7,0-4.1,0
	c6.5-12.2,4.8-22.3-5.7-25.9c-8.8-3-10.8-7.9-9.5-15.9c0.1-0.6-0.1-1.2,0-1.7c0.2-1.4-0.7-3.4,1.2-4.1c1.9-0.8,3.8-0.3,5.5,0.8
	c1.9,1.3,2.6,3.2,2.7,5.5c0.4,4.7,4,2.4,6.3,2.7c2.6,0.4,3.2-1.3,3.2-3.6c0.2-7.5-5.3-14.2-13.8-15.5c-4.2-0.6-5.8-2-5.2-6.1
	c0.6-3.8-1.9-3.9-4.7-3.9c-2.7,0-5.3-0.1-4.8,3.8c0.6,4.1-0.9,5.6-5.2,6c-7.8,0.8-13.4,6.9-14.3,14c-0.9,7.3,2.9,14.8,10.5,16.9
	c8.1,2.3,10.3,6.9,9.1,14.4c-0.1,0.8,0.1,1.6,0,2.3c-0.2,2,0.9,4.7-2.2,5.2c-2.4,0.4-4.7-0.6-6.1-2.7c-0.8-1.2-1.4-2.8-1.7-4.3
	c-0.8-4.9-4.5-2.6-7-2.8c-3.5-0.3-2.7,2.7-2.6,4.6c0.1,3.9,2.4,6.9,4.3,10.1c-4.1,0-8.1,0.1-12.2,0.1c-15.4,0-31.1-1.6-45,7.5
	c0-18.7,0-37.4,0.1-56.1c0.1-22.9,10.3-40.3,29-52.8c9.7-6.5,20.7-9.1,33-9.9C126.9,32.1,119.6,21.6,112.3,11.1z"/>
<path class="st2" d="M72.5,162.1c13.9-9.2,29.6-7.6,45-7.5c4.1,0,8.1,0,12.2-0.1c13.3,0,26.7,0,40,0c1.4,0,2.7,0.2,4.1,0
	c3.9-0.4,4.6,1.6,4.2,4.9c-1.5,12.1-13.2,23.1-25.6,23.3c-12.3,0.3-24.5,0.1-36.8,0.1c-2.3,0-4.7,0.3-6.9,0.8
	c-5.1,1.2-7.5,4.8-7.4,9.8c0.1,5,4.5,8.9,9.8,9c28.2,0.1,56.5,0,84.7,0c2.8,0,5.3-1.3,7.7-2.4c10.2-4.3,20.4-8.7,30.6-13.1
	c1.7-0.7,3.8-1.1,4.7-3.1c10.2-2.1,19.2-7.2,28.7-11.1c8.3-3.4,15.7-1.9,19.5,4.6c4.4,7.6,2.4,15.7-5.1,20.9
	c-1.3,0.9-2.7,1.5-4.1,2.2c-15.4,7.9-31.1,15.3-46.2,23.8c-17.9,10.1-37.2,15.3-57,19.8c-30.5,6.9-60.8,14.4-91.1,21.8
	c-0.5,0.1-1,0.6-1.4,1c-14.9-21.4-29.4-43.1-43.4-65.1C49.8,188.4,60.2,174.5,72.5,162.1z"/>
<path class="st3" d="M38.7,201.8c14,22,28.5,43.7,43.4,65.1c4.6,8.4,4.6,8.3-2.5,15.5c-1.8,1.8-3.4,3.7-5.1,5.5
	c-19.6,0.1-39.2,0-58.9,0.2c-3.5,0-4.8-1-4.7-4.6c0.2-27.4,0.2-54.8,0.2-82.2c4.7-3.4,9.7-6.6,14.1-10.4c3.4-2.9,4.9-2.1,6.9,1.4
	C33.9,195.6,36.4,198.6,38.7,201.8z M62.6,265.5c0.1-5.3-4-9.8-9.3-10c-5-0.2-9.7,4.3-9.8,9.5c-0.1,5.2,4.1,9.7,9.4,9.9
	C58.1,275.1,62.5,270.9,62.6,265.5z"/>
<path class="st4" d="M245.9,20.2c4.2,11.2,7,14,18.2,18.4c-8.8,3.3-15.2,8.4-18,18.4c-3.5-9.7-9.4-15.3-18.7-18.5
	C237.4,36,242.8,29.9,245.9,20.2z"/>
<path class="st5" d="M11.2,135c10.7-4.6,12.8-6.6,17.8-17.6c3.4,8.5,8.3,14.8,18.7,17.4c-10.1,3.4-15.7,9.3-18.7,18.3
	c-3.4-9.1-8.6-15.4-17.9-17.4C11.1,135.5,11.1,135.2,11.2,135z"/>
<path class="st6" d="M169.7,154.5c-13.3,0-26.7,0-40,0c-1.9-3.2-4.1-6.2-4.3-10.1c-0.1-2-0.9-4.9,2.6-4.6c2.5,0.2,6.2-2.1,7,2.8
	c0.2,1.5,0.8,3,1.7,4.3c1.4,2.1,3.7,3.1,6.1,2.7c3.1-0.5,2-3.3,2.2-5.2c0.1-0.8-0.1-1.6,0-2.3c1.2-7.5-1-12.1-9.1-14.4
	c-7.6-2.2-11.4-9.6-10.5-16.9c0.9-7.1,6.5-13.2,14.3-14c4.4-0.5,5.8-1.9,5.2-6c-0.6-3.9,2.1-3.8,4.8-3.8c2.8,0,5.3,0,4.7,3.9
	c-0.7,4.2,1,5.5,5.2,6.1c8.6,1.3,14,8,13.8,15.5c-0.1,2.3-0.6,4-3.2,3.6c-2.3-0.4-5.9,1.9-6.3-2.7c-0.2-2.3-0.8-4.2-2.7-5.5
	c-1.7-1.2-3.6-1.6-5.5-0.8c-1.8,0.8-1,2.7-1.2,4.1c-0.1,0.6,0.1,1.2,0,1.7c-1.3,8,0.7,13,9.5,15.9
	C174.6,132.2,176.2,142.3,169.7,154.5z M145.3,113.6c-1.4-2.5,2.2-7.5-3.6-7.4c-3.7,0-6.5,2.5-6.8,6.6c-0.2,3.3,4.9,8.3,8.2,7.5
	C147,119.4,144,115.7,145.3,113.6z M154.2,142.2c1.6,2.4-2.2,7.1,3.1,7.4c3.8,0.2,6.6-2.1,6.7-6.5c0.1-3.7-3.7-7.8-7.5-7.3
	C152.3,136.4,155.8,140.2,154.2,142.2z"/>
<path class="st7" d="M62.6,265.5c-0.1,5.4-4.5,9.6-9.7,9.4c-5.2-0.2-9.5-4.7-9.4-9.9c0.1-5.2,4.8-9.6,9.8-9.5
	C58.6,255.7,62.8,260.2,62.6,265.5z"/>
<path class="st8" d="M145.3,113.6c-1.3,2.2,1.7,5.8-2.2,6.7c-3.3,0.8-8.4-4.2-8.2-7.5c0.3-4.1,3-6.6,6.8-6.6
	C147.5,106.1,143.9,111.1,145.3,113.6z"/>
<path class="st9" d="M154.2,142.2c1.6-2-1.9-5.8,2.3-6.4c3.8-0.5,7.6,3.6,7.5,7.3c-0.1,4.3-2.9,6.7-6.7,6.5
	C152,149.3,155.8,144.6,154.2,142.2z"/>
</svg>
